SplineFontDB: 3.2
FontName: TrimmedJuliaMono-BoldItalic
FullName: TrimmedJuliaMono BoldItalic
FamilyName: TrimmedJuliaMono
Weight: Bold
Copyright: Copyright 2021 The JuliaMono Project Authors (https://github.com/cormullion/juliamono)
Version: 0.044; ttfautohint (v1.8.4)
ItalicAngle: -9
UnderlinePosition: -250
UnderlineWidth: 100
Ascent: 1600
Descent: 400
InvalidEm: 0
sfntRevision: 0x00000b43
LayerCount: 2
Layer: 0 1 "Back" 1
Layer: 1 1 "Fore" 0
XUID: [1021 821 -1512940191 21534]
StyleMap: 0x0021
FSType: 0
OS2Version: 4
OS2_WeightWidthSlopeOnly: 0
OS2_UseTypoMetrics: 1
CreationTime: 1643970042
ModificationTime: 1658266022
PfmFamily: 17
TTFWeight: 700
TTFWidth: 5
LineGap: 0
VLineGap: 0
Panose: 2 11 6 9 6 3 0 2 0 4
OS2TypoAscent: 1900
OS2TypoAOffset: 0
OS2TypoDescent: -480
OS2TypoDOffset: 0
OS2TypoLinegap: 0
OS2WinAscent: 2400
OS2WinAOffset: 0
OS2WinDescent: 600
OS2WinDOffset: 0
HheadAscent: 1900
HheadAOffset: 0
HheadDescent: -480
HheadDOffset: 0
OS2SubXSize: 1300
OS2SubYSize: 1200
OS2SubXOff: 0
OS2SubYOff: 150
OS2SupXSize: 1300
OS2SupYSize: 1200
OS2SupXOff: 0
OS2SupYOff: 700
OS2StrikeYSize: 100
OS2StrikeYPos: 1100
OS2CapHeight: 1450
OS2XHeight: 1100
OS2Vendor: 'UKWN'
OS2CodePages: 602801bf.00000000
OS2UnicodeRanges: e501ffff.fac5ffff.0f04e877.05c0a06c
Lookup: 1 0 0 "'aalt' Access All Alternates lookup 0" { "'aalt' Access All Alternates lookup 0 subtable"  } ['aalt' ('DFLT' <'dflt' > 'cyrl' <'BGR ' 'SRB ' 'dflt' > 'hebr' <'IWR ' 'dflt' > 'latn' <'AZE ' 'CAT ' 'CRT ' 'KAZ ' 'MOL ' 'NLD ' 'ROM ' 'TAT ' 'TRK ' 'dflt' > ) ]
Lookup: 3 0 0 "'aalt' Access All Alternates lookup 1" { "'aalt' Access All Alternates lookup 1 subtable"  } ['aalt' ('DFLT' <'dflt' > 'cyrl' <'BGR ' 'SRB ' 'dflt' > 'hebr' <'IWR ' 'dflt' > 'latn' <'AZE ' 'CAT ' 'CRT ' 'KAZ ' 'MOL ' 'NLD ' 'ROM ' 'TAT ' 'TRK ' 'dflt' > ) ]

StartChar: A
Encoding: 65 65 0
Width: 1200
GlyphClass: 2
Flags: W
AnchorPoint: "Anchor-36" 579 1452 basechar 0
AnchorPoint: "Anchor-35" 761 1450 basechar 0
AnchorPoint: "Anchor-34" 897 0 basechar 0
AnchorPoint: "Anchor-33" 501 0 basechar 0
LayerCount: 2
Fore
SplineSet
583 1450 m 1,0,-1
 935 1450 l 1,1,-1
 1021 0 l 1,2,-1
 769 0 l 1,3,-1
 745 342 l 1,4,-1
 363 342 l 1,5,-1
 223 0 l 1,6,-1
 -17 0 l 1,7,-1
 583 1450 l 1,0,-1
747 550 m 1,8,-1
 729 1204 l 1,9,-1
 705 1204 l 1,10,-1
 457 550 l 1,11,-1
 747 550 l 1,8,-1
EndSplineSet
Substitution2: "Single Substitution lookup 63 subtable" ordfeminine
Substitution2: "'fwid' Full Widths lookup 32 subtable" uniFF21
Substitution2: "'c2sc' Capitals to Small Capitals lookup 26 subtable" a.sc
AlternateSubs2: "'aalt' Access All Alternates lookup 1 subtable" ordfeminine a.sc uniFF21
EndChar

StartChar: B
Encoding: 66 66 1
Width: 1200
GlyphClass: 2
Flags: W
AnchorPoint: "Anchor-35" 752 1448 basechar 0
AnchorPoint: "Anchor-33" 501 0 basechar 0
LayerCount: 2
Fore
SplineSet
277 1450 m 1,0,-1
 669 1450 l 2,1,2
 853 1450 853 1450 960 1371.5 c 128,-1,3
 1067 1293 1067 1293 1067 1140 c 0,4,5
 1067 1103 1067 1103 1059 1055 c 0,6,7
 1044 968 1044 968 1014 911 c 128,-1,8
 984 854 984 854 938 819.5 c 128,-1,9
 892 785 892 785 823 760 c 1,10,11
 928 745 928 745 998.5 675 c 128,-1,12
 1069 605 1069 605 1069 473 c 0,13,14
 1069 430 1069 430 1060 379 c 0,15,16
 1024 174 1024 174 867.5 87 c 128,-1,17
 711 0 711 0 485 0 c 2,18,-1
 21 0 l 1,19,-1
 277 1450 l 1,0,-1
475 200 m 2,20,21
 593 200 593 200 681 248 c 128,-1,22
 769 296 769 296 793 433 c 0,23,24
 798 458 798 458 798 488 c 0,25,26
 798 576 798 576 741.5 609 c 128,-1,27
 685 642 685 642 590 642 c 2,28,-1
 388 642 l 1,29,-1
 310 200 l 1,30,-1
 475 200 l 2,20,21
531 838 m 2,31,32
 768 838 768 838 809 1063 c 0,33,34
 813 1086 813 1086 813 1110 c 0,35,36
 813 1181 813 1181 769 1212.5 c 128,-1,37
 725 1244 725 1244 642 1244 c 2,38,-1
 492 1244 l 1,39,-1
 421 838 l 1,40,-1
 531 838 l 2,31,32
EndSplineSet
Substitution2: "'fwid' Full Widths lookup 32 subtable" uniFF22
Substitution2: "'c2sc' Capitals to Small Capitals lookup 26 subtable" b.sc
AlternateSubs2: "'aalt' Access All Alternates lookup 1 subtable" b.sc uniFF22
EndChar

StartChar: C
Encoding: 67 67 2
Width: 1200
GlyphClass: 2
Flags: W
AnchorPoint: "Anchor-35" 759 1450 basechar 0
AnchorPoint: "Anchor-33" 519 -10 basechar 0
LayerCount: 2
Fore
SplineSet
210.5 105.5 m 128,-1,1
 98 247 98 247 98 494 c 0,2,3
 98 608 98 608 120 731 c 0,4,5
 160 955 160 955 248.5 1120.5 c 128,-1,6
 337 1286 337 1286 478.5 1378 c 128,-1,7
 620 1470 620 1470 811 1470 c 0,8,9
 953 1470 953 1470 1061.5 1416.5 c 128,-1,10
 1170 1363 1170 1363 1234 1255 c 1,11,-1
 1075 1118 l 1,12,13
 1023 1187 1023 1187 963.5 1212.5 c 128,-1,14
 904 1238 904 1238 823 1238 c 0,15,16
 647 1238 647 1238 537 1088.5 c 128,-1,17
 427 939 427 939 384 697 c 0,18,19
 364 585 364 585 364 494 c 0,20,21
 364 194 364 194 604 194 c 0,22,23
 692 194 692 194 776.5 227 c 128,-1,24
 861 260 861 260 924 329 c 1,25,-1
 1039 169 l 1,26,27
 944 64 944 64 824.5 14 c 128,-1,28
 705 -36 705 -36 548 -36 c 0,29,0
 323 -36 323 -36 210.5 105.5 c 128,-1,1
EndSplineSet
Substitution2: "'fwid' Full Widths lookup 32 subtable" uniFF23
Substitution2: "'c2sc' Capitals to Small Capitals lookup 26 subtable" c.sc
AlternateSubs2: "'aalt' Access All Alternates lookup 1 subtable" c.sc uniFF23
EndChar

StartChar: D
Encoding: 68 68 3
Width: 1200
GlyphClass: 2
Flags: W
AnchorPoint: "Anchor-37" 626 700 basechar 0
AnchorPoint: "Anchor-35" 759 1450 basechar 0
AnchorPoint: "Anchor-33" 503 0 basechar 0
LayerCount: 2
Fore
SplineSet
291 1450 m 1,0,-1
 597 1450 l 2,1,2
 784 1450 784 1450 906 1401.5 c 128,-1,3
 1028 1353 1028 1353 1090.5 1245.5 c 128,-1,4
 1153 1138 1153 1138 1153 963 c 0,5,6
 1153 855 1153 855 1129 717 c 0,7,8
 1083 457 1083 457 991 301 c 128,-1,9
 899 145 899 145 742 72.5 c 128,-1,10
 585 0 585 0 341 0 c 2,11,-1
 35 0 l 1,12,-1
 291 1450 l 1,0,-1
392 218 m 2,13,14
 586 218 586 218 696.5 351.5 c 128,-1,15
 807 485 807 485 854 751 c 0,16,17
 873 863 873 863 873 943 c 0,18,19
 873 1086 873 1086 809.5 1159 c 128,-1,20
 746 1232 746 1232 604 1232 c 2,21,-1
 510 1232 l 1,22,-1
 331 218 l 1,23,-1
 392 218 l 2,13,14
EndSplineSet
Substitution2: "'fwid' Full Widths lookup 32 subtable" uniFF24
Substitution2: "'c2sc' Capitals to Small Capitals lookup 26 subtable" d.sc
AlternateSubs2: "'aalt' Access All Alternates lookup 1 subtable" d.sc uniFF24
EndChar

StartChar: E
Encoding: 69 69 4
Width: 1200
GlyphClass: 2
Flags: W
AnchorPoint: "Anchor-36" 301 1450 basechar 0
AnchorPoint: "Anchor-35" 759 1450 basechar 0
AnchorPoint: "Anchor-34" 835 0 basechar 0
AnchorPoint: "Anchor-33" 503 0 basechar 0
LayerCount: 2
Fore
SplineSet
295 1450 m 1,0,-1
 1205 1450 l 1,1,-1
 1166 1230 l 1,2,-1
 516 1230 l 1,3,-1
 451 860 l 1,4,-1
 1069 860 l 1,5,-1
 1030 640 l 1,6,-1
 412 640 l 1,7,-1
 337 218 l 1,8,-1
 1015 218 l 1,9,-1
 977 0 l 1,10,-1
 39 0 l 1,11,-1
 295 1450 l 1,0,-1
EndSplineSet
Substitution2: "'fwid' Full Widths lookup 32 subtable" uniFF25
Substitution2: "'c2sc' Capitals to Small Capitals lookup 26 subtable" e.sc
AlternateSubs2: "'aalt' Access All Alternates lookup 1 subtable" e.sc uniFF25
EndChar

StartChar: F
Encoding: 70 70 5
Width: 1200
GlyphClass: 2
Flags: W
AnchorPoint: "Anchor-35" 755 1450 basechar 0
AnchorPoint: "Anchor-33" 499 0 basechar 0
LayerCount: 2
Fore
SplineSet
297 1450 m 1,0,-1
 1219 1450 l 1,1,-1
 1180 1230 l 1,2,-1
 516 1230 l 1,3,-1
 443 814 l 1,4,-1
 1065 814 l 1,5,-1
 1026 598 l 1,6,-1
 404 598 l 1,7,-1
 299 0 l 1,8,-1
 41 0 l 1,9,-1
 297 1450 l 1,0,-1
EndSplineSet
Substitution2: "'fwid' Full Widths lookup 32 subtable" uniFF26
Substitution2: "'c2sc' Capitals to Small Capitals lookup 26 subtable" f.sc
AlternateSubs2: "'aalt' Access All Alternates lookup 1 subtable" f.sc uniFF26
EndChar

StartChar: G
Encoding: 71 71 6
Width: 1200
GlyphClass: 2
Flags: W
AnchorPoint: "Anchor-35" 753 1474 basechar 0
AnchorPoint: "Anchor-33" 503 0 basechar 0
LayerCount: 2
Fore
SplineSet
218.5 114.5 m 128,-1,1
 116 251 116 251 116 491 c 0,2,3
 116 610 116 610 140 745 c 0,4,5
 200 1086 200 1086 361.5 1280 c 128,-1,6
 523 1474 523 1474 785 1474 c 0,7,8
 940 1474 940 1474 1048.5 1405 c 128,-1,9
 1157 1336 1157 1336 1198 1214 c 1,10,-1
 1011 1100 l 1,11,12
 974 1188 974 1188 918.5 1217 c 128,-1,13
 863 1246 863 1246 796 1246 c 0,14,15
 619 1246 619 1246 525.5 1101.5 c 128,-1,16
 432 957 432 957 389 716 c 0,17,18
 364 573 364 573 364 470 c 0,19,20
 364 338 364 338 410 263 c 128,-1,21
 456 188 456 188 563 188 c 0,22,23
 699 188 699 188 788 298 c 128,-1,24
 877 408 877 408 908 585 c 1,25,-1
 617 576 l 1,26,-1
 651 774 l 1,27,-1
 1153 774 l 1,28,-1
 1017 0 l 1,29,-1
 815 0 l 1,30,-1
 839 120 l 1,31,-1
 828 112 l 1,32,33
 786 47 786 47 709.5 12.5 c 128,-1,34
 633 -22 633 -22 528 -22 c 0,35,0
 321 -22 321 -22 218.5 114.5 c 128,-1,1
EndSplineSet
Substitution2: "'fwid' Full Widths lookup 32 subtable" uniFF27
Substitution2: "'c2sc' Capitals to Small Capitals lookup 26 subtable" g.sc
AlternateSubs2: "'aalt' Access All Alternates lookup 1 subtable" g.sc uniFF27
EndChar

StartChar: H
Encoding: 72 72 7
Width: 1200
GlyphClass: 2
Flags: W
AnchorPoint: "Anchor-39" 957 0 basechar 0
AnchorPoint: "Anchor-37" 631 726 basechar 0
AnchorPoint: "Anchor-36" 249 1450 basechar 0
AnchorPoint: "Anchor-35" 759 1450 basechar 0
AnchorPoint: "Anchor-33" 341 0 basechar 0
LayerCount: 2
Fore
SplineSet
307 1450 m 1,0,-1
 563 1450 l 1,1,-1
 460 870 l 1,2,-1
 854 870 l 1,3,-1
 957 1450 l 1,4,-1
 1213 1450 l 1,5,-1
 957 0 l 1,6,-1
 701 0 l 1,7,-1
 815 644 l 1,8,-1
 421 644 l 1,9,-1
 307 0 l 1,10,-1
 51 0 l 1,11,-1
 307 1450 l 1,0,-1
EndSplineSet
Substitution2: "'fwid' Full Widths lookup 32 subtable" uniFF28
Substitution2: "'c2sc' Capitals to Small Capitals lookup 26 subtable" h.sc
AlternateSubs2: "'aalt' Access All Alternates lookup 1 subtable" h.sc uniFF28
EndChar

StartChar: I
Encoding: 73 73 8
Width: 1200
GlyphClass: 2
Flags: W
AnchorPoint: "Anchor-36" 383 1450 basechar 0
AnchorPoint: "Anchor-35" 759 1452 basechar 0
AnchorPoint: "Anchor-34" 503 0 basechar 0
AnchorPoint: "Anchor-33" 503 0 basechar 0
LayerCount: 2
Fore
SplineSet
173 206 m 1,0,-1
 413 206 l 1,1,-1
 596 1244 l 1,2,-1
 376 1244 l 1,3,-1
 413 1450 l 1,4,-1
 1103 1450 l 1,5,-1
 1066 1244 l 1,6,-1
 852 1244 l 1,7,-1
 669 206 l 1,8,-1
 903 206 l 1,9,-1
 867 0 l 1,10,-1
 137 0 l 1,11,-1
 173 206 l 1,0,-1
EndSplineSet
Substitution2: "'fwid' Full Widths lookup 32 subtable" uniFF29
Substitution2: "'c2sc' Capitals to Small Capitals lookup 26 subtable" i.sc
AlternateSubs2: "'aalt' Access All Alternates lookup 1 subtable" i.sc uniFF29
EndChar

StartChar: J
Encoding: 74 74 9
Width: 1200
GlyphClass: 2
Flags: W
AnchorPoint: "Anchor-35" 783 1450 basechar 0
AnchorPoint: "Anchor-33" 500 -19 basechar 0
LayerCount: 2
Fore
SplineSet
284.5 25.5 m 128,-1,1
 190 71 190 71 138.5 156 c 128,-1,2
 87 241 87 241 87 356 c 0,3,4
 87 402 87 402 96 451 c 1,5,-1
 337 433 l 1,6,7
 332 401 332 401 332 380 c 0,8,9
 332 294 332 294 381 244 c 128,-1,10
 430 194 430 194 512 194 c 0,11,12
 630 194 630 194 703.5 273.5 c 128,-1,13
 777 353 777 353 799 477 c 2,14,-1
 933 1238 l 1,15,-1
 365 1238 l 1,16,-1
 403 1450 l 1,17,-1
 1219 1450 l 1,18,-1
 1044 457 l 2,19,20
 1002 223 1002 223 863 101.5 c 128,-1,21
 724 -20 724 -20 505 -20 c 0,22,0
 379 -20 379 -20 284.5 25.5 c 128,-1,1
EndSplineSet
Substitution2: "'fwid' Full Widths lookup 32 subtable" uniFF2A
Substitution2: "'c2sc' Capitals to Small Capitals lookup 26 subtable" j.sc
AlternateSubs2: "'aalt' Access All Alternates lookup 1 subtable" j.sc uniFF2A
EndChar

StartChar: K
Encoding: 75 75 10
Width: 1200
GlyphClass: 2
Flags: W
AnchorPoint: "Anchor-35" 759 1450 basechar 0
AnchorPoint: "Anchor-33" 503 0 basechar 0
LayerCount: 2
Fore
SplineSet
467 736 m 1,0,-1
 337 0 l 1,1,-1
 85 0 l 1,2,-1
 341 1452 l 1,3,-1
 593 1452 l 1,4,-1
 486 843 l 1,5,-1
 998 1452 l 1,6,-1
 1284 1452 l 1,7,-1
 722 798 l 1,8,-1
 1072 0 l 1,9,-1
 778 0 l 1,10,-1
 467 736 l 1,0,-1
EndSplineSet
Substitution2: "'fwid' Full Widths lookup 32 subtable" uniFF2B
Substitution2: "'c2sc' Capitals to Small Capitals lookup 26 subtable" k.sc
AlternateSubs2: "'aalt' Access All Alternates lookup 1 subtable" k.sc uniFF2B
EndChar

StartChar: L
Encoding: 76 76 11
Width: 1200
GlyphClass: 2
Flags: W
AnchorPoint: "Anchor-38" 1237 1452 basechar 0
AnchorPoint: "Anchor-37" 631 726 basechar 0
AnchorPoint: "Anchor-35" 759 1452 basechar 0
AnchorPoint: "Anchor-33" 509 -20 basechar 0
LayerCount: 2
Fore
SplineSet
313 1452 m 1,0,-1
 573 1452 l 1,1,-1
 356 222 l 1,2,-1
 1028 222 l 1,3,-1
 989 0 l 1,4,-1
 57 0 l 1,5,-1
 313 1452 l 1,0,-1
EndSplineSet
Substitution2: "'fwid' Full Widths lookup 32 subtable" uniFF2C
Substitution2: "'c2sc' Capitals to Small Capitals lookup 26 subtable" l.sc
AlternateSubs2: "'aalt' Access All Alternates lookup 1 subtable" l.sc uniFF2C
EndChar

StartChar: M
Encoding: 77 77 12
Width: 1200
GlyphClass: 2
Flags: W
AnchorPoint: "Anchor-39" 985 0 basechar 0
AnchorPoint: "Anchor-35" 759 1450 basechar 0
AnchorPoint: "Anchor-33" 503 0 basechar 0
LayerCount: 2
Fore
SplineSet
277 1450 m 1,0,-1
 599 1450 l 1,1,-1
 652 860 l 1,2,-1
 915 1450 l 1,3,-1
 1241 1450 l 1,4,-1
 985 0 l 1,5,-1
 741 0 l 1,6,-1
 920 1003 l 1,7,-1
 908 984 l 1,8,-1
 904 973 l 1,9,-1
 634 389 l 1,10,-1
 514 389 l 1,11,-1
 452 973 l 1,12,-1
 451 984 l 1,13,-1
 443 1003 l 1,14,-1
 263 0 l 1,15,-1
 21 0 l 1,16,-1
 277 1450 l 1,0,-1
EndSplineSet
Substitution2: "'fwid' Full Widths lookup 32 subtable" uniFF2D
Substitution2: "'c2sc' Capitals to Small Capitals lookup 26 subtable" m.sc
AlternateSubs2: "'aalt' Access All Alternates lookup 1 subtable" m.sc uniFF2D
EndChar

StartChar: N
Encoding: 78 78 13
Width: 1200
GlyphClass: 2
Flags: W
AnchorPoint: "Anchor-35" 759 1450 basechar 0
AnchorPoint: "Anchor-33" 503 0 basechar 0
LayerCount: 2
Fore
SplineSet
299 1450 m 1,0,-1
 621 1450 l 1,1,-1
 756 618 l 1,2,-1
 785 442 l 1,3,-1
 965 1450 l 1,4,-1
 1215 1450 l 1,5,-1
 959 0 l 1,6,-1
 657 0 l 1,7,-1
 468 990 l 1,8,-1
 291 0 l 1,9,-1
 43 0 l 1,10,-1
 299 1450 l 1,0,-1
EndSplineSet
Substitution2: "'fwid' Full Widths lookup 32 subtable" uniFF2E
Substitution2: "'c2sc' Capitals to Small Capitals lookup 26 subtable" n.sc
AlternateSubs2: "'aalt' Access All Alternates lookup 1 subtable" n.sc uniFF2E
EndChar

StartChar: O
Encoding: 79 79 14
Width: 1200
GlyphClass: 2
Flags: W
AnchorPoint: "Anchor-38" 1030 1378 basechar 0
AnchorPoint: "Anchor-37" 631 726 basechar 0
AnchorPoint: "Anchor-36" 249 1450 basechar 0
AnchorPoint: "Anchor-35" 759 1450 basechar 0
AnchorPoint: "Anchor-34" 497 -10 basechar 0
AnchorPoint: "Anchor-33" 500 -16 basechar 0
LayerCount: 2
Fore
SplineSet
181 113.5 m 128,-1,1
 73 257 73 257 73 506 c 0,2,3
 73 623 73 623 98 767 c 0,4,5
 136 983 136 983 227.5 1141.5 c 128,-1,6
 319 1300 319 1300 452.5 1385 c 128,-1,7
 586 1470 586 1470 747 1470 c 0,8,9
 888 1470 888 1470 988 1409 c 128,-1,10
 1088 1348 1088 1348 1140.5 1232 c 128,-1,11
 1193 1116 1193 1116 1193 953 c 0,12,13
 1193 847 1193 847 1173 737 c 0,14,15
 1111 385 1111 385 946.5 177.5 c 128,-1,16
 782 -30 782 -30 513 -30 c 0,17,0
 289 -30 289 -30 181 113.5 c 128,-1,1
329 494 m 0,19,20
 329 356 329 356 374.5 277 c 128,-1,21
 420 198 420 198 521 198 c 0,22,23
 672 198 672 198 771 353 c 128,-1,24
 870 508 870 508 914 755 c 0,25,26
 932 856 932 856 932 944 c 0,27,28
 932 1085 932 1085 884.5 1166.5 c 128,-1,29
 837 1248 837 1248 740 1248 c 0,30,31
 647 1248 647 1248 568.5 1181 c 128,-1,32
 490 1114 490 1114 434.5 994 c 128,-1,33
 379 874 379 874 351 717 c 0,34,18
 329 593 329 593 329 494 c 0,19,20
EndSplineSet
Substitution2: "Single Substitution lookup 63 subtable" ordmasculine
Substitution2: "'fwid' Full Widths lookup 32 subtable" uniFF2F
Substitution2: "'c2sc' Capitals to Small Capitals lookup 26 subtable" o.sc
AlternateSubs2: "'aalt' Access All Alternates lookup 1 subtable" ordmasculine o.sc uniFF2F
EndChar

StartChar: P
Encoding: 80 80 15
Width: 1200
GlyphClass: 2
Flags: W
AnchorPoint: "Anchor-36" 295 1450 basechar 0
AnchorPoint: "Anchor-35" 759 1450 basechar 0
AnchorPoint: "Anchor-33" 503 0 basechar 0
LayerCount: 2
Fore
SplineSet
287 1450 m 1,0,-1
 751 1450 l 2,1,2
 949 1450 949 1450 1068.5 1373 c 128,-1,3
 1188 1296 1188 1296 1188 1117 c 0,4,5
 1188 1067 1188 1067 1178 1013 c 0,6,7
 1139 791 1139 791 986.5 692.5 c 128,-1,8
 834 594 834 594 623 594 c 2,9,-1
 396 594 l 1,10,-1
 291 0 l 1,11,-1
 31 0 l 1,12,-1
 287 1450 l 1,0,-1
568 806 m 2,13,14
 666 806 666 806 732 821.5 c 128,-1,15
 798 837 798 837 846.5 890 c 128,-1,16
 895 943 895 943 914 1049 c 0,17,18
 919 1082 919 1082 919 1102 c 0,19,20
 919 1187 919 1187 863.5 1216.5 c 128,-1,21
 808 1246 808 1246 708 1246 c 2,22,-1
 511 1246 l 1,23,-1
 433 806 l 1,24,-1
 568 806 l 2,13,14
EndSplineSet
Substitution2: "'fwid' Full Widths lookup 32 subtable" uniFF30
Substitution2: "'c2sc' Capitals to Small Capitals lookup 26 subtable" p.sc
AlternateSubs2: "'aalt' Access All Alternates lookup 1 subtable" p.sc uniFF30
EndChar

StartChar: Q
Encoding: 81 81 16
Width: 1200
GlyphClass: 2
Flags: W
AnchorPoint: "Anchor-38" 1001 1396 basechar 0
AnchorPoint: "Anchor-37" 631 726 basechar 0
AnchorPoint: "Anchor-36" 249 1450 basechar 0
AnchorPoint: "Anchor-35" 762 1456 basechar 0
AnchorPoint: "Anchor-34" 502 -8 basechar 0
AnchorPoint: "Anchor-33" 447 -318 basechar 0
LayerCount: 2
Fore
SplineSet
479 -328 m 128,-1,1
 408 -304 408 -304 379.5 -259.5 c 128,-1,2
 351 -215 351 -215 351 -148 c 0,3,4
 351 -96 351 -96 370 -6 c 1,5,6
 226 35 226 35 157 161 c 128,-1,7
 88 287 88 287 88 483 c 0,8,9
 88 605 88 605 114 753 c 0,10,11
 153 975 153 975 242 1136.5 c 128,-1,12
 331 1298 331 1298 461 1384 c 128,-1,13
 591 1470 591 1470 749 1470 c 0,14,15
 958 1470 958 1470 1067 1335.5 c 128,-1,16
 1176 1201 1176 1201 1176 956 c 0,17,18
 1176 844 1176 844 1154 719 c 0,19,20
 1098 400 1098 400 969.5 210 c 128,-1,21
 841 20 841 20 616 -16 c 1,22,23
 609 -49 609 -49 609 -65 c 0,24,25
 609 -99 609 -99 639 -114.5 c 128,-1,26
 669 -130 669 -130 751 -130 c 2,27,-1
 1044 -130 l 1,28,-1
 995 -352 l 1,29,-1
 673 -352 l 2,30,0
 550 -352 550 -352 479 -328 c 128,-1,1
339 446 m 0,32,33
 339 321 339 321 381 254.5 c 128,-1,34
 423 188 423 188 519 188 c 0,35,36
 675 188 675 188 764 336.5 c 128,-1,37
 853 485 853 485 900 753 c 0,38,39
 921 874 921 874 921 963 c 0,40,41
 921 1098 921 1098 876.5 1175 c 128,-1,42
 832 1252 832 1252 737 1252 c 0,43,44
 644 1252 644 1252 570 1182 c 128,-1,45
 496 1112 496 1112 445.5 992 c 128,-1,46
 395 872 395 872 368 719 c 0,47,31
 339 555 339 555 339 446 c 0,32,33
EndSplineSet
Substitution2: "'fwid' Full Widths lookup 32 subtable" uniFF31
Substitution2: "'c2sc' Capitals to Small Capitals lookup 26 subtable" q.sc
AlternateSubs2: "'aalt' Access All Alternates lookup 1 subtable" q.sc uniFF31
EndChar

StartChar: R
Encoding: 82 82 17
Width: 1200
GlyphClass: 2
Flags: W
AnchorPoint: "Anchor-35" 759 1450 basechar 0
AnchorPoint: "Anchor-33" 503 0 basechar 0
LayerCount: 2
Fore
SplineSet
297 1450 m 1,0,-1
 761 1450 l 2,1,2
 881 1450 881 1450 978 1407 c 128,-1,3
 1075 1364 1075 1364 1131.5 1282 c 128,-1,4
 1188 1200 1188 1200 1188 1088 c 0,5,6
 1188 1051 1188 1051 1180 1005 c 0,7,8
 1155 863 1155 863 1067 766.5 c 128,-1,9
 979 670 979 670 844 626 c 1,10,-1
 1046 -4 l 1,11,-1
 781 -4 l 1,12,-1
 597 592 l 1,13,-1
 403 592 l 1,14,-1
 299 0 l 1,15,-1
 41 0 l 1,16,-1
 297 1450 l 1,0,-1
579 812 m 2,17,18
 725 812 725 812 820.5 868 c 128,-1,19
 916 924 916 924 937 1041 c 0,20,21
 941 1067 941 1067 941 1079 c 0,22,23
 941 1158 941 1158 878.5 1197 c 128,-1,24
 816 1236 816 1236 711 1236 c 2,25,-1
 517 1236 l 1,26,-1
 442 812 l 1,27,-1
 579 812 l 2,17,18
EndSplineSet
Substitution2: "'fwid' Full Widths lookup 32 subtable" uniFF32
Substitution2: "'c2sc' Capitals to Small Capitals lookup 26 subtable" r.sc
AlternateSubs2: "'aalt' Access All Alternates lookup 1 subtable" r.sc uniFF32
EndChar

StartChar: S
Encoding: 83 83 18
Width: 1200
GlyphClass: 2
Flags: W
AnchorPoint: "Anchor-35" 760 1458 basechar 0
AnchorPoint: "Anchor-33" 503 2 basechar 0
LayerCount: 2
Fore
SplineSet
513 202 m 0,1,2
 636 202 636 202 722 259 c 128,-1,3
 808 316 808 316 828 423 c 0,4,5
 831 441 831 441 831 456 c 0,6,7
 831 500 831 500 807 529 c 128,-1,8
 783 558 783 558 745 576.5 c 128,-1,9
 707 595 707 595 637 620 c 0,10,11
 570 645 570 645 515 669 c 0,12,13
 371 724 371 724 288 804.5 c 128,-1,14
 205 885 205 885 205 1010 c 0,15,16
 205 1037 205 1037 212 1081 c 0,17,18
 233 1201 233 1201 311.5 1289 c 128,-1,19
 390 1377 390 1377 509.5 1423.5 c 128,-1,20
 629 1470 629 1470 771 1470 c 0,21,22
 876 1470 876 1470 954.5 1444 c 128,-1,23
 1033 1418 1033 1418 1093.5 1370.5 c 128,-1,24
 1154 1323 1154 1323 1211 1250 c 1,25,-1
 1033 1116 l 1,26,27
 973 1187 973 1187 907 1222.5 c 128,-1,28
 841 1258 841 1258 752 1258 c 0,29,30
 682 1258 682 1258 618 1235 c 128,-1,31
 554 1212 554 1212 509.5 1166 c 128,-1,32
 465 1120 465 1120 453 1055 c 0,33,34
 450 1040 450 1040 450 1027 c 0,35,36
 450 975 450 975 485 938.5 c 128,-1,37
 520 902 520 902 573 877.5 c 128,-1,38
 626 853 626 853 718 820 c 0,39,40
 838 776 838 776 910.5 739 c 128,-1,41
 983 702 983 702 1035 638 c 128,-1,42
 1087 574 1087 574 1087 476 c 0,43,44
 1087 443 1087 443 1081 407 c 0,45,46
 1058 277 1058 277 979 181 c 128,-1,47
 900 85 900 85 778.5 33.5 c 128,-1,48
 657 -18 657 -18 509 -18 c 0,49,50
 340 -18 340 -18 226 57.5 c 128,-1,51
 112 133 112 133 27 259 c 1,52,-1
 211 394 l 1,53,0
 357 202 357 202 513 202 c 0,1,2
EndSplineSet
Substitution2: "'fwid' Full Widths lookup 32 subtable" uniFF33
Substitution2: "'c2sc' Capitals to Small Capitals lookup 26 subtable" s.sc
AlternateSubs2: "'aalt' Access All Alternates lookup 1 subtable" s.sc uniFF33
EndChar

StartChar: T
Encoding: 84 84 19
Width: 1200
GlyphClass: 2
Flags: W
AnchorPoint: "Anchor-37" 626 700 basechar 0
AnchorPoint: "Anchor-36" 243 1450 basechar 0
AnchorPoint: "Anchor-35" 759 1450 basechar 0
AnchorPoint: "Anchor-33" 503 0 basechar 0
LayerCount: 2
Fore
SplineSet
590 1222 m 1,0,-1
 202 1222 l 1,1,-1
 243 1450 l 1,2,-1
 1275 1450 l 1,3,-1
 1234 1222 l 1,4,-1
 848 1222 l 1,5,-1
 633 0 l 1,6,-1
 375 0 l 1,7,-1
 590 1222 l 1,0,-1
EndSplineSet
Substitution2: "'fwid' Full Widths lookup 32 subtable" uniFF34
Substitution2: "'c2sc' Capitals to Small Capitals lookup 26 subtable" t.sc
AlternateSubs2: "'aalt' Access All Alternates lookup 1 subtable" t.sc uniFF34
EndChar

StartChar: U
Encoding: 85 85 20
Width: 1200
GlyphClass: 2
Flags: W
AnchorPoint: "Anchor-38" 1247 1452 basechar 0
AnchorPoint: "Anchor-35" 759 1454 basechar 0
AnchorPoint: "Anchor-34" 575 20 basechar 0
AnchorPoint: "Anchor-33" 503 0 basechar 0
LayerCount: 2
Fore
SplineSet
197 74 m 128,-1,1
 98 170 98 170 98 370 c 0,2,3
 98 469 98 469 121 599 c 2,4,-1
 271 1452 l 1,5,-1
 525 1452 l 1,6,-1
 373 591 l 2,7,8
 351 464 351 464 351 390 c 0,9,10
 351 286 351 286 393 242 c 128,-1,11
 435 198 435 198 531 198 c 0,12,13
 621 198 621 198 680 240 c 128,-1,14
 739 282 739 282 777.5 371 c 128,-1,15
 816 460 816 460 842 609 c 2,16,-1
 991 1452 l 1,17,-1
 1247 1452 l 1,18,-1
 1094 581 l 2,19,20
 1055 362 1055 362 992.5 233 c 128,-1,21
 930 104 930 104 816.5 41 c 128,-1,22
 703 -22 703 -22 514 -22 c 0,23,0
 296 -22 296 -22 197 74 c 128,-1,1
EndSplineSet
Substitution2: "'fwid' Full Widths lookup 32 subtable" uniFF35
Substitution2: "'c2sc' Capitals to Small Capitals lookup 26 subtable" u.sc
AlternateSubs2: "'aalt' Access All Alternates lookup 1 subtable" u.sc uniFF35
EndChar

StartChar: V
Encoding: 86 86 21
Width: 1200
GlyphClass: 2
Flags: W
AnchorPoint: "Anchor-35" 759 1450 basechar 0
AnchorPoint: "Anchor-33" 503 0 basechar 0
LayerCount: 2
Fore
SplineSet
247 1450 m 1,0,-1
 505 1450 l 1,1,-1
 565 358 l 1,2,-1
 1009 1450 l 1,3,-1
 1273 1450 l 1,4,-1
 633 0 l 1,5,-1
 373 0 l 1,6,-1
 247 1450 l 1,0,-1
EndSplineSet
Substitution2: "'fwid' Full Widths lookup 32 subtable" uniFF36
Substitution2: "'c2sc' Capitals to Small Capitals lookup 26 subtable" v.sc
AlternateSubs2: "'aalt' Access All Alternates lookup 1 subtable" v.sc uniFF36
EndChar

StartChar: W
Encoding: 87 87 22
Width: 1200
GlyphClass: 2
Flags: W
AnchorPoint: "Anchor-35" 759 1450 basechar 0
AnchorPoint: "Anchor-33" 503 0 basechar 0
LayerCount: 2
Fore
SplineSet
233 1450 m 1,0,-1
 460 1450 l 1,1,-1
 349 448 l 1,2,-1
 387 452 l 1,3,-1
 623 1098 l 1,4,-1
 769 1098 l 1,5,-1
 777 452 l 1,6,-1
 813 448 l 1,7,-1
 1052 1450 l 1,8,-1
 1281 1450 l 1,9,-1
 898 0 l 1,10,-1
 608 0 l 1,11,-1
 621 552 l 1,12,-1
 618 584 l 1,13,-1
 595 584 l 1,14,-1
 583 552 l 1,15,-1
 388 0 l 1,16,-1
 102 0 l 1,17,-1
 233 1450 l 1,0,-1
EndSplineSet
Substitution2: "'fwid' Full Widths lookup 32 subtable" uniFF37
Substitution2: "'c2sc' Capitals to Small Capitals lookup 26 subtable" w.sc
AlternateSubs2: "'aalt' Access All Alternates lookup 1 subtable" w.sc uniFF37
EndChar

StartChar: X
Encoding: 88 88 23
Width: 1200
GlyphClass: 2
Flags: W
AnchorPoint: "Anchor-39" 879 -70 basechar 0
AnchorPoint: "Anchor-35" 759 1450 basechar 0
AnchorPoint: "Anchor-33" 503 0 basechar 0
LayerCount: 2
Fore
SplineSet
463 758 m 1,0,-1
 277 1450 l 1,1,-1
 544 1450 l 1,2,-1
 663 980 l 1,3,-1
 964 1450 l 1,4,-1
 1229 1450 l 1,5,-1
 805 770 l 1,6,-1
 1006 0 l 1,7,-1
 738 0 l 1,8,-1
 602 546 l 1,9,-1
 272 0 l 1,10,-1
 -4 0 l 1,11,-1
 463 758 l 1,0,-1
EndSplineSet
Substitution2: "'fwid' Full Widths lookup 32 subtable" uniFF38
Substitution2: "'c2sc' Capitals to Small Capitals lookup 26 subtable" x.sc
AlternateSubs2: "'aalt' Access All Alternates lookup 1 subtable" x.sc uniFF38
EndChar

StartChar: Y
Encoding: 89 89 24
Width: 1200
GlyphClass: 2
Flags: W
AnchorPoint: "Anchor-36" 257 1450 basechar 0
AnchorPoint: "Anchor-35" 759 1450 basechar 0
AnchorPoint: "Anchor-33" 503 0 basechar 0
LayerCount: 2
Fore
SplineSet
466 558 m 1,0,-1
 249 1450 l 1,1,-1
 526 1450 l 1,2,-1
 650 836 l 1,3,-1
 992 1450 l 1,4,-1
 1273 1450 l 1,5,-1
 744 558 l 1,6,-1
 643 0 l 1,7,-1
 365 0 l 1,8,-1
 466 558 l 1,0,-1
EndSplineSet
Substitution2: "'fwid' Full Widths lookup 32 subtable" uniFF39
Substitution2: "'c2sc' Capitals to Small Capitals lookup 26 subtable" y.sc
AlternateSubs2: "'aalt' Access All Alternates lookup 1 subtable" y.sc uniFF39
EndChar

StartChar: Z
Encoding: 90 90 25
Width: 1200
GlyphClass: 2
Flags: W
AnchorPoint: "Anchor-37" 629 714 basechar 0
AnchorPoint: "Anchor-35" 759 1450 basechar 0
AnchorPoint: "Anchor-33" 503 0 basechar 0
LayerCount: 2
Fore
SplineSet
44 224 m 1,0,-1
 874 1212 l 1,1,-1
 251 1212 l 1,2,-1
 293 1450 l 1,3,-1
 1233 1450 l 1,4,-1
 1193 1208 l 1,5,-1
 374 228 l 1,6,-1
 1047 228 l 1,7,-1
 1007 0 l 1,8,-1
 7 0 l 1,9,-1
 44 224 l 1,0,-1
EndSplineSet
Substitution2: "'fwid' Full Widths lookup 32 subtable" uniFF3A
Substitution2: "'c2sc' Capitals to Small Capitals lookup 26 subtable" z.sc
AlternateSubs2: "'aalt' Access All Alternates lookup 1 subtable" z.sc uniFF3A
EndChar

StartChar: a
Encoding: 97 97 26
Width: 1200
GlyphClass: 2
Flags: W
AnchorPoint: "Anchor-35" 635 1114 basechar 0
AnchorPoint: "Anchor-34" 994 10 basechar 0
AnchorPoint: "Anchor-33" 461 -16 basechar 0
LayerCount: 2
Fore
SplineSet
255 37.5 m 128,-1,1
 162 91 162 91 113 190.5 c 128,-1,2
 64 290 64 290 64 425 c 0,3,4
 64 486 64 486 77 567 c 0,5,6
 106 733 106 733 187.5 857.5 c 128,-1,7
 269 982 269 982 389 1049 c 128,-1,8
 509 1116 509 1116 650 1116 c 0,9,10
 759 1116 759 1116 831 1075.5 c 128,-1,11
 903 1035 903 1035 932 963 c 1,12,-1
 943 970 l 1,13,-1
 973 1100 l 1,14,-1
 1173 1100 l 1,15,16
 1156 1039 1156 1039 1145 975.5 c 128,-1,17
 1134 912 1134 912 1132 903 c 2,18,-1
 1002 133 l 1,19,-1
 997 104 l 2,20,21
 987 48 987 48 986 0 c 1,22,-1
 791 0 l 1,23,24
 801 86 801 86 807 126 c 2,25,-1
 810 151 l 1,26,-1
 792 134 l 1,27,28
 766 98 766 98 716.5 63 c 128,-1,29
 667 28 667 28 603.5 6 c 128,-1,30
 540 -16 540 -16 476 -16 c 0,31,0
 348 -16 348 -16 255 37.5 c 128,-1,1
301 425 m 0,33,34
 301 315 301 315 344 241.5 c 128,-1,35
 387 168 387 168 486 168 c 0,36,37
 576 168 576 168 653 220 c 128,-1,38
 730 272 730 272 782.5 364 c 128,-1,39
 835 456 835 456 855 573 c 0,40,41
 864 629 864 629 864 677 c 0,42,43
 864 801 864 801 808 874.5 c 128,-1,44
 752 948 752 948 648 948 c 0,45,46
 553 948 553 948 482 882.5 c 128,-1,47
 411 817 411 817 368.5 722.5 c 128,-1,48
 326 628 326 628 311 537 c 0,49,32
 301 480 301 480 301 425 c 0,33,34
EndSplineSet
Substitution2: "Single Substitution lookup 63 subtable" ordfeminine
Substitution2: "'ss06' Style Set 6 lookup 46 subtable" a.alternate
Substitution2: "'fwid' Full Widths lookup 32 subtable" uniFF41
Substitution2: "'smcp' Lowercase to Small Capitals lookup 27 subtable" a.sc
Substitution2: "'sinf' Scientific Inferiors lookup 14 subtable" uni2090
Substitution2: "'subs' Subscript lookup 13 subtable" uni2090
AlternateSubs2: "'aalt' Access All Alternates lookup 1 subtable" uni2090 ordfeminine a.sc uniFF41 a.alternate
EndChar

StartChar: b
Encoding: 98 98 27
Width: 1200
GlyphClass: 2
Flags: W
AnchorPoint: "Anchor-37" 629 774 basechar 0
AnchorPoint: "Anchor-35" 724 1580 basechar 0
AnchorPoint: "Anchor-33" 463 0 basechar 0
LayerCount: 2
Fore
SplineSet
439.5 11.5 m 128,-1,1
 373 45 373 45 329 131 c 1,2,-1
 295 0 l 1,3,-1
 62 9 l 1,4,-1
 70 43 l 2,5,6
 96 154 96 154 114 253 c 2,7,-1
 348 1580 l 1,8,-1
 594 1580 l 1,9,-1
 478 947 l 1,10,11
 545 1032 545 1032 623.5 1071 c 128,-1,12
 702 1110 702 1110 774 1110 c 0,13,14
 940 1110 940 1110 1017.5 1001 c 128,-1,15
 1095 892 1095 892 1095 711 c 0,16,17
 1095 623 1095 623 1076 517 c 0,18,19
 1051 377 1051 377 988.5 254 c 128,-1,20
 926 131 926 131 827 54.5 c 128,-1,21
 728 -22 728 -22 602 -22 c 0,22,0
 506 -22 506 -22 439.5 11.5 c 128,-1,1
378 391 m 0,24,25
 378 290 378 290 414 224 c 128,-1,26
 450 158 450 158 532 158 c 0,27,28
 618 158 618 158 681.5 218 c 128,-1,29
 745 278 745 278 783 366 c 128,-1,30
 821 454 821 454 837 545 c 0,31,32
 853 633 853 633 853 704 c 0,33,34
 853 908 853 908 706 908 c 0,35,36
 624 908 624 908 558.5 852 c 128,-1,37
 493 796 493 796 450 704.5 c 128,-1,38
 407 613 407 613 388 507 c 0,39,23
 378 447 378 447 378 391 c 0,24,25
EndSplineSet
Substitution2: "'fwid' Full Widths lookup 32 subtable" uniFF42
Substitution2: "'smcp' Lowercase to Small Capitals lookup 27 subtable" b.sc
AlternateSubs2: "'aalt' Access All Alternates lookup 1 subtable" b.sc uniFF42
EndChar

StartChar: c
Encoding: 99 99 28
Width: 1200
GlyphClass: 2
Flags: W
AnchorPoint: "Anchor-37" 599 552 basechar 0
AnchorPoint: "Anchor-35" 713 1116 basechar 0
AnchorPoint: "Anchor-33" 547 -4 basechar 0
LayerCount: 2
Fore
SplineSet
329.5 35 m 128,-1,1
 226 88 226 88 169 189.5 c 128,-1,2
 112 291 112 291 112 432 c 0,3,4
 112 495 112 495 124 567 c 0,5,6
 153 733 153 733 240 857 c 128,-1,7
 327 981 327 981 459.5 1048.5 c 128,-1,8
 592 1116 592 1116 754 1116 c 0,9,10
 901 1116 901 1116 990 1060 c 128,-1,11
 1079 1004 1079 1004 1131 913 c 1,12,-1
 961 783 l 1,13,14
 918 844 918 844 871.5 874 c 128,-1,15
 825 904 825 904 751 904 c 0,16,17
 659 904 659 904 577.5 858.5 c 128,-1,18
 496 813 496 813 440 730 c 128,-1,19
 384 647 384 647 365 539 c 0,20,21
 358 498 358 498 358 458 c 0,22,23
 358 376 358 376 389 317 c 128,-1,24
 420 258 420 258 472.5 228 c 128,-1,25
 525 198 525 198 588 198 c 0,26,27
 663 198 663 198 742 240.5 c 128,-1,28
 821 283 821 283 881 345 c 1,29,-1
 1020 189 l 1,30,31
 929 96 929 96 820 39 c 128,-1,32
 711 -18 711 -18 570 -18 c 0,33,0
 433 -18 433 -18 329.5 35 c 128,-1,1
EndSplineSet
Substitution2: "'fwid' Full Widths lookup 32 subtable" uniFF43
Substitution2: "'smcp' Lowercase to Small Capitals lookup 27 subtable" c.sc
AlternateSubs2: "'aalt' Access All Alternates lookup 1 subtable" c.sc uniFF43
EndChar

StartChar: d
Encoding: 100 100 29
Width: 1200
GlyphClass: 2
Flags: W
AnchorPoint: "Anchor-38" 1196 1000 basechar 0
AnchorPoint: "Anchor-37" 644 784 basechar 0
AnchorPoint: "Anchor-35" 789 1582 basechar 0
AnchorPoint: "Anchor-33" 542 0 basechar 0
LayerCount: 2
Fore
SplineSet
263 41 m 128,-1,1
 187 98 187 98 150.5 196 c 128,-1,2
 114 294 114 294 114 417 c 0,3,4
 114 499 114 499 129 583 c 0,5,6
 154 727 154 727 224 849 c 128,-1,7
 294 971 294 971 398.5 1043.5 c 128,-1,8
 503 1116 503 1116 628 1116 c 0,9,10
 737 1116 737 1116 808 1083 c 128,-1,11
 879 1050 879 1050 906 970 c 1,12,-1
 1017 1580 l 1,13,-1
 1253 1580 l 1,14,-1
 1015 231 l 2,15,16
 1001 150 1001 150 991 76 c 0,17,18
 981 8 981 8 978 -9 c 1,19,-1
 753 0 l 1,20,-1
 761 121 l 1,21,22
 699 46 699 46 628.5 15 c 128,-1,23
 558 -16 558 -16 454 -16 c 0,24,0
 339 -16 339 -16 263 41 c 128,-1,1
352 433 m 0,26,27
 352 318 352 318 394.5 239 c 128,-1,28
 437 160 437 160 523 160 c 0,29,30
 606 160 606 160 672.5 224.5 c 128,-1,31
 739 289 739 289 781.5 384 c 128,-1,32
 824 479 824 479 841 573 c 0,33,34
 851 633 851 633 851 683 c 0,35,36
 851 794 851 794 809 867 c 128,-1,37
 767 940 767 940 677 940 c 0,38,39
 598 940 598 940 532 879 c 128,-1,40
 466 818 466 818 422 726 c 128,-1,41
 378 634 378 634 362 543 c 0,42,25
 352 483 352 483 352 433 c 0,26,27
EndSplineSet
Substitution2: "'fwid' Full Widths lookup 32 subtable" uniFF44
Substitution2: "'smcp' Lowercase to Small Capitals lookup 27 subtable" d.sc
AlternateSubs2: "'aalt' Access All Alternates lookup 1 subtable" d.sc uniFF44
EndChar

StartChar: e
Encoding: 101 101 30
Width: 1200
GlyphClass: 2
Flags: W
AnchorPoint: "Anchor-37" 592 552 basechar 0
AnchorPoint: "Anchor-35" 707 1118 basechar 0
AnchorPoint: "Anchor-34" 517 -13 basechar 0
AnchorPoint: "Anchor-33" 504 -16 basechar 0
LayerCount: 2
Fore
SplineSet
319 29.5 m 128,-1,1
 220 79 220 79 166 176 c 128,-1,2
 112 273 112 273 112 412 c 0,3,4
 112 487 112 487 126 561 c 0,5,6
 157 732 157 732 238 857.5 c 128,-1,7
 319 983 319 983 442 1050.5 c 128,-1,8
 565 1118 565 1118 719 1118 c 0,9,10
 909 1118 909 1118 1001.5 1014.5 c 128,-1,11
 1094 911 1094 911 1094 714 c 0,12,13
 1094 620 1094 620 1073 506 c 1,14,-1
 325 414 l 1,15,16
 323 382 323 382 323 370 c 0,17,18
 323 263 323 263 382.5 214.5 c 128,-1,19
 442 166 442 166 582 166 c 0,20,21
 693 166 693 166 789.5 195 c 128,-1,22
 886 224 886 224 952 282 c 1,23,-1
 1042 141 l 1,24,25
 943 61 943 61 808.5 20.5 c 128,-1,26
 674 -20 674 -20 551 -20 c 0,27,0
 418 -20 418 -20 319 29.5 c 128,-1,1
921 663 m 1,28,29
 925 687 925 687 925 714 c 0,30,31
 925 786 925 786 894 835 c 128,-1,32
 863 884 863 884 809.5 908.5 c 128,-1,33
 756 933 756 933 690 933 c 0,34,35
 555 933 555 933 467 839 c 128,-1,36
 379 745 379 745 349 591 c 1,37,-1
 921 663 l 1,28,29
EndSplineSet
Substitution2: "'fwid' Full Widths lookup 32 subtable" uniFF45
Substitution2: "'smcp' Lowercase to Small Capitals lookup 27 subtable" e.sc
Substitution2: "'sinf' Scientific Inferiors lookup 14 subtable" uni2091
Substitution2: "'subs' Subscript lookup 13 subtable" uni2091
AlternateSubs2: "'aalt' Access All Alternates lookup 1 subtable" uni2091 e.sc uniFF45
EndChar

StartChar: f
Encoding: 102 102 31
Width: 1200
GlyphClass: 2
Flags: W
AnchorPoint: "Anchor-37" 646 792 basechar 0
AnchorPoint: "Anchor-35" 759 1586 basechar 0
AnchorPoint: "Anchor-33" 218 -354 basechar 0
LayerCount: 2
Fore
SplineSet
83 -133 m 1,0,-1
 230 -133 l 2,1,2
 278 -133 278 -133 306 -104 c 128,-1,3
 334 -75 334 -75 346 -36.5 c 128,-1,4
 358 2 358 2 368 58 c 2,5,-1
 512 876 l 1,6,-1
 232 876 l 1,7,-1
 266 1068 l 1,8,-1
 548 1068 l 1,9,-1
 584 1269 l 2,10,11
 615 1440 615 1440 731 1512 c 128,-1,12
 847 1584 847 1584 1012 1584 c 0,13,14
 1086 1584 1086 1584 1156 1581.5 c 128,-1,15
 1226 1579 1226 1579 1258 1575 c 1,16,-1
 1239 1382 l 1,17,18
 1205 1384 1205 1384 1192 1384 c 0,19,20
 1106 1388 1106 1388 1064 1388 c 0,21,22
 967 1388 967 1388 899.5 1349 c 128,-1,23
 832 1310 832 1310 815 1217 c 2,24,-1
 788 1068 l 1,25,-1
 1096 1068 l 1,26,-1
 1062 876 l 1,27,-1
 758 876 l 1,28,-1
 607 15 l 2,29,30
 586 -106 586 -106 554.5 -182 c 128,-1,31
 523 -258 523 -258 450.5 -306 c 128,-1,32
 378 -354 378 -354 248 -354 c 2,33,-1
 34 -354 l 1,34,-1
 83 -133 l 1,0,-1
EndSplineSet
Substitution2: "Single Substitution lookup 73 subtable" f.alternate
Substitution2: "'fwid' Full Widths lookup 32 subtable" uniFF46
Substitution2: "'smcp' Lowercase to Small Capitals lookup 27 subtable" f.sc
AlternateSubs2: "'aalt' Access All Alternates lookup 1 subtable" f.sc uniFF46 f.alternate
EndChar

StartChar: g
Encoding: 103 103 32
Width: 1200
GlyphClass: 2
Flags: W
AnchorPoint: "Anchor-35" 646 1109 basechar 0
AnchorPoint: "Anchor-33" 437 -480 basechar 0
LayerCount: 2
Fore
SplineSet
243 -408.5 m 128,-1,1
 155 -364 155 -364 105 -287.5 c 128,-1,2
 55 -211 55 -211 55 -119 c 0,3,4
 55 -99 55 -99 58 -76 c 1,5,-1
 295 -76 l 1,6,7
 291 -152 291 -152 341.5 -191 c 128,-1,8
 392 -230 392 -230 479 -230 c 0,9,10
 593 -230 593 -230 672.5 -145 c 128,-1,11
 752 -60 752 -60 790 154 c 1,12,-1
 776 154 l 1,13,14
 717 67 717 67 642.5 32 c 128,-1,15
 568 -3 568 -3 459 -3 c 0,16,17
 344 -3 344 -3 266.5 60 c 128,-1,18
 189 123 189 123 151.5 224.5 c 128,-1,19
 114 326 114 326 114 441 c 0,20,21
 114 506 114 506 124 560 c 0,22,23
 148 695 148 695 217.5 821.5 c 128,-1,24
 287 948 287 948 402 1030.5 c 128,-1,25
 517 1113 517 1113 667 1113 c 0,26,27
 773 1113 773 1113 831 1078 c 128,-1,28
 889 1043 889 1043 923 994 c 0,29,30
 931 982 931 982 935 975 c 1,31,-1
 959 1100 l 1,32,-1
 1192 1100 l 1,33,34
 1167 1005 1167 1005 1150 914 c 2,35,-1
 1006 98 l 2,36,37
 971 -101 971 -101 906.5 -220 c 128,-1,38
 842 -339 842 -339 729.5 -396 c 128,-1,39
 617 -453 617 -453 438 -453 c 0,40,0
 331 -453 331 -453 243 -408.5 c 128,-1,1
354 454 m 0,42,43
 354 344 354 344 398.5 272 c 128,-1,44
 443 200 443 200 539 200 c 0,45,46
 618 200 618 200 682.5 256 c 128,-1,47
 747 312 747 312 788.5 398 c 128,-1,48
 830 484 830 484 847 576 c 0,49,50
 857 634 857 634 857 683 c 0,51,52
 857 796 857 796 812 869 c 128,-1,53
 767 942 767 942 673 942 c 0,54,55
 590 942 590 942 525.5 885 c 128,-1,56
 461 828 461 828 420.5 740.5 c 128,-1,57
 380 653 380 653 364 560 c 0,58,41
 354 502 354 502 354 454 c 0,42,43
EndSplineSet
Substitution2: "'ss01' Style Set 1 lookup 41 subtable" g.alt
Substitution2: "'fwid' Full Widths lookup 32 subtable" uniFF47
Substitution2: "'smcp' Lowercase to Small Capitals lookup 27 subtable" g.sc
AlternateSubs2: "'aalt' Access All Alternates lookup 1 subtable" g.sc uniFF47 g.alt
EndChar

StartChar: h
Encoding: 104 104 33
Width: 1200
GlyphClass: 2
Flags: W
AnchorPoint: "Anchor-37" 639 786 basechar 0
AnchorPoint: "Anchor-35" 781 1582 basechar 0
AnchorPoint: "Anchor-33" 528 0 basechar 0
LayerCount: 2
Fore
SplineSet
325 1580 m 1,0,-1
 571 1580 l 1,1,-1
 456 953 l 1,2,3
 509 1014 509 1014 555 1047 c 128,-1,4
 601 1080 601 1080 649 1093.5 c 128,-1,5
 697 1107 697 1107 760 1107 c 0,6,7
 922 1107 922 1107 1005.5 1023 c 128,-1,8
 1089 939 1089 939 1089 787 c 0,9,10
 1089 732 1089 732 1079 675 c 2,11,-1
 960 0 l 1,12,-1
 712 0 l 1,13,-1
 815 558 l 2,14,15
 833 658 833 658 833 717 c 0,16,17
 833 800 833 800 800.5 841 c 128,-1,18
 768 882 768 882 693 882 c 0,19,20
 572 882 572 882 492.5 772.5 c 128,-1,21
 413 663 413 663 381 483 c 2,22,-1
 296 0 l 1,23,-1
 46 0 l 1,24,-1
 325 1580 l 1,0,-1
EndSplineSet
Substitution2: "'fwid' Full Widths lookup 32 subtable" uniFF48
Substitution2: "'smcp' Lowercase to Small Capitals lookup 27 subtable" h.sc
Substitution2: "'sinf' Scientific Inferiors lookup 14 subtable" uni2095
Substitution2: "'subs' Subscript lookup 13 subtable" uni2095
AlternateSubs2: "'aalt' Access All Alternates lookup 1 subtable" uni2095 h.sc uniFF48
EndChar

StartChar: i
Encoding: 105 105 34
Width: 1200
GlyphClass: 2
Flags: W
AnchorPoint: "Anchor-37" 622 796 basechar 0
AnchorPoint: "Anchor-35" 756 1644 basechar 0
AnchorPoint: "Anchor-33" 469 8 basechar 0
LayerCount: 2
Fore
SplineSet
525.5 6.5 m 128,-1,1
 460 29 460 29 425 84 c 128,-1,2
 390 139 390 139 390 234 c 0,3,4
 390 300 390 300 408 390 c 2,5,-1
 494 817 l 1,6,-1
 191 741 l 1,7,-1
 233 969 l 1,8,-1
 790 1110 l 1,9,-1
 655 418 l 2,10,11
 643 355 643 355 643 314 c 0,12,13
 643 257 643 257 661 230 c 128,-1,14
 679 203 679 203 703 197 c 128,-1,15
 727 191 727 191 762 191 c 0,16,17
 802 191 802 191 861.5 204 c 128,-1,18
 921 217 921 217 1011 241 c 1,19,-1
 984 28 l 1,20,-1
 919 15 l 2,21,22
 840 -2 840 -2 793 -9 c 128,-1,23
 746 -16 746 -16 690 -16 c 0,24,0
 591 -16 591 -16 525.5 6.5 c 128,-1,1
583.5 1536 m 128,-1,26
 603 1566 603 1566 636 1579 c 128,-1,27
 669 1592 669 1592 724 1592 c 0,28,29
 800 1592 800 1592 835 1565 c 128,-1,30
 870 1538 870 1538 870 1478 c 0,31,32
 870 1457 870 1457 863 1417 c 0,33,34
 852 1363 852 1363 833 1332.5 c 128,-1,35
 814 1302 814 1302 781 1289 c 128,-1,36
 748 1276 748 1276 693 1276 c 0,37,38
 619 1276 619 1276 583 1304 c 128,-1,39
 547 1332 547 1332 547 1391 c 0,40,41
 547 1420 547 1420 554 1451 c 0,42,25
 564 1506 564 1506 583.5 1536 c 128,-1,26
EndSplineSet
Substitution2: "Single Substitution lookup 61 subtable" dotlessi
Substitution2: "'fwid' Full Widths lookup 32 subtable" uniFF49
Substitution2: "'smcp' Lowercase to Small Capitals lookup 27 subtable" i.sc
Substitution2: "'locl' Localized Forms in Latin lookup 7 per glyph data 4" i.loclTRK
Substitution2: "'locl' Localized Forms in Latin lookup 7 per glyph data 3" i.loclTRK
Substitution2: "'locl' Localized Forms in Latin lookup 7 per glyph data 2" i.loclTRK
Substitution2: "'locl' Localized Forms in Latin lookup 7 per glyph data 1" i.loclTRK
Substitution2: "'locl' Localized Forms in Latin lookup 7 per glyph data 0" i.loclTRK
AlternateSubs2: "'aalt' Access All Alternates lookup 1 subtable" i.loclTRK i.sc uniFF49
EndChar

StartChar: j
Encoding: 106 106 35
Width: 1200
GlyphClass: 2
Flags: W
AnchorPoint: "Anchor-37" 649 638 basechar 0
AnchorPoint: "Anchor-35" 834 1598 basechar 0
LayerCount: 2
Fore
SplineSet
252 -20 m 0,1,2
 252 -91 252 -91 289 -127.5 c 128,-1,3
 326 -164 326 -164 390 -164 c 0,4,5
 444 -164 444 -164 492 -134.5 c 128,-1,6
 540 -105 540 -105 572 -57.5 c 128,-1,7
 604 -10 604 -10 614 43 c 2,8,-1
 752 823 l 1,9,-1
 388 730 l 1,10,-1
 429 962 l 1,11,-1
 1045 1115 l 1,12,-1
 859 51 l 2,13,14
 836 -80 836 -80 769.5 -174.5 c 128,-1,15
 703 -269 703 -269 604 -318.5 c 128,-1,16
 505 -368 505 -368 386 -368 c 0,17,18
 276 -368 276 -368 192.5 -327.5 c 128,-1,19
 109 -287 109 -287 63.5 -212.5 c 128,-1,20
 18 -138 18 -138 18 -37 c 0,21,22
 18 1 18 1 26 47 c 1,23,-1
 257 37 l 1,24,0
 252 12 252 12 252 -20 c 0,1,2
846.5 1538 m 128,-1,26
 865 1568 865 1568 898 1581 c 128,-1,27
 931 1594 931 1594 986 1594 c 0,28,29
 1063 1594 1063 1594 1098.5 1566 c 128,-1,30
 1134 1538 1134 1538 1134 1476 c 0,31,32
 1134 1451 1134 1451 1128 1419 c 0,33,34
 1119 1365 1119 1365 1100.5 1334.5 c 128,-1,35
 1082 1304 1082 1304 1049 1291 c 128,-1,36
 1016 1278 1016 1278 961 1278 c 0,37,38
 884 1278 884 1278 848.5 1307 c 128,-1,39
 813 1336 813 1336 813 1399 c 0,40,41
 813 1420 813 1420 818 1453 c 0,42,25
 828 1508 828 1508 846.5 1538 c 128,-1,26
EndSplineSet
Substitution2: "Single Substitution lookup 61 subtable" uni0237
Substitution2: "'ss03' Style Set 3 lookup 43 subtable" j.alt
Substitution2: "'fwid' Full Widths lookup 32 subtable" uniFF4A
Substitution2: "'smcp' Lowercase to Small Capitals lookup 27 subtable" j.sc
AlternateSubs2: "'aalt' Access All Alternates lookup 1 subtable" j.sc uniFF4A j.alt
EndChar

StartChar: k
Encoding: 107 107 36
Width: 1200
GlyphClass: 2
Flags: W
AnchorPoint: "Anchor-37" 652 774 basechar 0
AnchorPoint: "Anchor-35" 760 1574 basechar 0
AnchorPoint: "Anchor-33" 483 6 basechar 0
LayerCount: 2
Fore
SplineSet
419 493 m 1,0,-1
 332 0 l 1,1,-1
 96 0 l 1,2,-1
 375 1580 l 1,3,-1
 611 1580 l 1,4,-1
 438 602 l 1,5,-1
 889 1100 l 1,6,-1
 1167 1100 l 1,7,-1
 667 552 l 1,8,-1
 1007 0 l 1,9,-1
 737 0 l 1,10,-1
 419 493 l 1,0,-1
EndSplineSet
Substitution2: "'fwid' Full Widths lookup 32 subtable" uniFF4B
Substitution2: "'smcp' Lowercase to Small Capitals lookup 27 subtable" k.sc
Substitution2: "'sinf' Scientific Inferiors lookup 14 subtable" uni2096
Substitution2: "'subs' Subscript lookup 13 subtable" uni2096
AlternateSubs2: "'aalt' Access All Alternates lookup 1 subtable" uni2096 k.sc uniFF4B
EndChar

StartChar: l
Encoding: 108 108 37
Width: 1200
GlyphClass: 2
Flags: W
AnchorPoint: "Anchor-38" 1283 1602 basechar 0
AnchorPoint: "Anchor-37" 619 774 basechar 0
AnchorPoint: "Anchor-35" 766 1582 basechar 0
AnchorPoint: "Anchor-33" 497 0 basechar 0
LayerCount: 2
Fore
SplineSet
448.5 36 m 128,-1,1
 371 96 371 96 371 229 c 0,2,3
 371 273 371 273 380 327 c 2,4,-1
 535 1290 l 1,5,-1
 180 1203 l 1,6,-1
 211 1430 l 1,7,-1
 825 1580 l 1,8,-1
 618 379 l 2,9,10
 613 349 613 349 613 329 c 0,11,12
 613 255 613 255 656.5 228.5 c 128,-1,13
 700 202 700 202 773 202 c 0,14,15
 896 202 896 202 1057 268 c 1,16,-1
 1022 33 l 1,17,18
 918 -5 918 -5 846.5 -14.5 c 128,-1,19
 775 -24 775 -24 688 -24 c 0,20,0
 526 -24 526 -24 448.5 36 c 128,-1,1
EndSplineSet
Substitution2: "'fwid' Full Widths lookup 32 subtable" uniFF4C
Substitution2: "'smcp' Lowercase to Small Capitals lookup 27 subtable" l.sc
Substitution2: "'sinf' Scientific Inferiors lookup 14 subtable" uni2097
Substitution2: "'subs' Subscript lookup 13 subtable" uni2097
AlternateSubs2: "'aalt' Access All Alternates lookup 1 subtable" uni2097 l.sc uniFF4C
EndChar

StartChar: m
Encoding: 109 109 38
Width: 1200
GlyphClass: 2
Flags: W
AnchorPoint: "Anchor-37" 603 560 basechar 0
AnchorPoint: "Anchor-35" 702 1114 basechar 0
AnchorPoint: "Anchor-33" 502 0 basechar 0
LayerCount: 2
Fore
SplineSet
167 1100 m 1,1,-1
 383 1100 l 1,2,-1
 373 992 l 1,3,4
 455 1120 455 1120 566 1120 c 0,5,6
 714 1120 714 1120 724 962 c 1,7,8
 765 1047 765 1047 828.5 1082.5 c 128,-1,9
 892 1118 892 1118 965 1118 c 0,10,11
 1062 1118 1062 1118 1118.5 1057.5 c 128,-1,12
 1175 997 1175 997 1175 880 c 0,13,14
 1175 831 1175 831 1165 777 c 2,15,-1
 1028 0 l 1,16,-1
 791 0 l 1,17,-1
 927 773 l 2,18,19
 938 834 938 834 938 864 c 0,20,21
 938 893 938 893 927.5 906.5 c 128,-1,22
 917 920 917 920 893 920 c 0,23,24
 844 920 844 920 808 881 c 128,-1,25
 772 842 772 842 758 765 c 2,26,-1
 623 0 l 1,27,-1
 390 0 l 1,28,-1
 526 773 l 2,29,30
 534 821 534 821 534 847 c 0,31,32
 534 886 534 886 520.5 903 c 128,-1,33
 507 920 507 920 477 920 c 0,34,35
 382 920 382 920 354 765 c 2,36,-1
 219 0 l 1,37,-1
 -15 0 l 1,38,-1
 140 881 l 2,39,0
 163 1010 163 1010 167 1100 c 1,1,-1
EndSplineSet
Substitution2: "'fwid' Full Widths lookup 32 subtable" uniFF4D
Substitution2: "'smcp' Lowercase to Small Capitals lookup 27 subtable" m.sc
Substitution2: "'sinf' Scientific Inferiors lookup 14 subtable" uni2098
Substitution2: "'subs' Subscript lookup 13 subtable" uni2098
AlternateSubs2: "'aalt' Access All Alternates lookup 1 subtable" uni2098 m.sc uniFF4D
EndChar

StartChar: n
Encoding: 110 110 39
Width: 1200
GlyphClass: 2
Flags: W
AnchorPoint: "Anchor-37" 601 560 basechar 0
AnchorPoint: "Anchor-35" 712 1114 basechar 0
AnchorPoint: "Anchor-33" 500 0 basechar 0
LayerCount: 2
Fore
SplineSet
235 1051 m 0,1,2
 236 1065 236 1065 240 1100 c 1,3,-1
 474 1100 l 1,4,-1
 459 947 l 1,5,6
 530 1036 530 1036 615 1078 c 128,-1,7
 700 1120 700 1120 806 1120 c 0,8,9
 944 1120 944 1120 1018.5 1038.5 c 128,-1,10
 1093 957 1093 957 1093 811 c 0,11,12
 1093 749 1093 749 1080 683 c 2,13,-1
 950 0 l 1,14,-1
 702 0 l 1,15,-1
 821 621 l 2,16,17
 835 695 835 695 835 750 c 0,18,19
 835 928 835 928 695 928 c 0,20,21
 611 928 611 928 548.5 870.5 c 128,-1,22
 486 813 486 813 448 725 c 128,-1,23
 410 637 410 637 393 539 c 2,24,-1
 298 0 l 1,25,-1
 58 0 l 1,26,-1
 208 853 l 2,27,0
 221 929 221 929 235 1051 c 0,1,2
EndSplineSet
Substitution2: "'fwid' Full Widths lookup 32 subtable" uniFF4E
Substitution2: "'smcp' Lowercase to Small Capitals lookup 27 subtable" n.sc
Substitution2: "'sinf' Scientific Inferiors lookup 14 subtable" uni2099
Substitution2: "'subs' Subscript lookup 13 subtable" uni2099
AlternateSubs2: "'aalt' Access All Alternates lookup 1 subtable" uni2099 n.sc uniFF4E
EndChar

StartChar: o
Encoding: 111 111 40
Width: 1200
GlyphClass: 2
Flags: W
AnchorPoint: "Anchor-38" 1119 1110 basechar 0
AnchorPoint: "Anchor-37" 600 548 basechar 0
AnchorPoint: "Anchor-35" 698 1106 basechar 0
AnchorPoint: "Anchor-34" 512 -4 basechar 0
AnchorPoint: "Anchor-33" 499 -20 basechar 0
LayerCount: 2
Fore
SplineSet
200.5 91 m 128,-1,1
 96 202 96 202 96 403 c 0,2,3
 96 483 96 483 112 569 c 0,4,5
 143 738 143 738 222 862.5 c 128,-1,6
 301 987 301 987 418 1053.5 c 128,-1,7
 535 1120 535 1120 677 1120 c 0,8,9
 804 1120 804 1120 895 1068.5 c 128,-1,10
 986 1017 986 1017 1034.5 920 c 128,-1,11
 1083 823 1083 823 1083 689 c 0,12,13
 1083 618 1083 618 1068 535 c 0,14,15
 1037 361 1037 361 961.5 236.5 c 128,-1,16
 886 112 886 112 769.5 46 c 128,-1,17
 653 -20 653 -20 503 -20 c 0,18,0
 305 -20 305 -20 200.5 91 c 128,-1,1
341 406 m 0,20,21
 341 302 341 302 383 247 c 128,-1,22
 425 192 425 192 506 192 c 0,23,24
 585 192 585 192 650.5 237.5 c 128,-1,25
 716 283 716 283 761.5 367 c 128,-1,26
 807 451 807 451 827 565 c 0,27,28
 838 624 838 624 838 683 c 0,29,30
 838 791 838 791 794 849.5 c 128,-1,31
 750 908 750 908 665 908 c 0,32,33
 591 908 591 908 527 861.5 c 128,-1,34
 463 815 463 815 418 730 c 128,-1,35
 373 645 373 645 353 531 c 0,36,19
 341 462 341 462 341 406 c 0,20,21
EndSplineSet
Substitution2: "Single Substitution lookup 63 subtable" ordmasculine
Substitution2: "'fwid' Full Widths lookup 32 subtable" uniFF4F
Substitution2: "'smcp' Lowercase to Small Capitals lookup 27 subtable" o.sc
Substitution2: "'sinf' Scientific Inferiors lookup 14 subtable" uni2092
Substitution2: "'subs' Subscript lookup 13 subtable" uni2092
AlternateSubs2: "'aalt' Access All Alternates lookup 1 subtable" uni2092 ordmasculine o.sc uniFF4F
EndChar

StartChar: p
Encoding: 112 112 41
Width: 1200
GlyphClass: 2
Flags: W
AnchorPoint: "Anchor-37" 561 382 basechar 0
AnchorPoint: "Anchor-35" 692 1124 basechar 0
AnchorPoint: "Anchor-33" 505 4 basechar 0
LayerCount: 2
Fore
SplineSet
216 1057 m 2,1,-1
 222 1109 l 1,2,-1
 451 1100 l 1,3,-1
 436 950 l 1,4,5
 505 1043 505 1043 579 1081.5 c 128,-1,6
 653 1120 653 1120 742 1120 c 0,7,8
 862 1120 862 1120 939.5 1060 c 128,-1,9
 1017 1000 1017 1000 1052 901.5 c 128,-1,10
 1087 803 1087 803 1087 684 c 0,11,12
 1087 605 1087 605 1074 534 c 0,13,14
 1051 402 1051 402 987.5 278.5 c 128,-1,15
 924 155 924 155 814.5 73.5 c 128,-1,16
 705 -8 705 -8 555 -8 c 0,17,18
 462 -8 462 -8 402 27.5 c 128,-1,19
 342 63 342 63 308 135 c 1,20,-1
 213 -380 l 1,21,-1
 -31 -380 l 1,22,-1
 190 871 l 2,23,0
 204 954 204 954 216 1057 c 2,1,-1
349 420 m 0,25,26
 349 315 349 315 390.5 244.5 c 128,-1,27
 432 174 432 174 518 174 c 0,28,29
 598 174 598 174 664.5 230.5 c 128,-1,30
 731 287 731 287 775.5 376 c 128,-1,31
 820 465 820 465 837 562 c 0,32,33
 848 622 848 622 848 686 c 0,34,35
 848 797 848 797 811 871.5 c 128,-1,36
 774 946 774 946 692 946 c 0,37,38
 612 946 612 946 541.5 881 c 128,-1,39
 471 816 471 816 423 717 c 128,-1,40
 375 618 375 618 358 522 c 0,41,24
 349 473 349 473 349 420 c 0,25,26
EndSplineSet
Substitution2: "'fwid' Full Widths lookup 32 subtable" uniFF50
Substitution2: "'smcp' Lowercase to Small Capitals lookup 27 subtable" p.sc
Substitution2: "'sinf' Scientific Inferiors lookup 14 subtable" uni209A
Substitution2: "'subs' Subscript lookup 13 subtable" uni209A
AlternateSubs2: "'aalt' Access All Alternates lookup 1 subtable" uni209A p.sc uniFF50
EndChar

StartChar: q
Encoding: 113 113 42
Width: 1200
GlyphClass: 2
Flags: W
AnchorPoint: "Anchor-37" 577 380 basechar 0
AnchorPoint: "Anchor-35" 704 1052 basechar 0
AnchorPoint: "Anchor-33" 444 -362 basechar 0
LayerCount: 2
Fore
SplineSet
623.5 9.5 m 128,-1,1
 556 -20 556 -20 456 -20 c 0,2,3
 348 -20 348 -20 270.5 35 c 128,-1,4
 193 90 193 90 152.5 188.5 c 128,-1,5
 112 287 112 287 112 414 c 0,6,7
 112 485 112 485 126 567 c 0,8,9
 155 729 155 729 223 854 c 128,-1,10
 291 979 291 979 392.5 1049.5 c 128,-1,11
 494 1120 494 1120 618 1120 c 0,12,13
 733 1120 733 1120 805.5 1079 c 128,-1,14
 878 1038 878 1038 903 958 c 1,15,-1
 938 1104 l 1,16,-1
 1174 1095 l 1,17,-1
 1162 1041 l 2,18,19
 1136 933 1136 933 1125 869 c 2,20,-1
 908 -362 l 1,21,-1
 664 -362 l 1,22,-1
 753 117 l 1,23,0
 691 39 691 39 623.5 9.5 c 128,-1,1
349 416 m 0,25,26
 349 300 349 300 394 227 c 128,-1,27
 439 154 439 154 526 154 c 0,28,29
 605 154 605 154 671 217.5 c 128,-1,30
 737 281 737 281 781 376.5 c 128,-1,31
 825 472 825 472 842 567 c 0,32,33
 853 626 853 626 853 689 c 0,34,35
 853 806 853 806 808 876 c 128,-1,36
 763 946 763 946 680 946 c 0,37,38
 605 946 605 946 538.5 889 c 128,-1,39
 472 832 472 832 425.5 737.5 c 128,-1,40
 379 643 379 643 360 533 c 0,41,24
 349 470 349 470 349 416 c 0,25,26
EndSplineSet
Substitution2: "'fwid' Full Widths lookup 32 subtable" uniFF51
Substitution2: "'smcp' Lowercase to Small Capitals lookup 27 subtable" q.sc
AlternateSubs2: "'aalt' Access All Alternates lookup 1 subtable" q.sc uniFF51
EndChar

StartChar: r
Encoding: 114 114 43
Width: 1200
GlyphClass: 2
Flags: W
AnchorPoint: "Anchor-37" 606 562 basechar 0
AnchorPoint: "Anchor-35" 700 1104 basechar 0
AnchorPoint: "Anchor-33" 499 0 basechar 0
LayerCount: 2
Fore
SplineSet
249 207 m 0,1,2
 306 472 306 472 327 587 c 0,3,4
 356 743 356 743 356 864 c 1,5,-1
 104 787 l 1,6,-1
 146 1010 l 1,7,-1
 530 1112 l 1,8,9
 554 1084 554 1084 566.5 1046.5 c 128,-1,10
 579 1009 579 1009 584 946 c 1,11,12
 636 1031 636 1031 729 1073.5 c 128,-1,13
 822 1116 822 1116 920 1116 c 0,14,15
 1011 1116 1011 1116 1076 1082 c 128,-1,16
 1141 1048 1141 1048 1191 992 c 1,17,-1
 1055 827 l 1,18,19
 1010 861 1010 861 965.5 881.5 c 128,-1,20
 921 902 921 902 863 902 c 0,21,22
 746 902 746 902 664.5 801 c 128,-1,23
 583 700 583 700 550 513 c 2,24,-1
 459 0 l 1,25,-1
 205 0 l 1,26,0
 222 85 222 85 249 207 c 0,1,2
EndSplineSet
Substitution2: "Single Substitution lookup 74 subtable" r.alternate
Substitution2: "'fwid' Full Widths lookup 32 subtable" uniFF52
Substitution2: "'smcp' Lowercase to Small Capitals lookup 27 subtable" r.sc
AlternateSubs2: "'aalt' Access All Alternates lookup 1 subtable" r.sc uniFF52 r.alternate
EndChar

StartChar: s
Encoding: 115 115 44
Width: 1200
GlyphClass: 2
Flags: W
AnchorPoint: "Anchor-37" 597 552 basechar 0
AnchorPoint: "Anchor-35" 700 1110 basechar 0
AnchorPoint: "Anchor-33" 502 -12 basechar 0
LayerCount: 2
Fore
SplineSet
272 35.5 m 128,-1,1
 171 88 171 88 98 193 c 1,2,-1
 248 337 l 1,3,4
 291 289 291 289 329 258.5 c 128,-1,5
 367 228 367 228 417.5 210.5 c 128,-1,6
 468 193 468 193 536 193 c 0,7,8
 629 193 629 193 692 214 c 128,-1,9
 755 235 755 235 766 301 c 0,10,11
 768 315 768 315 768 320 c 0,12,13
 768 371 768 371 713 405.5 c 128,-1,14
 658 440 658 440 544 475 c 0,15,16
 390 523 390 523 308.5 587.5 c 128,-1,17
 227 652 227 652 227 759 c 0,18,19
 227 786 227 786 233 817 c 0,20,21
 251 912 251 912 314 980.5 c 128,-1,22
 377 1049 377 1049 474.5 1084.5 c 128,-1,23
 572 1120 572 1120 692 1120 c 0,24,25
 826 1120 826 1120 920 1081 c 128,-1,26
 1014 1042 1014 1042 1076 968 c 1,27,-1
 925 834 l 1,28,29
 882 876 882 876 823 896 c 128,-1,30
 764 916 764 916 697 916 c 0,31,32
 600 916 600 916 536.5 883 c 128,-1,33
 473 850 473 850 463 791 c 0,34,35
 462 786 462 786 462 777 c 0,36,37
 462 739 462 739 497.5 710.5 c 128,-1,38
 533 682 533 682 582 663.5 c 128,-1,39
 631 645 631 645 707 623 c 1,40,41
 703 624 703 624 761 607 c 0,42,43
 866 573 866 573 937 512 c 128,-1,44
 1008 451 1008 451 1008 342 c 0,45,46
 1008 320 1008 320 1003 288 c 0,47,48
 976 130 976 130 848 56.5 c 128,-1,49
 720 -17 720 -17 527 -17 c 0,50,0
 373 -17 373 -17 272 35.5 c 128,-1,1
EndSplineSet
Substitution2: "'fwid' Full Widths lookup 32 subtable" uniFF53
Substitution2: "'smcp' Lowercase to Small Capitals lookup 27 subtable" s.sc
Substitution2: "'sinf' Scientific Inferiors lookup 14 subtable" uni209B
Substitution2: "'subs' Subscript lookup 13 subtable" uni209B
AlternateSubs2: "'aalt' Access All Alternates lookup 1 subtable" uni209B s.sc uniFF53
EndChar

StartChar: t
Encoding: 116 116 45
Width: 1200
GlyphClass: 2
Flags: W
AnchorPoint: "Anchor-38" 1172 1441 basechar 0
AnchorPoint: "Anchor-37" 645 708 basechar 0
AnchorPoint: "Anchor-35" 750 1502 basechar 0
AnchorPoint: "Anchor-33" 618 -10 basechar 0
LayerCount: 2
Fore
SplineSet
455.5 40.5 m 128,-1,1
 385 92 385 92 385 192 c 0,2,3
 385 226 385 226 393 271 c 2,4,-1
 516 906 l 1,5,-1
 216 906 l 1,6,-1
 253 1100 l 1,7,-1
 553 1100 l 1,8,-1
 631 1502 l 1,9,-1
 873 1502 l 1,10,-1
 795 1100 l 1,11,-1
 1105 1100 l 1,12,-1
 1068 906 l 1,13,-1
 758 906 l 1,14,-1
 651 359 l 2,15,16
 642 311 642 311 642 279 c 0,17,18
 642 225 642 225 667.5 205 c 128,-1,19
 693 185 693 185 749 185 c 0,20,21
 821 185 821 185 983 216 c 1,22,-1
 959 20 l 1,23,24
 814 -11 814 -11 687 -11 c 0,25,0
 526 -11 526 -11 455.5 40.5 c 128,-1,1
EndSplineSet
Substitution2: "'fwid' Full Widths lookup 32 subtable" uniFF54
Substitution2: "'smcp' Lowercase to Small Capitals lookup 27 subtable" t.sc
Substitution2: "'sinf' Scientific Inferiors lookup 14 subtable" uni209C
Substitution2: "'subs' Subscript lookup 13 subtable" uni209C
AlternateSubs2: "'aalt' Access All Alternates lookup 1 subtable" uni209C t.sc uniFF54
EndChar

StartChar: u
Encoding: 117 117 46
Width: 1200
GlyphClass: 2
Flags: W
AnchorPoint: "Anchor-38" 1016 1102 basechar 0
AnchorPoint: "Anchor-37" 606 542 basechar 0
AnchorPoint: "Anchor-35" 694 1102 basechar 0
AnchorPoint: "Anchor-34" 850 0 basechar 0
AnchorPoint: "Anchor-33" 510 0 basechar 0
LayerCount: 2
Fore
SplineSet
192 65 m 128,-1,1
 117 146 117 146 117 291 c 0,2,3
 117 345 117 345 127 401 c 2,4,-1
 250 1100 l 1,5,-1
 494 1100 l 1,6,-1
 373 413 l 2,7,8
 361 341 361 341 361 301 c 0,9,10
 361 237 361 237 390.5 204.5 c 128,-1,11
 420 172 420 172 493 172 c 0,12,13
 572 172 572 172 632 211.5 c 128,-1,14
 692 251 692 251 729 317 c 128,-1,15
 766 383 766 383 780 463 c 2,16,-1
 892 1100 l 1,17,-1
 1136 1100 l 1,18,-1
 982 229 l 2,19,20
 968 147 968 147 960 81 c 1,21,22
 961 92 961 92 949 0 c 1,23,-1
 708 0 l 1,24,-1
 724 111 l 1,25,26
 667 36 667 36 592.5 10 c 128,-1,27
 518 -16 518 -16 402 -16 c 0,28,0
 267 -16 267 -16 192 65 c 128,-1,1
EndSplineSet
Substitution2: "'fwid' Full Widths lookup 32 subtable" uniFF55
Substitution2: "'smcp' Lowercase to Small Capitals lookup 27 subtable" u.sc
AlternateSubs2: "'aalt' Access All Alternates lookup 1 subtable" u.sc uniFF55
EndChar

StartChar: v
Encoding: 118 118 47
Width: 1200
GlyphClass: 2
Flags: W
AnchorPoint: "Anchor-37" 600 552 basechar 0
AnchorPoint: "Anchor-35" 727 1110 basechar 0
AnchorPoint: "Anchor-33" 531 0 basechar 0
LayerCount: 2
Fore
SplineSet
228 1106 m 1,0,-1
 490 1106 l 1,1,-1
 559 316 l 1,2,-1
 916 1106 l 1,3,-1
 1172 1106 l 1,4,-1
 647 0 l 1,5,-1
 365 0 l 1,6,-1
 228 1106 l 1,0,-1
EndSplineSet
Substitution2: "'fwid' Full Widths lookup 32 subtable" uniFF56
Substitution2: "'smcp' Lowercase to Small Capitals lookup 27 subtable" v.sc
AlternateSubs2: "'aalt' Access All Alternates lookup 1 subtable" v.sc uniFF56
EndChar

StartChar: w
Encoding: 119 119 48
Width: 1200
GlyphClass: 2
Flags: W
AnchorPoint: "Anchor-37" 599 552 basechar 0
AnchorPoint: "Anchor-35" 697 1104 basechar 0
AnchorPoint: "Anchor-33" 502 0 basechar 0
LayerCount: 2
Fore
SplineSet
165 1100 m 1,0,-1
 413 1100 l 1,1,-1
 360 300 l 1,2,-1
 374 322 l 1,3,-1
 590 936 l 1,4,-1
 742 936 l 1,5,-1
 739 322 l 1,6,-1
 745 300 l 1,7,-1
 1001 1100 l 1,8,-1
 1231 1100 l 1,9,-1
 845 0 l 1,10,-1
 620 0 l 1,11,-1
 600 532 l 1,12,-1
 384 0 l 1,13,-1
 155 0 l 1,14,-1
 165 1100 l 1,0,-1
EndSplineSet
Substitution2: "'fwid' Full Widths lookup 32 subtable" uniFF57
Substitution2: "'smcp' Lowercase to Small Capitals lookup 27 subtable" w.sc
AlternateSubs2: "'aalt' Access All Alternates lookup 1 subtable" w.sc uniFF57
EndChar

StartChar: x
Encoding: 120 120 49
Width: 1200
GlyphClass: 2
Flags: W
AnchorPoint: "Anchor-37" 600 550 basechar 0
AnchorPoint: "Anchor-35" 700 1104 basechar 0
AnchorPoint: "Anchor-33" 531 0 basechar 0
LayerCount: 2
Fore
SplineSet
447 556 m 1,0,-1
 250 1102 l 1,1,-1
 517 1102 l 1,2,-1
 628 742 l 1,3,-1
 887 1102 l 1,4,-1
 1148 1102 l 1,5,-1
 740 562 l 1,6,-1
 970 0 l 1,7,-1
 696 0 l 1,8,-1
 579 398 l 1,9,-1
 300 0 l 1,10,-1
 30 0 l 1,11,-1
 447 556 l 1,0,-1
EndSplineSet
Substitution2: "'fwid' Full Widths lookup 32 subtable" uniFF58
Substitution2: "'smcp' Lowercase to Small Capitals lookup 27 subtable" x.sc
Substitution2: "'sinf' Scientific Inferiors lookup 14 subtable" uni2093
Substitution2: "'subs' Subscript lookup 13 subtable" uni2093
AlternateSubs2: "'aalt' Access All Alternates lookup 1 subtable" uni2093 x.sc uniFF58
EndChar

StartChar: y
Encoding: 121 121 50
Width: 1200
GlyphClass: 2
Flags: W
AnchorPoint: "Anchor-37" 562 352 basechar 0
AnchorPoint: "Anchor-35" 682 1100 basechar 0
AnchorPoint: "Anchor-33" 454 -342 basechar 0
LayerCount: 2
Fore
SplineSet
90 -185 m 128,-1,1
 143 -190 143 -190 181 -190 c 0,2,3
 234 -190 234 -190 279 -161 c 128,-1,4
 324 -132 324 -132 353 -85 c 128,-1,5
 382 -38 382 -38 389 13 c 0,6,7
 390 19 390 19 390 35 c 0,8,9
 390 127 390 127 345 422 c 1,10,11
 327 497 327 497 297.5 668.5 c 128,-1,12
 268 840 268 840 261 878 c 0,13,14
 253 925 253 925 243 982.5 c 128,-1,15
 233 1040 233 1040 222 1100 c 1,16,-1
 478 1100 l 1,17,-1
 571 332 l 1,18,-1
 926 1100 l 1,19,-1
 1179 1100 l 1,20,-1
 1120 976 l 2,21,22
 1045 821 1045 821 900 517 c 1,23,24
 827 379 827 379 643 -15 c 2,25,-1
 607 -91 l 1,26,27
 533 -223 533 -223 456 -290 c 128,-1,28
 379 -357 379 -357 321 -375 c 128,-1,29
 263 -393 263 -393 208 -395 c 0,30,31
 173 -396 173 -396 94 -389.5 c 128,-1,32
 15 -383 15 -383 -28 -374 c 1,33,-1
 -7 -168 l 1,34,0
 37 -180 37 -180 90 -185 c 128,-1,1
EndSplineSet
Substitution2: "'fwid' Full Widths lookup 32 subtable" uniFF59
Substitution2: "'smcp' Lowercase to Small Capitals lookup 27 subtable" y.sc
AlternateSubs2: "'aalt' Access All Alternates lookup 1 subtable" y.sc uniFF59
EndChar

StartChar: z
Encoding: 122 122 51
Width: 1200
GlyphClass: 2
Flags: W
AnchorPoint: "Anchor-37" 599 550 basechar 0
AnchorPoint: "Anchor-35" 698 1100 basechar 0
AnchorPoint: "Anchor-33" 504 0 basechar 0
LayerCount: 2
Fore
SplineSet
98 206 m 1,0,-1
 773 896 l 1,1,-1
 222 896 l 1,2,-1
 258 1100 l 1,3,-1
 1116 1100 l 1,4,-1
 1086 914 l 1,5,-1
 389 204 l 1,6,-1
 978 204 l 1,7,-1
 942 0 l 1,8,-1
 64 0 l 1,9,-1
 98 206 l 1,0,-1
EndSplineSet
Substitution2: "'fwid' Full Widths lookup 32 subtable" uniFF5A
Substitution2: "'smcp' Lowercase to Small Capitals lookup 27 subtable" z.sc
AlternateSubs2: "'aalt' Access All Alternates lookup 1 subtable" z.sc uniFF5A
EndChar

StartChar: Alpha
Encoding: 913 913 52
Width: 1200
GlyphClass: 2
Flags: W
AnchorPoint: "Anchor-24" 282 1450 basechar 0
AnchorPoint: "Anchor-23" 600 1454 basechar 0
AnchorPoint: "Anchor-22" 897 0 basechar 0
AnchorPoint: "Anchor-21" 1120 0 basechar 0
AnchorPoint: "Anchor-20" 600 0 basechar 0
LayerCount: 2
Fore
SplineSet
583 1450 m 1,0,-1
 935 1450 l 1,1,-1
 1021 0 l 1,2,-1
 769 0 l 1,3,-1
 745 342 l 1,4,-1
 363 342 l 1,5,-1
 223 0 l 1,6,-1
 -17 0 l 1,7,-1
 583 1450 l 1,0,-1
747 550 m 1,8,-1
 729 1204 l 1,9,-1
 705 1204 l 1,10,-1
 457 550 l 1,11,-1
 747 550 l 1,8,-1
EndSplineSet
EndChar

StartChar: Beta
Encoding: 914 914 53
Width: 1200
GlyphClass: 2
Flags: W
AnchorPoint: "Anchor-23" 600 1500 basechar 0
AnchorPoint: "Anchor-20" 600 0 basechar 0
LayerCount: 2
Fore
SplineSet
277 1450 m 1,0,-1
 669 1450 l 2,1,2
 853 1450 853 1450 960 1371.5 c 128,-1,3
 1067 1293 1067 1293 1067 1140 c 0,4,5
 1067 1103 1067 1103 1059 1055 c 0,6,7
 1044 968 1044 968 1014 911 c 128,-1,8
 984 854 984 854 938 819.5 c 128,-1,9
 892 785 892 785 823 760 c 1,10,11
 928 745 928 745 998.5 675 c 128,-1,12
 1069 605 1069 605 1069 473 c 0,13,14
 1069 430 1069 430 1060 379 c 0,15,16
 1024 174 1024 174 867.5 87 c 128,-1,17
 711 0 711 0 485 0 c 2,18,-1
 21 0 l 1,19,-1
 277 1450 l 1,0,-1
475 200 m 2,20,21
 593 200 593 200 681 248 c 128,-1,22
 769 296 769 296 793 433 c 0,23,24
 798 458 798 458 798 488 c 0,25,26
 798 576 798 576 741.5 609 c 128,-1,27
 685 642 685 642 590 642 c 2,28,-1
 388 642 l 1,29,-1
 310 200 l 1,30,-1
 475 200 l 2,20,21
531 838 m 2,31,32
 768 838 768 838 809 1063 c 0,33,34
 813 1086 813 1086 813 1110 c 0,35,36
 813 1181 813 1181 769 1212.5 c 128,-1,37
 725 1244 725 1244 642 1244 c 2,38,-1
 492 1244 l 1,39,-1
 421 838 l 1,40,-1
 531 838 l 2,31,32
EndSplineSet
EndChar

StartChar: Gamma
Encoding: 915 915 54
Width: 1200
GlyphClass: 2
Flags: W
AnchorPoint: "Anchor-23" 759 1450 basechar 0
AnchorPoint: "Anchor-20" 503 0 basechar 0
LayerCount: 2
Fore
SplineSet
283 1450 m 1,0,-1
 1235 1450 l 1,1,-1
 1196 1230 l 1,2,-1
 480 1230 l 1,3,-1
 263 0 l 1,4,-1
 27 0 l 1,5,-1
 283 1450 l 1,0,-1
EndSplineSet
EndChar

StartChar: uni0394
Encoding: 916 916 55
Width: 1200
GlyphClass: 2
Flags: W
AnchorPoint: "Anchor-23" 768 1500 basechar 0
AnchorPoint: "Anchor-20" 503 0 basechar 0
LayerCount: 2
Fore
SplineSet
730 1492 m 1,0,-1
 792 1492 l 1,1,-1
 1051 0 l 1,2,-1
 -49 0 l 1,3,-1
 730 1492 l 1,0,-1
800 174 m 1,4,-1
 684 1024 l 1,5,-1
 272 174 l 1,6,-1
 800 174 l 1,4,-1
EndSplineSet
EndChar

StartChar: Epsilon
Encoding: 917 917 56
Width: 1200
GlyphClass: 2
Flags: W
AnchorPoint: "Anchor-24" 301 1450 basechar 0
AnchorPoint: "Anchor-23" 600 1500 basechar 0
AnchorPoint: "Anchor-22" 835 0 basechar 0
AnchorPoint: "Anchor-20" 600 0 basechar 0
LayerCount: 2
Fore
SplineSet
295 1450 m 1,0,-1
 1205 1450 l 1,1,-1
 1166 1230 l 1,2,-1
 516 1230 l 1,3,-1
 451 860 l 1,4,-1
 1069 860 l 1,5,-1
 1030 640 l 1,6,-1
 412 640 l 1,7,-1
 337 218 l 1,8,-1
 1015 218 l 1,9,-1
 977 0 l 1,10,-1
 39 0 l 1,11,-1
 295 1450 l 1,0,-1
EndSplineSet
EndChar

StartChar: Zeta
Encoding: 918 918 57
Width: 1200
GlyphClass: 2
Flags: W
AnchorPoint: "Anchor-25" 623 714 basechar 0
AnchorPoint: "Anchor-23" 748 1426 basechar 0
AnchorPoint: "Anchor-20" 497 0 basechar 0
LayerCount: 2
Fore
SplineSet
1229 1450 m 1,0,-1
 1192 1228 l 1,1,-1
 330 214 l 1,2,-1
 1040 212 l 1,3,-1
 1003 0 l 1,4,-1
 1 0 l 1,5,-1
 39 242 l 1,6,-1
 897 1232 l 1,7,-1
 487 1232 l 1,8,-1
 462 1092 l 1,9,-1
 254 1092 l 1,10,-1
 279 1232 l 1,11,-1
 278 1232 l 1,12,-1
 317 1450 l 1,13,-1
 1229 1450 l 1,0,-1
EndSplineSet
EndChar

StartChar: Eta
Encoding: 919 919 58
Width: 1200
GlyphClass: 2
Flags: W
AnchorPoint: "Anchor-25" 631 726 basechar 0
AnchorPoint: "Anchor-24" 249 1450 basechar 0
AnchorPoint: "Anchor-23" 600 1500 basechar 0
AnchorPoint: "Anchor-21" 1054 0 basechar 0
AnchorPoint: "Anchor-20" 600 0 basechar 0
LayerCount: 2
Fore
SplineSet
307 1450 m 1,0,-1
 563 1450 l 1,1,-1
 460 870 l 1,2,-1
 854 870 l 1,3,-1
 957 1450 l 1,4,-1
 1213 1450 l 1,5,-1
 957 0 l 1,6,-1
 701 0 l 1,7,-1
 815 644 l 1,8,-1
 421 644 l 1,9,-1
 307 0 l 1,10,-1
 51 0 l 1,11,-1
 307 1450 l 1,0,-1
EndSplineSet
EndChar

StartChar: Theta
Encoding: 920 920 59
Width: 1200
GlyphClass: 2
Flags: W
AnchorPoint: "Anchor-26" 1270 1450 basechar 0
AnchorPoint: "Anchor-25" 631 726 basechar 0
AnchorPoint: "Anchor-24" 248 1450 basechar 0
AnchorPoint: "Anchor-23" 759 1450 basechar 0
AnchorPoint: "Anchor-22" 886 20 basechar 0
AnchorPoint: "Anchor-20" 503 0 basechar 0
LayerCount: 2
Fore
SplineSet
620 805 m 0,1,2
 718 805 718 805 846 834 c 1,3,-1
 817 580 l 1,4,5
 736 600 736 600 642 600 c 0,6,7
 537 600 537 600 412 576 c 1,8,-1
 442 830 l 1,9,0
 524 805 524 805 620 805 c 0,1,2
205.5 1103.5 m 128,-1,11
 306 1269 306 1269 447.5 1363.5 c 128,-1,12
 589 1458 589 1458 743 1458 c 0,13,14
 881 1458 881 1458 986 1384.5 c 128,-1,15
 1091 1311 1091 1311 1148.5 1180 c 128,-1,16
 1206 1049 1206 1049 1206 881 c 0,17,18
 1206 796 1206 796 1189 699 c 0,19,20
 1154 496 1154 496 1052.5 331.5 c 128,-1,21
 951 167 951 167 808 73.5 c 128,-1,22
 665 -20 665 -20 509 -20 c 0,23,24
 373 -20 373 -20 269.5 53 c 128,-1,25
 166 126 166 126 109.5 255.5 c 128,-1,26
 53 385 53 385 53 552 c 0,27,28
 53 641 53 641 69 733 c 0,29,10
 105 938 105 938 205.5 1103.5 c 128,-1,11
272 393 m 0,31,32
 272 261 272 261 325 194.5 c 128,-1,33
 378 128 378 128 506 128 c 0,34,35
 638 128 638 128 730 222 c 128,-1,36
 822 316 822 316 874.5 450.5 c 128,-1,37
 927 585 927 585 953 729 c 0,38,39
 977 868 977 868 977 970 c 0,40,41
 977 1124 977 1124 923 1215 c 128,-1,42
 869 1306 869 1306 745 1306 c 0,43,44
 563 1306 563 1306 458.5 1136.5 c 128,-1,45
 354 967 354 967 306 695 c 0,46,30
 272 498 272 498 272 393 c 0,31,32
EndSplineSet
EndChar

StartChar: Iota
Encoding: 921 921 60
Width: 1200
GlyphClass: 2
Flags: W
AnchorPoint: "Anchor-24" 547 1450 basechar 0
AnchorPoint: "Anchor-23" 757 1450 basechar 0
AnchorPoint: "Anchor-22" 743 0 basechar 0
AnchorPoint: "Anchor-20" 501 0 basechar 0
LayerCount: 2
Fore
SplineSet
253 168 m 1,0,-1
 405 168 l 1,1,-1
 599 1268 l 1,2,-1
 447 1268 l 1,3,-1
 479 1450 l 1,4,-1
 1041 1450 l 1,5,-1
 1009 1268 l 1,6,-1
 857 1268 l 1,7,-1
 663 168 l 1,8,-1
 815 168 l 1,9,-1
 785 0 l 1,10,-1
 223 0 l 1,11,-1
 253 168 l 1,0,-1
EndSplineSet
EndChar

StartChar: Kappa
Encoding: 922 922 61
Width: 1200
GlyphClass: 2
Flags: W
AnchorPoint: "Anchor-23" 600 1500 basechar 0
AnchorPoint: "Anchor-20" 600 0 basechar 0
LayerCount: 2
Fore
SplineSet
467 736 m 1,0,-1
 337 0 l 1,1,-1
 85 0 l 1,2,-1
 341 1452 l 1,3,-1
 593 1452 l 1,4,-1
 486 843 l 1,5,-1
 998 1452 l 1,6,-1
 1284 1452 l 1,7,-1
 722 798 l 1,8,-1
 1072 0 l 1,9,-1
 778 0 l 1,10,-1
 467 736 l 1,0,-1
EndSplineSet
EndChar

StartChar: Lambda
Encoding: 923 923 62
Width: 1200
GlyphClass: 2
Flags: W
AnchorPoint: "Anchor-23" 759 1450 basechar 0
AnchorPoint: "Anchor-20" 503 0 basechar 0
LayerCount: 2
Fore
SplineSet
691 1064 m 1,0,-1
 183 0 l 1,1,-1
 -43 0 l 1,2,-1
 663 1450 l 1,3,-1
 841 1450 l 1,4,-1
 1049 0 l 1,5,-1
 829 0 l 1,6,-1
 691 1064 l 1,0,-1
EndSplineSet
EndChar

StartChar: Mu
Encoding: 924 924 63
Width: 1200
GlyphClass: 2
Flags: W
AnchorPoint: "Anchor-23" 600 1500 basechar 0
AnchorPoint: "Anchor-21" 985 0 basechar 0
AnchorPoint: "Anchor-20" 600 0 basechar 0
LayerCount: 2
Fore
SplineSet
277 1450 m 1,0,-1
 599 1450 l 1,1,-1
 652 860 l 1,2,-1
 915 1450 l 1,3,-1
 1241 1450 l 1,4,-1
 985 0 l 1,5,-1
 741 0 l 1,6,-1
 920 1003 l 1,7,-1
 908 984 l 1,8,-1
 904 973 l 1,9,-1
 634 389 l 1,10,-1
 514 389 l 1,11,-1
 452 973 l 1,12,-1
 451 984 l 1,13,-1
 443 1003 l 1,14,-1
 263 0 l 1,15,-1
 21 0 l 1,16,-1
 277 1450 l 1,0,-1
EndSplineSet
EndChar

StartChar: Nu
Encoding: 925 925 64
Width: 1200
GlyphClass: 2
Flags: W
AnchorPoint: "Anchor-23" 600 1500 basechar 0
AnchorPoint: "Anchor-20" 600 0 basechar 0
LayerCount: 2
Fore
SplineSet
299 1450 m 1,0,-1
 621 1450 l 1,1,-1
 756 618 l 1,2,-1
 785 442 l 1,3,-1
 965 1450 l 1,4,-1
 1215 1450 l 1,5,-1
 959 0 l 1,6,-1
 657 0 l 1,7,-1
 468 990 l 1,8,-1
 291 0 l 1,9,-1
 43 0 l 1,10,-1
 299 1450 l 1,0,-1
EndSplineSet
EndChar

StartChar: Xi
Encoding: 926 926 65
Width: 1200
GlyphClass: 2
Flags: W
AnchorPoint: "Anchor-23" 768 1500 basechar 0
AnchorPoint: "Anchor-20" 503 0 basechar 0
LayerCount: 2
Fore
SplineSet
237 1450 m 1,0,-1
 1285 1450 l 1,1,-1
 1250 1254 l 1,2,-1
 202 1254 l 1,3,-1
 237 1450 l 1,0,-1
16 196 m 1,4,-1
 1064 196 l 1,5,-1
 1029 0 l 1,6,-1
 -19 0 l 1,7,-1
 16 196 l 1,4,-1
257 860 m 1,8,-1
 1057 860 l 1,9,-1
 1022 662 l 1,10,-1
 222 662 l 1,11,-1
 257 860 l 1,8,-1
EndSplineSet
EndChar

StartChar: Omicron
Encoding: 927 927 66
Width: 1200
GlyphClass: 2
Flags: W
AnchorPoint: "Anchor-26" 1231 1450 basechar 0
AnchorPoint: "Anchor-25" 631 724 basechar 0
AnchorPoint: "Anchor-24" 329 1450 basechar 0
AnchorPoint: "Anchor-23" 765 1450 basechar 0
AnchorPoint: "Anchor-22" 953 20 basechar 0
AnchorPoint: "Anchor-20" 509 0 basechar 0
LayerCount: 2
Fore
SplineSet
209.5 111.5 m 128,-1,1
 106 243 106 243 106 481 c 0,2,3
 106 593 106 593 131 737 c 0,4,5
 174 979 174 979 262.5 1141 c 128,-1,6
 351 1303 351 1303 475.5 1382.5 c 128,-1,7
 600 1462 600 1462 752 1462 c 0,8,9
 945 1462 945 1462 1049.5 1337 c 128,-1,10
 1154 1212 1154 1212 1154 966 c 0,11,12
 1154 846 1154 846 1129 703 c 0,13,14
 1068 360 1068 360 916 170 c 128,-1,15
 764 -20 764 -20 519 -20 c 0,16,0
 313 -20 313 -20 209.5 111.5 c 128,-1,1
351 482 m 0,18,19
 351 352 351 352 392 276 c 128,-1,20
 433 200 433 200 523 200 c 0,21,22
 615 200 615 200 688.5 274.5 c 128,-1,23
 762 349 762 349 812 470.5 c 128,-1,24
 862 592 862 592 887 737 c 0,25,26
 909 864 909 864 909 959 c 0,27,28
 909 1088 909 1088 868.5 1165 c 128,-1,29
 828 1242 828 1242 737 1242 c 256,30,31
 646 1242 646 1242 571.5 1164.5 c 128,-1,32
 497 1087 497 1087 447.5 964.5 c 128,-1,33
 398 842 398 842 373 703 c 0,34,17
 351 584 351 584 351 482 c 0,18,19
EndSplineSet
EndChar

StartChar: Pi
Encoding: 928 928 67
Width: 1200
GlyphClass: 2
Flags: W
AnchorPoint: "Anchor-23" 768 1500 basechar 0
AnchorPoint: "Anchor-20" 503 0 basechar 0
LayerCount: 2
Fore
SplineSet
255 1450 m 1,0,-1
 1263 1450 l 1,1,-1
 1007 0 l 1,2,-1
 763 0 l 1,3,-1
 980 1230 l 1,4,-1
 462 1230 l 1,5,-1
 245 0 l 1,6,-1
 -1 0 l 1,7,-1
 255 1450 l 1,0,-1
EndSplineSet
EndChar

StartChar: Rho
Encoding: 929 929 68
Width: 1200
GlyphClass: 2
Flags: W
AnchorPoint: "Anchor-24" 295 1450 basechar 0
AnchorPoint: "Anchor-23" 768 1500 basechar 0
AnchorPoint: "Anchor-20" 503 0 basechar 0
LayerCount: 2
Fore
SplineSet
373 1450 m 1,0,-1
 705 1450 l 2,1,2
 898 1450 898 1450 1008.5 1375.5 c 128,-1,3
 1119 1301 1119 1301 1119 1126 c 0,4,5
 1119 1077 1119 1077 1108 1013 c 0,6,7
 1069 790 1069 790 926.5 692 c 128,-1,8
 784 594 784 594 577 594 c 2,9,-1
 474 594 l 1,10,-1
 369 0 l 1,11,-1
 117 0 l 1,12,-1
 373 1450 l 1,0,-1
556 806 m 2,13,14
 635 806 635 806 693 822 c 128,-1,15
 751 838 751 838 796 891 c 128,-1,16
 841 944 841 944 860 1049 c 0,17,18
 865 1075 865 1075 865 1105 c 0,19,20
 865 1189 865 1189 812.5 1217.5 c 128,-1,21
 760 1246 760 1246 662 1246 c 2,22,-1
 589 1246 l 1,23,-1
 511 806 l 1,24,-1
 556 806 l 2,13,14
EndSplineSet
EndChar

StartChar: Sigma
Encoding: 931 931 69
Width: 1200
GlyphClass: 2
Flags: W
AnchorPoint: "Anchor-23" 768 1500 basechar 0
AnchorPoint: "Anchor-20" 503 0 basechar 0
LayerCount: 2
Fore
SplineSet
10 148 m 1,0,-1
 510 740 l 1,1,-1
 220 1302 l 1,2,-1
 243 1450 l 1,3,-1
 1275 1450 l 1,4,-1
 1241 1258 l 1,5,-1
 486 1258 l 1,6,-1
 765 736 l 1,7,-1
 304 194 l 1,8,-1
 1053 194 l 1,9,-1
 1019 0 l 1,10,-1
 -13 0 l 1,11,-1
 10 148 l 1,0,-1
EndSplineSet
EndChar

StartChar: Tau
Encoding: 932 932 70
Width: 1200
GlyphClass: 2
Flags: W
AnchorPoint: "Anchor-25" 626 700 basechar 0
AnchorPoint: "Anchor-24" 243 1450 basechar 0
AnchorPoint: "Anchor-23" 600 1500 basechar 0
AnchorPoint: "Anchor-20" 600 0 basechar 0
LayerCount: 2
Fore
SplineSet
590 1222 m 1,0,-1
 202 1222 l 1,1,-1
 243 1450 l 1,2,-1
 1275 1450 l 1,3,-1
 1234 1222 l 1,4,-1
 848 1222 l 1,5,-1
 633 0 l 1,6,-1
 375 0 l 1,7,-1
 590 1222 l 1,0,-1
EndSplineSet
EndChar

StartChar: Upsilon
Encoding: 933 933 71
Width: 1200
GlyphClass: 2
Flags: W
AnchorPoint: "Anchor-24" 205 1406 basechar 0
AnchorPoint: "Anchor-23" 759 1454 basechar 0
AnchorPoint: "Anchor-20" 503 0 basechar 0
LayerCount: 2
Fore
SplineSet
499 608 m 1,0,-1
 212 1454 l 1,1,-1
 487 1454 l 1,2,-1
 648 864 l 1,3,-1
 1029 1454 l 1,4,-1
 1312 1454 l 1,5,-1
 731 608 l 1,6,-1
 621 0 l 1,7,-1
 389 0 l 1,8,-1
 499 608 l 1,0,-1
EndSplineSet
EndChar

StartChar: Phi
Encoding: 934 934 72
Width: 1200
GlyphClass: 2
Flags: W
AnchorPoint: "Anchor-26" 1271 1450 basechar 0
AnchorPoint: "Anchor-25" 611 612 basechar 0
AnchorPoint: "Anchor-24" 269 1454 basechar 0
AnchorPoint: "Anchor-23" 759 1450 basechar 0
AnchorPoint: "Anchor-22" 965 0 basechar 0
AnchorPoint: "Anchor-20" 503 0 basechar 0
LayerCount: 2
Fore
SplineSet
1071 1294 m 1,0,-1
 855 1294 l 1,1,-1
 842 1216 l 1,2,3
 1009 1195 1009 1195 1085 1113.5 c 128,-1,4
 1161 1032 1161 1032 1161 875 c 0,5,6
 1161 796 1161 796 1143 695 c 0,7,8
 1116 538 1116 538 1060.5 442 c 128,-1,9
 1005 346 1005 346 910 297 c 128,-1,10
 815 248 815 248 665 236 c 1,11,-1
 651 154 l 1,12,-1
 870 154 l 1,13,-1
 843 0 l 1,14,-1
 191 0 l 1,15,-1
 218 154 l 1,16,-1
 413 154 l 1,17,-1
 427 238 l 1,18,19
 256 256 256 256 178 334.5 c 128,-1,20
 100 413 100 413 100 566 c 0,21,22
 100 640 100 640 116 729 c 0,23,24
 145 899 145 899 202.5 1002 c 128,-1,25
 260 1105 260 1105 356.5 1157.5 c 128,-1,26
 453 1210 453 1210 605 1221 c 1,27,-1
 617 1294 l 1,28,-1
 419 1294 l 1,29,-1
 447 1450 l 1,30,-1
 1099 1450 l 1,31,-1
 1071 1294 l 1,0,-1
338 550 m 0,33,34
 338 479 338 479 368 442.5 c 128,-1,35
 398 406 398 406 471 395 c 1,36,-1
 593 1063 l 1,37,38
 520 1044 520 1044 473.5 997 c 128,-1,39
 427 950 427 950 400 878 c 128,-1,40
 373 806 373 806 355 701 c 0,41,32
 338 599 338 599 338 550 c 0,33,34
834 521.5 m 128,-1,43
 886 604 886 604 909 735 c 0,44,45
 924 825 924 825 924 880 c 0,46,47
 924 956 924 956 895.5 1002 c 128,-1,48
 867 1048 867 1048 801 1065 c 1,49,-1
 681 407 l 1,50,42
 782 439 782 439 834 521.5 c 128,-1,43
EndSplineSet
EndChar

StartChar: Chi
Encoding: 935 935 73
Width: 1200
GlyphClass: 2
Flags: W
AnchorPoint: "Anchor-23" 600 1450 basechar 0
AnchorPoint: "Anchor-21" 879 -70 basechar 0
AnchorPoint: "Anchor-20" 600 0 basechar 0
LayerCount: 2
Fore
SplineSet
544 1450 m 1,0,-1
 663 980 l 1,1,-1
 964 1450 l 1,2,-1
 1229 1450 l 1,3,-1
 805 770 l 1,4,-1
 1006 0 l 1,5,-1
 738 0 l 1,6,-1
 602 546 l 1,7,-1
 272 0 l 1,8,-1
 -4 0 l 1,9,-1
 463 758 l 1,10,-1
 278 1446 l 1,11,-1
 278 1263 l 1,12,-1
 49 1263 l 1,13,-1
 49 1450 l 1,14,-1
 544 1450 l 1,0,-1
EndSplineSet
EndChar

StartChar: Psi
Encoding: 936 936 74
Width: 1200
GlyphClass: 2
Flags: W
AnchorPoint: "Anchor-23" 763 1476 basechar 0
AnchorPoint: "Anchor-20" 503 0 basechar 0
LayerCount: 2
Fore
SplineSet
468 425 m 1,0,1
 312 452 312 452 233 549 c 128,-1,2
 154 646 154 646 154 809 c 0,3,4
 154 879 154 879 167 953 c 0,5,6
 176 1003 176 1003 188 1058 c 0,7,8
 208 1156 208 1156 219 1223.5 c 128,-1,9
 230 1291 230 1291 230 1352 c 0,10,11
 230 1416 230 1416 216 1462 c 1,12,-1
 417 1446 l 1,13,14
 424 1410 424 1410 424 1359 c 0,15,16
 424 1285 424 1285 412 1201.5 c 128,-1,17
 400 1118 400 1118 377 993 c 2,18,-1
 363 919 l 2,19,20
 350 844 350 844 350 792 c 0,21,22
 350 713 350 713 384 664.5 c 128,-1,23
 418 616 418 616 499 600 c 1,24,-1
 649 1450 l 1,25,-1
 873 1450 l 1,26,-1
 724 607 l 1,27,28
 804 628 804 628 854 676 c 128,-1,29
 904 724 904 724 931 791.5 c 128,-1,30
 958 859 958 859 975 953 c 2,31,-1
 988 1034 l 2,32,33
 1011 1182 1011 1182 1035.5 1284.5 c 128,-1,34
 1060 1387 1060 1387 1106 1462 c 1,35,-1
 1311 1446 l 1,36,37
 1257 1355 1257 1355 1225 1228.5 c 128,-1,38
 1193 1102 1193 1102 1161 919 c 0,39,40
 1121 693 1121 693 1007 569.5 c 128,-1,41
 893 446 893 446 691 422 c 1,42,-1
 617 0 l 1,43,-1
 393 0 l 1,44,-1
 468 425 l 1,0,1
EndSplineSet
EndChar

StartChar: uni03A9
Encoding: 937 937 75
Width: 1200
GlyphClass: 2
Flags: W
AnchorPoint: "Anchor-24" 325 1450 basechar 0
AnchorPoint: "Anchor-23" 768 1500 basechar 0
AnchorPoint: "Anchor-21" 963 0 basechar 0
AnchorPoint: "Anchor-20" 503 0 basechar 0
LayerCount: 2
Fore
SplineSet
76 200 m 1,0,-1
 293 200 l 1,1,-1
 307 232 l 1,2,3
 248 263 248 263 199.5 324.5 c 128,-1,4
 151 386 151 386 122.5 476.5 c 128,-1,5
 94 567 94 567 94 678 c 0,6,7
 94 757 94 757 108 835 c 0,8,9
 142 1025 142 1025 233 1167 c 128,-1,10
 324 1309 324 1309 457 1386.5 c 128,-1,11
 590 1464 590 1464 746 1464 c 0,12,13
 894 1464 894 1464 997.5 1406 c 128,-1,14
 1101 1348 1101 1348 1154 1239.5 c 128,-1,15
 1207 1131 1207 1131 1207 980 c 0,16,17
 1207 898 1207 898 1190 801 c 0,18,19
 1164 652 1164 652 1102 534.5 c 128,-1,20
 1040 417 1040 417 960 340 c 128,-1,21
 880 263 880 263 796 226 c 1,22,-1
 784 200 l 1,23,-1
 1000 200 l 1,24,-1
 965 0 l 1,25,-1
 563 0 l 1,26,-1
 604 277 l 1,27,28
 681 286 681 286 756 385.5 c 128,-1,29
 831 485 831 485 886.5 624.5 c 128,-1,30
 942 764 942 764 964 887 c 0,31,32
 974 949 974 949 974 997 c 0,33,34
 974 1124 974 1124 916.5 1204 c 128,-1,35
 859 1284 859 1284 743 1284 c 0,36,37
 639 1284 639 1284 555 1216.5 c 128,-1,38
 471 1149 471 1149 416 1041.5 c 128,-1,39
 361 934 361 934 340 813 c 0,40,41
 323 719 323 719 323 622 c 0,42,43
 323 480 323 480 362.5 383 c 128,-1,44
 402 286 402 286 484 275 c 1,45,-1
 443 0 l 1,46,-1
 41 0 l 1,47,-1
 76 200 l 1,0,-1
EndSplineSet
EndChar

StartChar: Iotadieresis
Encoding: 938 938 76
Width: 1200
GlyphClass: 2
Flags: W
AnchorPoint: "Anchor-24" 535 1450 basechar 0
AnchorPoint: "Anchor-23" 830 1930 basechar 0
AnchorPoint: "Anchor-22" 731 0 basechar 0
AnchorPoint: "Anchor-20" 745 1450 basechar 0
LayerCount: 2
Fore
SplineSet
241 168 m 1,0,-1
 393 168 l 1,1,-1
 587 1268 l 1,2,-1
 435 1268 l 1,3,-1
 467 1450 l 1,4,-1
 1029 1450 l 1,5,-1
 997 1268 l 1,6,-1
 845 1268 l 1,7,-1
 651 168 l 1,8,-1
 803 168 l 1,9,-1
 773 0 l 1,10,-1
 211 0 l 1,11,-1
 241 168 l 1,0,-1
474.5 1641.5 m 128,-1,13
 442 1670 442 1670 442 1724 c 0,14,15
 442 1736 442 1736 446 1764 c 0,16,17
 457 1827 457 1827 491 1855 c 128,-1,18
 525 1883 525 1883 589 1883 c 0,19,20
 715 1883 715 1883 715 1773 c 0,21,22
 715 1750 715 1750 711 1730 c 0,23,24
 701 1669 701 1669 667.5 1641 c 128,-1,25
 634 1613 634 1613 572 1613 c 0,26,12
 507 1613 507 1613 474.5 1641.5 c 128,-1,13
950.5 1855.5 m 128,-1,28
 985 1883 985 1883 1049 1883 c 0,29,30
 1177 1883 1177 1883 1177 1773 c 0,31,32
 1177 1762 1177 1762 1173 1732 c 0,33,34
 1162 1669 1162 1669 1128.5 1641 c 128,-1,35
 1095 1613 1095 1613 1032 1613 c 0,36,37
 968 1613 968 1613 935 1641 c 128,-1,38
 902 1669 902 1669 902 1724 c 0,39,40
 902 1746 902 1746 906 1766 c 0,41,27
 916 1828 916 1828 950.5 1855.5 c 128,-1,28
EndSplineSet
EndChar

StartChar: Upsilondieresis
Encoding: 939 939 77
Width: 1200
GlyphClass: 2
Flags: W
AnchorPoint: "Anchor-24" 205 1406 basechar 0
AnchorPoint: "Anchor-23" 844 1934 basechar 0
AnchorPoint: "Anchor-20" 759 1454 basechar 0
LayerCount: 2
Fore
SplineSet
499 608 m 1,0,-1
 212 1454 l 1,1,-1
 487 1454 l 1,2,-1
 648 864 l 1,3,-1
 1029 1454 l 1,4,-1
 1312 1454 l 1,5,-1
 731 608 l 1,6,-1
 621 0 l 1,7,-1
 389 0 l 1,8,-1
 499 608 l 1,0,-1
488.5 1645.5 m 128,-1,10
 456 1674 456 1674 456 1728 c 0,11,12
 456 1740 456 1740 460 1768 c 0,13,14
 471 1831 471 1831 505 1859 c 128,-1,15
 539 1887 539 1887 603 1887 c 0,16,17
 729 1887 729 1887 729 1777 c 0,18,19
 729 1754 729 1754 725 1734 c 0,20,21
 715 1673 715 1673 681.5 1645 c 128,-1,22
 648 1617 648 1617 586 1617 c 0,23,9
 521 1617 521 1617 488.5 1645.5 c 128,-1,10
964.5 1859.5 m 128,-1,25
 999 1887 999 1887 1063 1887 c 0,26,27
 1191 1887 1191 1887 1191 1777 c 0,28,29
 1191 1766 1191 1766 1187 1736 c 0,30,31
 1176 1673 1176 1673 1142.5 1645 c 128,-1,32
 1109 1617 1109 1617 1046 1617 c 0,33,34
 982 1617 982 1617 949 1645 c 128,-1,35
 916 1673 916 1673 916 1728 c 0,36,37
 916 1750 916 1750 920 1770 c 0,38,24
 930 1832 930 1832 964.5 1859.5 c 128,-1,25
EndSplineSet
EndChar

StartChar: alpha
Encoding: 945 945 78
Width: 1200
GlyphClass: 2
Flags: W
AnchorPoint: "Anchor-25" 621 553 basechar 0
AnchorPoint: "Anchor-23" 700 1115 basechar 0
AnchorPoint: "Anchor-20" 499 -23 basechar 0
LayerCount: 2
Fore
SplineSet
177.5 38 m 128,-1,1
 113 89 113 89 78.5 181.5 c 128,-1,2
 44 274 44 274 44 396 c 0,3,4
 44 480 44 480 60 567 c 0,5,6
 89 732 89 732 155 855.5 c 128,-1,7
 221 979 221 979 313.5 1046 c 128,-1,8
 406 1113 406 1113 512 1113 c 0,9,10
 617 1113 617 1113 677 1050.5 c 128,-1,11
 737 988 737 988 753 870 c 1,12,13
 768 802 768 802 770 674 c 1,14,15
 821 779 821 779 872 903 c 128,-1,16
 923 1027 923 1027 948 1109 c 1,17,-1
 1133 1091 l 1,18,19
 1081 924 1081 924 997 742.5 c 128,-1,20
 913 561 913 561 826 409 c 0,21,22
 795 361 795 361 775 333 c 1,23,24
 782 259 782 259 799 223 c 128,-1,25
 816 187 816 187 854 187 c 0,26,27
 891 187 891 187 924 212 c 128,-1,28
 957 237 957 237 983 277 c 1,29,-1
 1077 162 l 1,30,31
 1027 90 1027 90 966.5 39.5 c 128,-1,32
 906 -11 906 -11 830 -11 c 0,33,34
 763 -11 763 -11 716.5 34.5 c 128,-1,35
 670 80 670 80 646 167 c 1,36,37
 481 -13 481 -13 331 -13 c 0,38,0
 242 -13 242 -13 177.5 38 c 128,-1,1
245 405 m 0,40,41
 245 307 245 307 275 248.5 c 128,-1,42
 305 190 305 190 355 190 c 0,43,44
 409 190 409 190 478 250 c 128,-1,45
 547 310 547 310 618 412 c 1,46,-1
 618 422 l 2,47,48
 617 457 617 457 617 551 c 0,49,50
 617 642 617 642 616 696.5 c 128,-1,51
 615 751 615 751 610 781 c 0,52,53
 602 836 602 836 577.5 874.5 c 128,-1,54
 553 913 553 913 516 913 c 0,55,56
 465 913 465 913 412.5 866.5 c 128,-1,57
 360 820 360 820 318.5 732.5 c 128,-1,58
 277 645 277 645 256 528 c 0,59,39
 245 468 245 468 245 405 c 0,40,41
EndSplineSet
EndChar

StartChar: beta
Encoding: 946 946 79
Width: 1200
GlyphClass: 2
Flags: W
AnchorPoint: "Anchor-23" 768 1466 basechar 0
LayerCount: 2
Fore
SplineSet
268.5 1109.5 m 128,-1,1
 341 1288 341 1288 451.5 1374 c 128,-1,2
 562 1460 562 1460 728 1460 c 0,3,4
 839 1460 839 1460 913.5 1424 c 128,-1,5
 988 1388 988 1388 1024.5 1327 c 128,-1,6
 1061 1266 1061 1266 1061 1191 c 0,7,8
 1061 1161 1061 1161 1055 1129 c 0,9,10
 1035 1023 1035 1023 958 936 c 128,-1,11
 881 849 881 849 769 793 c 1,12,13
 897 764 897 764 972.5 680 c 128,-1,14
 1048 596 1048 596 1048 469 c 0,15,16
 1048 430 1048 430 1041 392 c 0,17,18
 1021 280 1021 280 948.5 184.5 c 128,-1,19
 876 89 876 89 763 32.5 c 128,-1,20
 650 -24 650 -24 513 -24 c 0,21,22
 350 -24 350 -24 238 53 c 1,23,24
 219 -87 219 -87 205 -173 c 128,-1,25
 191 -259 191 -259 176 -347 c 1,26,-1
 -28 -338 l 1,27,-1
 144 637 l 2,28,0
 196 931 196 931 268.5 1109.5 c 128,-1,1
296 366 m 0,30,31
 296 280 296 280 317.5 233 c 128,-1,32
 339 186 339 186 381 168 c 128,-1,33
 423 150 423 150 491 150 c 0,34,35
 587 150 587 150 664 185.5 c 128,-1,36
 741 221 741 221 788.5 281 c 128,-1,37
 836 341 836 341 849 413 c 0,38,39
 853 436 853 436 853 461 c 0,40,41
 853 534 853 534 813 583 c 128,-1,42
 773 632 773 632 708.5 655 c 128,-1,43
 644 678 644 678 570 678 c 0,44,45
 543 678 543 678 506.5 673 c 128,-1,46
 470 668 470 668 402 655 c 1,47,48
 405 695 405 695 412 748 c 0,49,50
 421 808 421 808 419 819 c 1,51,52
 526 824 526 824 623 863 c 128,-1,53
 720 902 720 902 785.5 967.5 c 128,-1,54
 851 1033 851 1033 866 1115 c 0,55,56
 869 1132 869 1132 869 1147 c 0,57,58
 869 1211 869 1211 826 1244.5 c 128,-1,59
 783 1278 783 1278 722 1278 c 0,60,61
 613 1278 613 1278 537 1198.5 c 128,-1,62
 461 1119 461 1119 411 976 c 128,-1,63
 361 833 361 833 324 622 c 0,64,29
 296 464 296 464 296 366 c 0,30,31
EndSplineSet
EndChar

StartChar: gamma
Encoding: 947 947 80
Width: 1200
GlyphClass: 2
Flags: W
AnchorPoint: "Anchor-23" 697 1100 basechar 0
AnchorPoint: "Anchor-20" 447 -316 basechar 0
LayerCount: 2
Fore
SplineSet
408.5 -108.5 m 128,-1,1
 418 -20 418 -20 433 77 c 0,2,3
 442 128 442 128 445 161 c 0,4,5
 446 193 446 193 420 318.5 c 128,-1,6
 394 444 394 444 348 648 c 2,7,-1
 331 724 l 1,8,9
 300 813 300 813 243 1108 c 1,10,-1
 457 1092 l 1,11,12
 471 1030 471 1030 488 936 c 0,13,14
 499 871 499 871 512 808 c 2,15,-1
 618 373 l 1,16,17
 678 439 678 439 720 501 c 128,-1,18
 762 563 762 563 802 644 c 1,19,20
 846 717 846 717 891.5 834 c 128,-1,21
 937 951 937 951 976 1109 c 1,22,-1
 1169 1091 l 1,23,24
 1144 950 1144 950 1086 793.5 c 128,-1,25
 1028 637 1028 637 965 524 c 0,26,27
 950 501 950 501 865 380 c 0,28,29
 711 163 711 163 685 107 c 1,30,31
 651 53 651 53 632.5 -37.5 c 128,-1,32
 614 -128 614 -128 614 -245 c 0,33,34
 614 -299 614 -299 616 -327 c 1,35,-1
 400 -309 l 1,36,0
 399 -197 399 -197 408.5 -108.5 c 128,-1,1
EndSplineSet
EndChar

StartChar: delta
Encoding: 948 948 81
Width: 1200
GlyphClass: 2
Flags: W
AnchorPoint: "Anchor-23" 764 1475 basechar 0
AnchorPoint: "Anchor-20" 503 0 basechar 0
LayerCount: 2
Fore
SplineSet
293.5 42 m 128,-1,1
 193 98 193 98 136.5 195 c 128,-1,2
 80 292 80 292 80 409 c 0,3,4
 80 453 80 453 87 492 c 0,5,6
 103 585 103 585 154.5 672.5 c 128,-1,7
 206 760 206 760 281.5 829 c 128,-1,8
 357 898 357 898 446 937 c 1,9,10
 385 976 385 976 353 1035 c 128,-1,11
 321 1094 321 1094 321 1161 c 0,12,13
 321 1188 321 1188 325 1209 c 0,14,15
 337 1276 337 1276 384.5 1334 c 128,-1,16
 432 1392 432 1392 525 1429 c 128,-1,17
 618 1466 618 1466 758 1466 c 0,18,19
 862 1466 862 1466 968.5 1443.5 c 128,-1,20
 1075 1421 1075 1421 1158 1374 c 1,21,22
 1132 1323 1132 1323 1091 1259 c 0,23,24
 1071 1229 1071 1229 1055 1201 c 1,25,26
 885 1278 885 1278 761 1278 c 0,27,28
 680 1278 680 1278 625 1249.5 c 128,-1,29
 570 1221 570 1221 562 1177 c 0,30,31
 558 1151 558 1151 585 1121 c 128,-1,32
 612 1091 612 1091 681 1044 c 1,33,-1
 756 1007 l 2,34,35
 849 963 849 963 902 929.5 c 128,-1,36
 955 896 955 896 993 846 c 1,37,38
 1039 802 1039 802 1066.5 735 c 128,-1,39
 1094 668 1094 668 1094 581 c 0,40,41
 1094 533 1094 533 1085 479 c 0,42,43
 1059 332 1059 332 974 219.5 c 128,-1,44
 889 107 889 107 768.5 46.5 c 128,-1,45
 648 -14 648 -14 520 -14 c 0,46,0
 394 -14 394 -14 293.5 42 c 128,-1,1
306 397 m 0,48,49
 306 293 306 293 364.5 234 c 128,-1,50
 423 175 423 175 522 175 c 0,51,52
 610 175 610 175 681 219.5 c 128,-1,53
 752 264 752 264 797.5 336 c 128,-1,54
 843 408 843 408 858 491 c 0,55,56
 864 523 864 523 864 558 c 0,57,58
 864 643 864 643 822 716.5 c 128,-1,59
 780 790 780 790 684 835 c 1,60,61
 526 798 526 798 431.5 701.5 c 128,-1,62
 337 605 337 605 312 467 c 0,63,47
 306 430 306 430 306 397 c 0,48,49
EndSplineSet
EndChar

StartChar: epsilon
Encoding: 949 949 82
Width: 1200
GlyphClass: 2
Flags: W
AnchorPoint: "Anchor-23" 697 1100 basechar 0
AnchorPoint: "Anchor-20" 501 -12 basechar 0
LayerCount: 2
Fore
SplineSet
357.5 9.5 m 128,-1,1
 285 33 285 33 222 85 c 0,2,3
 165 132 165 132 137 182.5 c 128,-1,4
 109 233 109 233 109 293 c 0,5,6
 109 319 109 319 113 340 c 0,7,8
 144 511 144 511 366 601 c 1,9,10
 312 628 312 628 281.5 672.5 c 128,-1,11
 251 717 251 717 251 777 c 0,12,13
 251 798 251 798 256 826 c 0,14,15
 268 889 268 889 305.5 944 c 128,-1,16
 343 999 343 999 400 1036 c 0,17,18
 509 1108 509 1108 683 1108 c 0,19,20
 746 1108 746 1108 790.5 1099.5 c 128,-1,21
 835 1091 835 1091 878 1076 c 0,22,23
 977 1040 977 1040 1069 965 c 1,24,-1
 930 845 l 1,25,26
 841 924 841 924 696 924 c 0,27,28
 594 924 594 924 533 886.5 c 128,-1,29
 472 849 472 849 462 775 c 0,30,31
 461 768 461 768 461 755 c 0,32,33
 461 704 461 704 500 680 c 128,-1,34
 539 656 539 656 619 656 c 2,35,-1
 746 656 l 1,36,-1
 715 480 l 1,37,-1
 591 480 l 2,38,39
 530 480 530 480 475 457 c 128,-1,40
 420 434 420 434 383.5 393.5 c 128,-1,41
 347 353 347 353 339 301 c 0,42,43
 337 285 337 285 337 278 c 0,44,45
 337 219 337 219 388.5 188.5 c 128,-1,46
 440 158 440 158 536 158 c 0,47,48
 727 158 727 158 860 280 c 1,49,-1
 979 138 l 1,50,51
 895 62 895 62 778.5 24 c 128,-1,52
 662 -14 662 -14 531 -14 c 0,53,0
 430 -14 430 -14 357.5 9.5 c 128,-1,1
EndSplineSet
EndChar

StartChar: zeta
Encoding: 950 950 83
Width: 1200
GlyphClass: 2
Flags: W
AnchorPoint: "Anchor-23" 759 1454 basechar 0
AnchorPoint: "Anchor-20" 437 -374 basechar 0
LayerCount: 2
Fore
SplineSet
610 -190 m 0,1,2
 668 -190 668 -190 719 -172.5 c 128,-1,3
 770 -155 770 -155 803.5 -124 c 128,-1,4
 837 -93 837 -93 844 -53 c 0,5,6
 845 -49 845 -49 845 -40 c 0,7,8
 845 -13 845 -13 828.5 8.5 c 128,-1,9
 812 30 812 30 772 30 c 0,10,11
 746 30 746 30 718 25.5 c 128,-1,12
 690 21 690 21 638 10 c 0,13,14
 582 -2 582 -2 542.5 -8.5 c 128,-1,15
 503 -15 503 -15 464 -15 c 0,16,17
 339 -15 339 -15 254.5 48.5 c 128,-1,18
 170 112 170 112 129.5 216.5 c 128,-1,19
 89 321 89 321 89 445 c 0,20,21
 89 513 89 513 101 580 c 0,22,23
 123 701 123 701 165.5 791 c 128,-1,24
 208 881 208 881 252.5 936 c 128,-1,25
 297 991 297 991 359 1054 c 1,26,27
 463 1136 463 1136 561 1190 c 1,28,29
 411 1208 411 1208 207 1262 c 1,30,-1
 283 1437 l 1,31,32
 355 1412 355 1412 474.5 1390 c 128,-1,33
 594 1368 594 1368 695 1368 c 0,34,35
 931 1368 931 1368 1096 1378 c 1,36,37
 1091 1327 1091 1327 1082 1276 c 0,38,39
 1073 1216 1073 1216 1071 1186 c 1,40,41
 972 1186 972 1186 875.5 1158.5 c 128,-1,42
 779 1131 779 1131 701 1089 c 128,-1,43
 623 1047 623 1047 575 1002 c 1,44,45
 527 967 527 967 472 903 c 128,-1,46
 417 839 417 839 371 748.5 c 128,-1,47
 325 658 325 658 307 554 c 0,48,49
 295 484 295 484 295 426 c 0,50,51
 295 298 295 298 350 235.5 c 128,-1,52
 405 173 405 173 496 173 c 0,53,54
 526 173 526 173 557 178 c 128,-1,55
 588 183 588 183 644 195 c 0,56,57
 706 208 706 208 745.5 214 c 128,-1,58
 785 220 785 220 825 220 c 0,59,60
 894 220 894 220 943 188 c 128,-1,61
 992 156 992 156 1017 102.5 c 128,-1,62
 1042 49 1042 49 1042 -16 c 0,63,64
 1042 -52 1042 -52 1037 -77 c 0,65,66
 1023 -159 1023 -159 967 -226 c 128,-1,67
 911 -293 911 -293 826 -331.5 c 128,-1,68
 741 -370 741 -370 643 -370 c 0,69,70
 602 -370 602 -370 532 -362 c 128,-1,71
 462 -354 462 -354 420 -342 c 1,72,-1
 438 -157 l 1,73,0
 512 -190 512 -190 610 -190 c 0,1,2
EndSplineSet
EndChar

StartChar: eta
Encoding: 951 951 84
Width: 1200
GlyphClass: 2
Flags: W
AnchorPoint: "Anchor-23" 701 1120 basechar 0
LayerCount: 2
Fore
SplineSet
836 747 m 0,1,2
 836 856 836 856 806 911 c 128,-1,3
 776 966 776 966 711 966 c 0,4,5
 627 966 627 966 553.5 908 c 128,-1,6
 480 850 480 850 429 753.5 c 128,-1,7
 378 657 378 657 358 545 c 2,8,-1
 262 0 l 1,9,-1
 44 0 l 1,10,-1
 99 311 l 1,11,-1
 110 375 l 1,12,-1
 140 543 l 1,13,-1
 240 1109 l 1,14,-1
 441 1100 l 1,15,-1
 440 987 l 1,16,17
 494 1050 494 1050 578 1086 c 128,-1,18
 662 1122 662 1122 750 1122 c 0,19,20
 861 1122 861 1122 938 1077.5 c 128,-1,21
 1015 1033 1015 1033 1053.5 958.5 c 128,-1,22
 1092 884 1092 884 1092 792 c 0,23,24
 1092 749 1092 749 1085 711 c 2,25,-1
 905 -311 l 1,26,-1
 671 -311 l 1,27,-1
 800 421 l 2,28,0
 836 626 836 626 836 747 c 0,1,2
EndSplineSet
EndChar

StartChar: theta
Encoding: 952 952 85
Width: 1200
GlyphClass: 2
Flags: W
AnchorPoint: "Anchor-23" 764 1470 basechar 0
AnchorPoint: "Anchor-20" 494 -42 basechar 0
LayerCount: 2
Fore
SplineSet
317 56.5 m 128,-1,1
 230 129 230 129 183 256 c 128,-1,2
 136 383 136 383 136 540 c 0,3,4
 136 628 136 628 153 728 c 0,5,6
 186 913 186 913 274 1082 c 128,-1,7
 362 1251 362 1251 486 1355.5 c 128,-1,8
 610 1460 610 1460 745 1460 c 0,9,10
 864 1460 864 1460 949.5 1383 c 128,-1,11
 1035 1306 1035 1306 1079 1176.5 c 128,-1,12
 1123 1047 1123 1047 1123 890 c 0,13,14
 1123 793 1123 793 1105 692 c 0,15,16
 1072 504 1072 504 983.5 341.5 c 128,-1,17
 895 179 895 179 772.5 81.5 c 128,-1,18
 650 -16 650 -16 519 -16 c 0,19,0
 404 -16 404 -16 317 56.5 c 128,-1,1
339 531 m 0,21,22
 339 429 339 429 361.5 351.5 c 128,-1,23
 384 274 384 274 426 231 c 128,-1,24
 468 188 468 188 526 188 c 0,25,26
 589 188 589 188 653 233.5 c 128,-1,27
 717 279 717 279 773.5 365.5 c 128,-1,28
 830 452 830 452 868 570 c 1,29,30
 834 564 834 564 806 564 c 0,31,32
 759 564 759 564 724 577 c 128,-1,33
 689 590 689 590 644 615 c 0,34,35
 601 638 601 638 571.5 649.5 c 128,-1,36
 542 661 542 661 505 661 c 0,37,38
 437 661 437 661 343 614 c 1,39,20
 339 556 339 556 339 531 c 0,21,22
519 860 m 0,41,42
 557 860 557 860 586 848.5 c 128,-1,43
 615 837 615 837 657 814 c 0,44,45
 701 789 701 789 733 777 c 128,-1,46
 765 765 765 765 807 765 c 0,47,48
 855 765 855 765 916 785 c 1,49,50
 927 868 927 868 927 936 c 0,51,52
 927 1088 927 1088 879 1180 c 128,-1,53
 831 1272 831 1272 744 1272 c 0,54,55
 671 1272 671 1272 600.5 1214 c 128,-1,56
 530 1156 530 1156 473 1054.5 c 128,-1,57
 416 953 416 953 381 824 c 1,58,40
 459 860 459 860 519 860 c 0,41,42
EndSplineSet
EndChar

StartChar: iota
Encoding: 953 953 86
Width: 1200
GlyphClass: 2
Flags: W
AnchorPoint: "Anchor-23" 699 1112 basechar 0
AnchorPoint: "Anchor-20" 499 -20 basechar 0
LayerCount: 2
Fore
SplineSet
482 74 m 128,-1,1
 437 133 437 133 437 235 c 0,2,3
 437 281 437 281 446 335 c 2,4,-1
 549 920 l 1,5,-1
 267 920 l 1,6,-1
 299 1100 l 1,7,-1
 787 1100 l 1,8,-1
 657 365 l 2,9,10
 652 339 652 339 652 307 c 0,11,12
 652 245 652 245 677.5 210 c 128,-1,13
 703 175 703 175 740 173 c 2,14,-1
 772 173 l 2,15,16
 801 173 801 173 823.5 171 c 128,-1,17
 846 169 846 169 884 164 c 1,18,19
 885 142 885 142 881 108 c 128,-1,20
 877 74 877 74 876 64 c 2,21,-1
 865 -27 l 1,22,23
 841 -23 841 -23 791 -21 c 0,24,25
 729 -18 729 -18 689 -14 c 128,-1,26
 649 -10 649 -10 610 0 c 0,27,0
 527 15 527 15 482 74 c 128,-1,1
EndSplineSet
EndChar

StartChar: kappa
Encoding: 954 954 87
Width: 1200
GlyphClass: 2
Flags: W
AnchorPoint: "Anchor-20" 503 0 basechar 0
LayerCount: 2
Fore
SplineSet
569.5 30.5 m 128,-1,1
 521 72 521 72 501 135.5 c 128,-1,2
 481 199 481 199 484 265 c 0,3,4
 484 273 484 273 483.5 325 c 128,-1,5
 483 377 483 377 465.5 411.5 c 128,-1,6
 448 446 448 446 413 446 c 2,7,-1
 383 446 l 1,8,-1
 304 0 l 1,9,-1
 76 0 l 1,10,-1
 270 1100 l 1,11,-1
 498 1100 l 1,12,-1
 421 664 l 1,13,14
 556 712 556 712 633 864 c 1,15,16
 685 953 685 953 720.5 998 c 128,-1,17
 756 1043 756 1043 815.5 1072 c 128,-1,18
 875 1101 875 1101 970 1101 c 2,19,-1
 1050 1101 l 1,20,-1
 1015 901 l 1,21,-1
 991 901 l 2,22,23
 915 901 915 901 863.5 855.5 c 128,-1,24
 812 810 812 810 777 728 c 1,25,26
 754 685 754 685 701 633.5 c 128,-1,27
 648 582 648 582 576 548 c 1,28,29
 616 525 616 525 635 489 c 128,-1,30
 654 453 654 453 657 404 c 0,31,32
 661 380 661 380 661 347 c 2,33,-1
 660 276 l 2,34,35
 660 233 660 233 668.5 210 c 128,-1,36
 677 187 677 187 703 187 c 0,37,38
 782 187 782 187 842 417 c 1,39,-1
 1003 365 l 1,40,41
 896 -11 896 -11 695 -11 c 0,42,0
 618 -11 618 -11 569.5 30.5 c 128,-1,1
EndSplineSet
EndChar

StartChar: lambda
Encoding: 955 955 88
Width: 1200
GlyphClass: 2
Flags: W
AnchorPoint: "Anchor-23" 765 1506 basechar 0
AnchorPoint: "Anchor-20" 503 0 basechar 0
LayerCount: 2
Fore
SplineSet
272 351 m 0,1,2
 536 695 536 695 695 892 c 1,3,4
 693 1052 693 1052 674 1144.5 c 128,-1,5
 655 1237 655 1237 614 1278.5 c 128,-1,6
 573 1320 573 1320 503 1320 c 0,7,8
 426 1320 426 1320 375.5 1315 c 128,-1,9
 325 1310 325 1310 269 1293 c 1,10,-1
 272 1466 l 1,11,12
 339 1478 339 1478 375.5 1481 c 128,-1,13
 412 1484 412 1484 482 1486 c 0,14,15
 611 1489 611 1489 691.5 1455.5 c 128,-1,16
 772 1422 772 1422 816.5 1341 c 128,-1,17
 861 1260 861 1260 878 1117 c 0,18,19
 894 1007 894 1007 905 891 c 128,-1,20
 916 775 916 775 931 592 c 0,21,22
 959 226 959 226 989 -8 c 1,23,-1
 773 8 l 1,24,25
 764 79 764 79 758.5 162.5 c 128,-1,26
 753 246 753 246 747 382 c 0,27,28
 739 554 739 554 733 628 c 1,29,-1
 646 519 l 2,30,31
 522 364 522 364 434 249 c 128,-1,32
 346 134 346 134 247 -8 c 1,33,-1
 6 7 l 1,34,0
 99 126 99 126 272 351 c 0,1,2
EndSplineSet
EndChar

StartChar: uni03BC
Encoding: 956 956 89
Width: 1200
GlyphClass: 2
Flags: W
AnchorPoint: "Anchor-23" 697 1100 basechar 0
AnchorPoint: "Anchor-20" 424 -450 basechar 0
LayerCount: 2
Fore
SplineSet
252 1109 m 1,1,-1
 460 1100 l 1,2,-1
 368 535 l 2,3,4
 354 449 354 449 354 382 c 0,5,6
 354 278 354 278 391.5 222 c 128,-1,7
 429 166 429 166 515 166 c 0,8,9
 644 166 644 166 731.5 281.5 c 128,-1,10
 819 397 819 397 855 581 c 2,11,-1
 954 1100 l 1,12,-1
 1159 1091 l 1,13,14
 1129 957 1129 957 1081 726 c 128,-1,15
 1033 495 1033 495 1014 389 c 2,16,-1
 952 22 l 1,17,-1
 762 22 l 1,18,-1
 783 138 l 1,19,20
 734 76 734 76 668.5 37 c 128,-1,21
 603 -2 603 -2 544 -2 c 0,22,23
 451 -2 451 -2 392 29.5 c 128,-1,24
 333 61 333 61 290 131 c 1,25,-1
 163 -452 l 1,26,-1
 -37 -443 l 1,27,0
 127 257 127 257 252 1109 c 1,1,-1
EndSplineSet
EndChar

StartChar: nu
Encoding: 957 957 90
Width: 1200
GlyphClass: 2
Flags: W
AnchorPoint: "Anchor-23" 698 1108 basechar 0
AnchorPoint: "Anchor-20" 495 -34 basechar 0
LayerCount: 2
Fore
SplineSet
345 950 m 1,0,-1
 153 950 l 1,1,-1
 179 1100 l 1,2,-1
 580 1100 l 1,3,-1
 518 274 l 1,4,5
 532 274 532 274 560 278 c 128,-1,6
 588 282 588 282 594 287 c 0,7,8
 710 401 710 401 781 495 c 128,-1,9
 852 589 852 589 905.5 739 c 128,-1,10
 959 889 959 889 971 1109 c 1,11,-1
 1189 1091 l 1,12,13
 1167 823 1167 823 1072 608 c 128,-1,14
 977 393 977 393 835 241 c 128,-1,15
 693 89 693 89 521 -5 c 1,16,-1
 312 0 l 1,17,-1
 345 950 l 1,0,-1
EndSplineSet
EndChar

StartChar: xi
Encoding: 958 958 91
Width: 1200
GlyphClass: 2
Flags: W
AnchorPoint: "Anchor-23" 759 1454 basechar 0
LayerCount: 2
Fore
SplineSet
563 -183 m 0,1,2
 760 -183 760 -183 776 -91 c 0,3,4
 777 -88 777 -88 777 -82 c 0,5,6
 777 -61 777 -61 754.5 -48 c 128,-1,7
 732 -35 732 -35 685.5 -26 c 128,-1,8
 639 -17 639 -17 551 -6 c 0,9,10
 423 7 423 7 325 33.5 c 128,-1,11
 227 60 227 60 159.5 121 c 128,-1,12
 92 182 92 182 92 287 c 0,13,14
 92 316 92 316 98 349 c 0,15,16
 120 480 120 480 206.5 581.5 c 128,-1,17
 293 683 293 683 416 724 c 1,18,19
 336 756 336 756 292.5 818.5 c 128,-1,20
 249 881 249 881 249 958 c 0,21,22
 249 984 249 984 253 1005 c 0,23,24
 268 1087 268 1087 305.5 1144 c 128,-1,25
 343 1201 343 1201 399 1241 c 1,26,27
 345 1252 345 1252 259 1278 c 1,28,-1
 322 1431 l 1,29,30
 439 1385 439 1385 525.5 1372.5 c 128,-1,31
 612 1360 612 1360 718 1360 c 2,32,-1
 782 1360 l 2,33,34
 858 1360 858 1360 920.5 1364.5 c 128,-1,35
 983 1369 983 1369 1077 1383 c 1,36,-1
 1067 1236 l 1,37,38
 1026 1236 1026 1236 985.5 1230.5 c 128,-1,39
 945 1225 945 1225 871 1212 c 0,40,41
 858 1209 858 1209 834 1205 c 0,42,43
 754 1197 754 1197 699 1185.5 c 128,-1,44
 644 1174 644 1174 601 1152 c 1,45,46
 543 1131 543 1131 501.5 1086 c 128,-1,47
 460 1041 460 1041 449 979 c 0,48,49
 446 964 446 964 446 951 c 0,50,51
 446 883 446 883 512 858.5 c 128,-1,52
 578 834 578 834 704 834 c 2,53,-1
 961 834 l 1,54,-1
 929 654 l 1,55,-1
 801 654 l 2,56,57
 680 654 680 654 568.5 608.5 c 128,-1,58
 457 563 457 563 383 488 c 128,-1,59
 309 413 309 413 294 329 c 0,60,61
 291 314 291 314 291 300 c 0,62,63
 291 245 291 245 329.5 215 c 128,-1,64
 368 185 368 185 421 173.5 c 128,-1,65
 474 162 474 162 557 153 c 2,66,-1
 583 150 l 1,67,68
 731 138 731 138 852 82.5 c 128,-1,69
 973 27 973 27 973 -89 c 0,70,71
 973 -107 973 -107 970 -125 c 0,72,73
 951 -230 951 -230 859.5 -275.5 c 128,-1,74
 768 -321 768 -321 608 -321 c 0,75,76
 531 -321 531 -321 442 -312 c 1,77,-1
 450 -177 l 1,78,0
 530 -183 530 -183 563 -183 c 0,1,2
EndSplineSet
EndChar

StartChar: omicron
Encoding: 959 959 92
Width: 1200
GlyphClass: 2
Flags: W
AnchorPoint: "Anchor-23" 699 1112 basechar 0
AnchorPoint: "Anchor-20" 494 -42 basechar 0
LayerCount: 2
Fore
SplineSet
294.5 49.5 m 128,-1,1
 190 105 190 105 131 208.5 c 128,-1,2
 72 312 72 312 72 450 c 0,3,4
 72 504 72 504 83 568 c 0,5,6
 111 725 111 725 197.5 848.5 c 128,-1,7
 284 972 284 972 412.5 1041 c 128,-1,8
 541 1110 541 1110 690 1110 c 0,9,10
 822 1110 822 1110 922 1055.5 c 128,-1,11
 1022 1001 1022 1001 1077 900 c 128,-1,12
 1132 799 1132 799 1132 664 c 0,13,14
 1132 603 1132 603 1120 537 c 0,15,16
 1092 380 1092 380 1010 256.5 c 128,-1,17
 928 133 928 133 804.5 63.5 c 128,-1,18
 681 -6 681 -6 532 -6 c 0,19,0
 399 -6 399 -6 294.5 49.5 c 128,-1,1
301 391 m 0,21,22
 301 263 301 263 355.5 199.5 c 128,-1,23
 410 136 410 136 515 136 c 0,24,25
 656 136 656 136 755 246 c 128,-1,26
 854 356 854 356 891 566 c 0,27,28
 905 648 905 648 905 709 c 0,29,30
 905 840 905 840 850 906 c 128,-1,31
 795 972 795 972 690 972 c 0,32,33
 548 972 548 972 450 859.5 c 128,-1,34
 352 747 352 747 315 536 c 0,35,20
 301 460 301 460 301 391 c 0,21,22
EndSplineSet
EndChar

StartChar: pi
Encoding: 960 960 93
Width: 1200
GlyphClass: 2
Flags: W
AnchorPoint: "Anchor-23" 700 1118 basechar 0
AnchorPoint: "Anchor-20" 495 -34 basechar 0
LayerCount: 2
Fore
SplineSet
765 4 m 128,-1,1
 719 30 719 30 693.5 78 c 128,-1,2
 668 126 668 126 668 188 c 0,3,4
 668 206 668 206 669 216 c 0,5,6
 668 260 668 260 710.5 497.5 c 128,-1,7
 753 735 753 735 795 939 c 1,8,-1
 547 921 l 1,9,10
 401 378 401 378 321 -9 c 1,11,-1
 73 10 l 1,12,13
 163 233 163 233 225 453.5 c 128,-1,14
 287 674 287 674 334 939 c 1,15,-1
 138 930 l 1,16,-1
 168 1100 l 1,17,-1
 1234 1100 l 1,18,-1
 1204 930 l 1,19,-1
 986 921 l 1,20,-1
 979 878 l 2,21,22
 963 789 963 789 931.5 614 c 128,-1,23
 900 439 900 439 884 354 c 0,24,25
 874 293 874 293 874 245 c 0,26,27
 874 198 874 198 887 175 c 128,-1,28
 900 152 900 152 929 152 c 0,29,30
 968 152 968 152 993.5 159 c 128,-1,31
 1019 166 1019 166 1061 183 c 1,32,-1
 1044 14 l 1,33,34
 1011 -10 1011 -10 972 -16 c 128,-1,35
 933 -22 933 -22 870 -22 c 0,36,0
 811 -22 811 -22 765 4 c 128,-1,1
EndSplineSet
EndChar

StartChar: rho
Encoding: 961 961 94
Width: 1200
GlyphClass: 2
Flags: W
AnchorPoint: "Anchor-23" 697 1100 basechar 0
AnchorPoint: "Anchor-20" 430 -414 basechar 0
LayerCount: 2
Fore
SplineSet
-46 -480 m 1,0,-1
 35 -79 l 2,1,2
 51 2 51 2 57 40 c 0,3,4
 84 189 84 189 111.5 321.5 c 128,-1,5
 139 454 139 454 179 597 c 0,6,7
 229 770 229 770 315.5 884.5 c 128,-1,8
 402 999 402 999 510.5 1053.5 c 128,-1,9
 619 1108 619 1108 741 1108 c 0,10,11
 847 1108 847 1108 925 1052 c 128,-1,12
 1003 996 1003 996 1043.5 898.5 c 128,-1,13
 1084 801 1084 801 1084 681 c 0,14,15
 1084 617 1084 617 1072 551 c 0,16,17
 1042 379 1042 379 963.5 254.5 c 128,-1,18
 885 130 885 130 778.5 65 c 128,-1,19
 672 0 672 0 558 0 c 0,20,21
 475 0 475 0 423.5 17.5 c 128,-1,22
 372 35 372 35 345 60 c 128,-1,23
 318 85 318 85 289 126 c 2,24,-1
 276 144 l 1,25,26
 268 119 268 119 256 57 c 128,-1,27
 244 -5 244 -5 230 -86 c 0,28,29
 194 -289 194 -289 155 -489 c 1,30,-1
 -46 -480 l 1,0,-1
394 412 m 0,32,33
 394 306 394 306 436 250 c 128,-1,34
 478 194 478 194 562 194 c 0,35,36
 631 194 631 194 689.5 240.5 c 128,-1,37
 748 287 748 287 790 372.5 c 128,-1,38
 832 458 832 458 852 575 c 0,39,40
 863 639 863 639 863 691 c 0,41,42
 863 793 863 793 826 854.5 c 128,-1,43
 789 916 789 916 720 916 c 0,44,45
 648 916 648 916 582.5 866 c 128,-1,46
 517 816 517 816 470.5 730 c 128,-1,47
 424 644 424 644 406 541 c 0,48,31
 394 471 394 471 394 412 c 0,32,33
EndSplineSet
EndChar

StartChar: uni03C2
Encoding: 962 962 95
Width: 1200
GlyphClass: 2
Flags: W
AnchorPoint: "Anchor-23" 699 1112 basechar 0
AnchorPoint: "Anchor-20" 437 -372 basechar 0
LayerCount: 2
Fore
SplineSet
841.5 873 m 128,-1,1
 775 932 775 932 678 932 c 0,2,3
 603 932 603 932 531 899.5 c 128,-1,4
 459 867 459 867 408.5 810.5 c 128,-1,5
 358 754 358 754 346 686 c 0,6,7
 343 671 343 671 343 657 c 0,8,9
 343 604 343 604 376 566 c 128,-1,10
 409 528 409 528 455 503 c 128,-1,11
 501 478 501 478 580 444 c 1,12,13
 673 413 673 413 746.5 377 c 128,-1,14
 820 341 820 341 875 281.5 c 128,-1,15
 930 222 930 222 930 140 c 0,16,17
 930 118 930 118 926 98 c 0,18,19
 914 28 914 28 862 -32.5 c 128,-1,20
 810 -93 810 -93 723.5 -135 c 128,-1,21
 637 -177 637 -177 524 -193 c 1,22,-1
 494 -22 l 1,23,24
 595 -4 595 -4 658 38.5 c 128,-1,25
 721 81 721 81 731 133 c 0,26,27
 732 137 732 137 732 144 c 0,28,29
 732 171 732 171 709.5 191.5 c 128,-1,30
 687 212 687 212 652 227.5 c 128,-1,31
 617 243 617 243 550 269 c 0,32,33
 542 272 542 272 490.5 291.5 c 128,-1,34
 439 311 439 311 391 335 c 0,35,36
 274 383 274 383 208.5 452 c 128,-1,37
 143 521 143 521 143 634 c 0,38,39
 143 672 143 672 150 710 c 0,40,41
 171 830 171 830 244 921 c 128,-1,42
 317 1012 317 1012 428.5 1062 c 128,-1,43
 540 1112 540 1112 673 1112 c 0,44,45
 850 1112 850 1112 955.5 1022 c 128,-1,46
 1061 932 1061 932 1113 760 c 1,47,-1
 939 706 l 1,48,0
 908 814 908 814 841.5 873 c 128,-1,1
EndSplineSet
EndChar

StartChar: sigma
Encoding: 963 963 96
Width: 1200
GlyphClass: 2
Flags: W
AnchorPoint: "Anchor-23" 718 1170 basechar 0
AnchorPoint: "Anchor-20" 505 -42 basechar 0
LayerCount: 2
Fore
SplineSet
271.5 37 m 128,-1,1
 174 94 174 94 121.5 197 c 128,-1,2
 69 300 69 300 69 432 c 0,3,4
 69 489 69 489 80 555 c 0,5,6
 108 714 108 714 196 836.5 c 128,-1,7
 284 959 284 959 417.5 1030.5 c 128,-1,8
 551 1102 551 1102 714 1113 c 0,9,10
 811 1119 811 1119 988.5 1141 c 128,-1,11
 1166 1163 1166 1163 1194 1166 c 2,12,-1
 1255 1174 l 1,13,-1
 1234 966 l 1,14,-1
 1181 972 l 2,15,16
 989 992 989 992 857 1000 c 1,17,18
 1062 890 1062 890 1062 646 c 0,19,20
 1062 589 1062 589 1050 520 c 0,21,22
 1022 363 1022 363 945.5 240.5 c 128,-1,23
 869 118 869 118 753.5 49 c 128,-1,24
 638 -20 638 -20 498 -20 c 0,25,0
 369 -20 369 -20 271.5 37 c 128,-1,1
314 423 m 0,27,28
 314 346 314 346 336 287.5 c 128,-1,29
 358 229 358 229 398.5 196.5 c 128,-1,30
 439 164 439 164 494 164 c 0,31,32
 566 164 566 164 632 216 c 128,-1,33
 698 268 698 268 746 359 c 128,-1,34
 794 450 794 450 814 563 c 0,35,36
 825 627 825 627 825 676 c 0,37,38
 825 783 825 783 781.5 843.5 c 128,-1,39
 738 904 738 904 657 904 c 0,40,41
 579 904 579 904 510 854.5 c 128,-1,42
 441 805 441 805 392 719 c 128,-1,43
 343 633 343 633 324 526 c 0,44,26
 314 466 314 466 314 423 c 0,27,28
EndSplineSet
EndChar

StartChar: tau
Encoding: 964 964 97
Width: 1200
GlyphClass: 2
Flags: W
AnchorPoint: "Anchor-23" 697 1100 basechar 0
AnchorPoint: "Anchor-20" 499 -22 basechar 0
LayerCount: 2
Fore
SplineSet
189 901 m 2,0,1
 223 978 223 978 243 1028.5 c 128,-1,2
 263 1079 263 1079 269 1109 c 1,3,4
 347 1100 347 1100 1149 1100 c 1,5,-1
 1125 920 l 1,6,-1
 794 920 l 1,7,8
 715 730 715 730 662 489 c 0,9,10
 648 428 648 428 641 385.5 c 128,-1,11
 634 343 634 343 634 308 c 0,12,13
 634 251 634 251 657 220.5 c 128,-1,14
 680 190 680 190 733 190 c 256,15,16
 786 190 786 190 842.5 216 c 128,-1,17
 899 242 899 242 941 283 c 1,18,-1
 1056 139 l 1,19,20
 990 71 990 71 912.5 29.5 c 128,-1,21
 835 -12 835 -12 724 -12 c 0,22,23
 579 -12 579 -12 505 79.5 c 128,-1,24
 431 171 431 171 431 328 c 0,25,26
 431 394 431 394 445 473 c 0,27,28
 487 719 487 719 561 919 c 1,29,30
 459 916 459 916 401.5 902 c 128,-1,31
 344 888 344 888 304 852 c 1,32,-1
 174 866 l 1,33,-1
 189 901 l 2,0,1
EndSplineSet
EndChar

StartChar: upsilon
Encoding: 965 965 98
Width: 1200
GlyphClass: 2
Flags: W
AnchorPoint: "Anchor-23" 700 1118 basechar 0
AnchorPoint: "Anchor-20" 492 -42 basechar 0
LayerCount: 2
Fore
SplineSet
323 28 m 128,-1,1
 241 78 241 78 195.5 170 c 128,-1,2
 150 262 150 262 150 384 c 0,3,4
 150 450 150 450 165 525 c 0,5,6
 175 572 175 572 206 681 c 0,7,8
 239 791 239 791 256 872 c 128,-1,9
 273 953 273 953 273 1039 c 0,10,11
 273 1074 273 1074 270 1108 c 1,12,-1
 486 1091 l 1,13,14
 489 997 489 997 469.5 898 c 128,-1,15
 450 799 450 799 413 662 c 0,16,17
 381 548 381 548 375 509 c 0,18,19
 366 463 366 463 366 412 c 0,20,21
 366 316 366 316 403.5 252 c 128,-1,22
 441 188 441 188 521 188 c 0,23,24
 592 188 592 188 657.5 251 c 128,-1,25
 723 314 723 314 768.5 407 c 128,-1,26
 814 500 814 500 829 587 c 0,27,28
 859 762 859 762 859 905 c 0,29,30
 859 1002 859 1002 845 1108 c 1,31,-1
 1047 1092 l 1,32,33
 1070 967 1070 967 1070 867 c 0,34,35
 1070 737 1070 737 1036 571 c 0,36,37
 999 402 999 402 920.5 267 c 128,-1,38
 842 132 842 132 735.5 55 c 128,-1,39
 629 -22 629 -22 512 -22 c 0,40,0
 405 -22 405 -22 323 28 c 128,-1,1
EndSplineSet
EndChar

StartChar: phi
Encoding: 966 966 99
Width: 1200
GlyphClass: 2
Flags: W
AnchorPoint: "Anchor-23" 697 1100 basechar 0
AnchorPoint: "Anchor-20" 439 -342 basechar 0
LayerCount: 2
Fore
SplineSet
406 5 m 1,0,1
 63 50 63 50 63 426 c 0,2,3
 63 517 63 517 82 622 c 0,4,5
 159 1065 159 1065 481 1116 c 1,6,-1
 500 965 l 1,7,8
 417 932 417 932 361.5 839.5 c 128,-1,9
 306 747 306 747 279 590 c 0,10,11
 261 490 261 490 261 416 c 0,12,13
 261 299 261 299 304.5 243.5 c 128,-1,14
 348 188 348 188 433 188 c 1,15,-1
 515 614 l 2,16,17
 556 847 556 847 652.5 981 c 128,-1,18
 749 1115 749 1115 909 1115 c 0,19,20
 1035 1115 1035 1115 1098 1032 c 128,-1,21
 1161 949 1161 949 1161 788 c 0,22,23
 1161 696 1161 696 1142 588 c 0,24,25
 1046 45 1046 45 597 3 c 1,26,-1
 537 -354 l 1,27,-1
 345 -354 l 1,28,-1
 406 5 l 1,0,1
824.5 300 m 128,-1,30
 904 412 904 412 941 622 c 0,31,32
 967 768 967 768 967 832 c 0,33,34
 967 884 967 884 952 911 c 128,-1,35
 937 938 937 938 902 938 c 0,36,37
 829 938 829 938 780.5 845.5 c 128,-1,38
 732 753 732 753 704 596 c 2,39,-1
 625 188 l 1,40,29
 745 188 745 188 824.5 300 c 128,-1,30
EndSplineSet
EndChar

StartChar: chi
Encoding: 967 967 100
Width: 1200
GlyphClass: 2
Flags: W
AnchorPoint: "Anchor-23" 700 1118 basechar 0
LayerCount: 2
Fore
SplineSet
586.5 -243 m 128,-1,1
 524 -170 524 -170 500.5 -59 c 128,-1,2
 477 52 477 52 473 195 c 1,3,4
 332 8 332 8 124 -274 c 1,5,-1
 -85 -259 l 1,6,7
 47 -100 47 -100 183 88 c 128,-1,8
 319 276 319 276 472 496 c 1,9,-1
 473 551 l 2,10,11
 475 623 475 623 475 657 c 0,12,13
 475 789 475 789 451 859.5 c 128,-1,14
 427 930 427 930 358 930 c 0,15,16
 321 930 321 930 284 910.5 c 128,-1,17
 247 891 247 891 204 852 c 1,18,-1
 120 981 l 1,19,20
 174 1034 174 1034 242.5 1073 c 128,-1,21
 311 1112 311 1112 390 1112 c 0,22,23
 477 1112 477 1112 524.5 1065 c 128,-1,24
 572 1018 572 1018 592 930 c 128,-1,25
 612 842 612 842 620 696 c 1,26,27
 711 815 711 815 876 1038 c 2,28,-1
 927 1108 l 1,29,-1
 1145 1092 l 1,30,31
 1108 1042 1108 1042 989 884 c 0,32,33
 796 632 796 632 631 404 c 1,34,-1
 633 299 l 2,35,36
 635 141 635 141 642.5 56 c 128,-1,37
 650 -29 650 -29 677.5 -82.5 c 128,-1,38
 705 -136 705 -136 765 -136 c 0,39,40
 849 -136 849 -136 936 -24 c 1,41,-1
 1028 -165 l 1,42,43
 967 -230 967 -230 901 -273 c 128,-1,44
 835 -316 835 -316 761 -316 c 0,45,0
 649 -316 649 -316 586.5 -243 c 128,-1,1
EndSplineSet
EndChar

StartChar: psi
Encoding: 968 968 101
Width: 1200
GlyphClass: 2
Flags: W
AnchorPoint: "Anchor-23" 760 1460 basechar 0
AnchorPoint: "Anchor-20" 439 -350 basechar 0
LayerCount: 2
Fore
SplineSet
409 3 m 1,0,1
 277 38 277 38 213.5 154 c 128,-1,2
 150 270 150 270 150 426 c 0,3,4
 150 493 150 493 163 569 c 0,5,6
 195 748 195 748 195 857 c 0,7,8
 195 937 195 937 179 994.5 c 128,-1,9
 163 1052 163 1052 131 1107 c 1,10,-1
 335 1093 l 1,11,12
 368 1040 368 1040 384 973.5 c 128,-1,13
 400 907 400 907 400 817 c 0,14,15
 400 698 400 698 371 531 c 0,16,17
 354 436 354 436 354 373 c 0,18,19
 354 302 354 302 374.5 253.5 c 128,-1,20
 395 205 395 205 441 184 c 1,21,-1
 666 1460 l 1,22,-1
 854 1460 l 1,23,-1
 631 196 l 1,24,25
 710 237 710 237 756.5 333 c 128,-1,26
 803 429 803 429 827 565 c 0,27,28
 863 773 863 773 914 897.5 c 128,-1,29
 965 1022 965 1022 1047 1107 c 1,30,-1
 1270 1093 l 1,31,32
 1212 1032 1212 1032 1171.5 966 c 128,-1,33
 1131 900 1131 900 1098 797 c 128,-1,34
 1065 694 1065 694 1037 535 c 0,35,36
 1015 412 1015 412 959.5 297.5 c 128,-1,37
 904 183 904 183 811.5 100.5 c 128,-1,38
 719 18 719 18 596 -3 c 1,39,-1
 535 -350 l 1,40,-1
 347 -350 l 1,41,-1
 409 3 l 1,0,1
EndSplineSet
EndChar

StartChar: omega
Encoding: 969 969 102
Width: 1200
GlyphClass: 2
Flags: W
AnchorPoint: "Anchor-23" 700 1118 basechar 0
AnchorPoint: "Anchor-20" 492 -42 basechar 0
LayerCount: 2
Fore
SplineSet
174.5 19.5 m 128,-1,1
 116 69 116 69 84 162 c 128,-1,2
 52 255 52 255 52 382 c 0,3,4
 52 485 52 485 72 595 c 0,5,6
 99 751 99 751 161.5 883 c 128,-1,7
 224 1015 224 1015 308 1092 c 1,8,-1
 537 1092 l 1,9,10
 438 957 438 957 376 825.5 c 128,-1,11
 314 694 314 694 289 555 c 0,12,13
 271 450 271 450 271 360 c 0,14,15
 271 283 271 283 283.5 236.5 c 128,-1,16
 296 190 296 190 319 190 c 0,17,18
 370 190 370 190 410 244.5 c 128,-1,19
 450 299 450 299 470 415 c 2,20,-1
 502 598 l 1,21,-1
 717 589 l 1,22,23
 701 498 701 498 687 401 c 0,24,25
 677 337 677 337 677 291 c 0,26,27
 677 190 677 190 727 190 c 0,28,29
 762 190 762 190 799.5 242.5 c 128,-1,30
 837 295 837 295 869 386.5 c 128,-1,31
 901 478 901 478 921 589 c 0,32,33
 933 658 933 658 933 726 c 0,34,35
 933 896 933 896 854 1092 c 1,36,-1
 1075 1092 l 1,37,38
 1113 1031 1113 1031 1134.5 940 c 128,-1,39
 1156 849 1156 849 1156 743 c 0,40,41
 1156 651 1156 651 1140 561 c 0,42,43
 1110 387 1110 387 1042 252.5 c 128,-1,44
 974 118 974 118 888 44 c 128,-1,45
 802 -30 802 -30 719 -30 c 0,46,47
 653 -30 653 -30 604.5 8 c 128,-1,48
 556 46 556 46 530 115 c 1,49,50
 484 47 484 47 426 8.5 c 128,-1,51
 368 -30 368 -30 311 -30 c 0,52,0
 233 -30 233 -30 174.5 19.5 c 128,-1,1
EndSplineSet
EndChar

StartChar: zero
Encoding: 48 48 103
Width: 1200
GlyphClass: 1
Flags: W
LayerCount: 2
Fore
SplineSet
268.5 28 m 128,-1,1
 176 76 176 76 137 166 c 128,-1,2
 98 256 98 256 98 391 c 0,3,4
 98 521 98 521 137 747 c 0,5,6
 183 1007 183 1007 243 1157.5 c 128,-1,7
 303 1308 303 1308 421.5 1389 c 128,-1,8
 540 1470 540 1470 749 1470 c 0,9,10
 906 1470 906 1470 998 1424.5 c 128,-1,11
 1090 1379 1090 1379 1129 1292 c 128,-1,12
 1168 1205 1168 1205 1168 1071 c 0,13,14
 1168 934 1168 934 1129 713 c 0,15,16
 1084 458 1084 458 1024 305 c 128,-1,17
 964 152 964 152 844 66 c 128,-1,18
 724 -20 724 -20 517 -20 c 0,19,0
 361 -20 361 -20 268.5 28 c 128,-1,1
331 523.5 m 128,-1,21
 321 446 321 446 321 389 c 0,22,23
 321 277 321 277 366.5 226.5 c 128,-1,24
 412 176 412 176 521 176 c 0,25,26
 644 176 644 176 715.5 235.5 c 128,-1,27
 787 295 787 295 828 414 c 128,-1,28
 869 533 869 533 907 747 c 0,29,30
 925 853 925 853 934.5 923.5 c 128,-1,31
 944 994 944 994 944 1050 c 0,32,33
 944 1162 944 1162 898.5 1217 c 128,-1,34
 853 1272 853 1272 745 1272 c 0,35,36
 623 1272 623 1272 549.5 1207 c 128,-1,37
 476 1142 476 1142 435.5 1025 c 128,-1,38
 395 908 395 908 361 713 c 0,39,20
 341 601 341 601 331 523.5 c 128,-1,21
656 886 m 1,40,-1
 770 730 l 1,41,-1
 614 588 l 1,42,-1
 498 730 l 1,43,-1
 656 886 l 1,40,-1
EndSplineSet
Substitution2: "'ss04' Style Set 4 lookup 44 subtable" zero.alternate
Substitution2: "'fwid' Full Widths lookup 32 subtable" uniFF10
Substitution2: "'zero' Slashed Zero lookup 31 subtable" zero.zero
Substitution2: "'onum' Oldstyle Figures lookup 25 subtable" zero.tosf
Substitution2: "'tnum' Tabular Numbers lookup 24 subtable" zero.tf
Substitution2: "'pnum' Proportional Numbers lookup 23 subtable" zero.lf
Substitution2: "'dnom' Denominators lookup 17 subtable" zero.dnom
Substitution2: "'numr' Numerators lookup 16 subtable" zero.numr
Substitution2: "'sups' Superscript lookup 15 subtable" uni2070
Substitution2: "'sinf' Scientific Inferiors lookup 14 subtable" uni2080
Substitution2: "'subs' Subscript lookup 13 subtable" uni2080
AlternateSubs2: "'aalt' Access All Alternates lookup 1 subtable" uni2080 uni2070 zero.numr zero.dnom zero.lf zero.tf zero.tosf zero.zero uniFF10 zero.alternate
EndChar

StartChar: one
Encoding: 49 49 104
Width: 1200
GlyphClass: 1
Flags: W
LayerCount: 2
Fore
SplineSet
112 200 m 1,0,-1
 454 200 l 1,1,-1
 623 1124 l 1,2,3
 514 1036 514 1036 414.5 976 c 128,-1,4
 315 916 315 916 213 887 c 1,5,-1
 239 1115 l 1,6,7
 356 1160 356 1160 477 1255.5 c 128,-1,8
 598 1351 598 1351 697 1457 c 1,9,-1
 899 1450 l 1,10,-1
 678 200 l 1,11,-1
 994 200 l 1,12,-1
 959 0 l 1,13,-1
 77 0 l 1,14,-1
 112 200 l 1,0,-1
EndSplineSet
Substitution2: "'fwid' Full Widths lookup 32 subtable" uniFF11
Substitution2: "'onum' Oldstyle Figures lookup 25 subtable" one.tosf
Substitution2: "'tnum' Tabular Numbers lookup 24 subtable" one.tf
Substitution2: "'pnum' Proportional Numbers lookup 23 subtable" one.lf
Substitution2: "'dnom' Denominators lookup 17 subtable" one.dnom
Substitution2: "'numr' Numerators lookup 16 subtable" one.numr
Substitution2: "'sups' Superscript lookup 15 subtable" uni00B9
Substitution2: "'sinf' Scientific Inferiors lookup 14 subtable" uni2081
Substitution2: "'subs' Subscript lookup 13 subtable" uni2081
AlternateSubs2: "'aalt' Access All Alternates lookup 1 subtable" uni2081 uni00B9 one.numr one.dnom one.lf one.tf one.tosf uniFF11
EndChar

StartChar: two
Encoding: 50 50 105
Width: 1200
GlyphClass: 1
Flags: W
LayerCount: 2
Fore
SplineSet
233 378 m 0,1,2
 438 534 438 534 562.5 638.5 c 128,-1,3
 687 743 687 743 780.5 857.5 c 128,-1,4
 874 972 874 972 893 1079 c 0,5,6
 896 1099 896 1099 896 1117 c 0,7,8
 896 1182 896 1182 855 1221 c 128,-1,9
 814 1260 814 1260 747 1260 c 0,10,11
 682 1260 682 1260 623.5 1228 c 128,-1,12
 565 1196 565 1196 524.5 1140.5 c 128,-1,13
 484 1085 484 1085 473 1019 c 1,14,-1
 238 1037 l 1,15,16
 265 1184 265 1184 339.5 1281 c 128,-1,17
 414 1378 414 1378 523 1424 c 128,-1,18
 632 1470 632 1470 763 1470 c 0,19,20
 869 1470 869 1470 956.5 1435 c 128,-1,21
 1044 1400 1044 1400 1096.5 1326.5 c 128,-1,22
 1149 1253 1149 1253 1149 1144 c 0,23,24
 1149 1098 1149 1098 1141 1057 c 0,25,26
 1118 925 1118 925 1010.5 787 c 128,-1,27
 903 649 903 649 771.5 532.5 c 128,-1,28
 640 416 640 416 447 264 c 2,29,-1
 352 188 l 1,30,-1
 993 194 l 1,31,-1
 958 -6 l 1,32,-1
 38 -6 l 1,33,-1
 79 260 l 1,34,0
 162 325 162 325 233 378 c 0,1,2
EndSplineSet
Substitution2: "'fwid' Full Widths lookup 32 subtable" uniFF12
Substitution2: "'onum' Oldstyle Figures lookup 25 subtable" two.tosf
Substitution2: "'tnum' Tabular Numbers lookup 24 subtable" two.tf
Substitution2: "'pnum' Proportional Numbers lookup 23 subtable" two.lf
Substitution2: "'dnom' Denominators lookup 17 subtable" two.dnom
Substitution2: "'numr' Numerators lookup 16 subtable" two.numr
Substitution2: "'sups' Superscript lookup 15 subtable" uni00B2
Substitution2: "'sinf' Scientific Inferiors lookup 14 subtable" uni2082
Substitution2: "'subs' Subscript lookup 13 subtable" uni2082
AlternateSubs2: "'aalt' Access All Alternates lookup 1 subtable" uni2082 uni00B2 two.numr two.dnom two.lf two.tf two.tosf uniFF12
EndChar

StartChar: three
Encoding: 51 51 106
Width: 1200
GlyphClass: 1
Flags: W
LayerCount: 2
Fore
SplineSet
333 349 m 0,1,2
 333 290 333 290 359.5 252.5 c 128,-1,3
 386 215 386 215 426.5 198.5 c 128,-1,4
 467 182 467 182 510 182 c 0,5,6
 570 182 570 182 633 208.5 c 128,-1,7
 696 235 696 235 744 290 c 128,-1,8
 792 345 792 345 806 427 c 0,9,10
 811 459 811 459 811 482 c 0,11,12
 811 593 811 593 721 659.5 c 128,-1,13
 631 726 631 726 447 726 c 1,14,-1
 467 900 l 1,15,-1
 928 1254 l 1,16,-1
 294 1254 l 1,17,-1
 329 1450 l 1,18,-1
 1225 1450 l 1,19,-1
 1182 1192 l 1,20,-1
 766 853 l 1,21,22
 909 824 909 824 986 725 c 128,-1,23
 1063 626 1063 626 1063 486 c 0,24,25
 1063 441 1063 441 1054 393 c 0,26,27
 1031 261 1031 261 943.5 167 c 128,-1,28
 856 73 856 73 737 25.5 c 128,-1,29
 618 -22 618 -22 500 -22 c 0,30,31
 389 -22 389 -22 296 15.5 c 128,-1,32
 203 53 203 53 146 131.5 c 128,-1,33
 89 210 89 210 89 327 c 0,34,35
 89 376 89 376 97 419 c 1,36,-1
 338 401 l 1,37,0
 333 369 333 369 333 349 c 0,1,2
EndSplineSet
Substitution2: "'fwid' Full Widths lookup 32 subtable" uniFF13
Substitution2: "'onum' Oldstyle Figures lookup 25 subtable" three.tosf
Substitution2: "'tnum' Tabular Numbers lookup 24 subtable" three.tf
Substitution2: "'pnum' Proportional Numbers lookup 23 subtable" three.lf
Substitution2: "'dnom' Denominators lookup 17 subtable" three.dnom
Substitution2: "'numr' Numerators lookup 16 subtable" three.numr
Substitution2: "'sups' Superscript lookup 15 subtable" uni00B3
Substitution2: "'sinf' Scientific Inferiors lookup 14 subtable" uni2083
Substitution2: "'subs' Subscript lookup 13 subtable" uni2083
AlternateSubs2: "'aalt' Access All Alternates lookup 1 subtable" uni2083 uni00B3 three.numr three.dnom three.lf three.tf three.tosf uniFF13
EndChar

StartChar: four
Encoding: 52 52 107
Width: 1200
GlyphClass: 1
Flags: W
LayerCount: 2
Fore
SplineSet
628 298 m 1,0,-1
 38 298 l 1,1,-1
 77 540 l 1,2,-1
 776 1450 l 1,3,-1
 1059 1450 l 1,4,-1
 890 496 l 1,5,-1
 1096 496 l 1,6,-1
 1062 298 l 1,7,-1
 856 298 l 1,8,-1
 803 0 l 1,9,-1
 575 0 l 1,10,-1
 628 298 l 1,0,-1
664 496 m 1,11,-1
 781 1140 l 1,12,-1
 293 496 l 1,13,-1
 664 496 l 1,11,-1
EndSplineSet
Substitution2: "'fwid' Full Widths lookup 32 subtable" uniFF14
Substitution2: "'onum' Oldstyle Figures lookup 25 subtable" four.tosf
Substitution2: "'tnum' Tabular Numbers lookup 24 subtable" four.tf
Substitution2: "'pnum' Proportional Numbers lookup 23 subtable" four.lf
Substitution2: "'dnom' Denominators lookup 17 subtable" four.dnom
Substitution2: "'numr' Numerators lookup 16 subtable" four.numr
Substitution2: "'sups' Superscript lookup 15 subtable" uni2074
Substitution2: "'sinf' Scientific Inferiors lookup 14 subtable" uni2084
Substitution2: "'subs' Subscript lookup 13 subtable" uni2084
AlternateSubs2: "'aalt' Access All Alternates lookup 1 subtable" uni2084 uni2074 four.numr four.dnom four.lf four.tf four.tosf uniFF14
EndChar

StartChar: five
Encoding: 53 53 108
Width: 1200
GlyphClass: 1
Flags: W
LayerCount: 2
Fore
SplineSet
308.5 17 m 128,-1,1
 213 54 213 54 157 129 c 128,-1,2
 101 204 101 204 101 312 c 0,3,4
 101 352 101 352 108 391 c 1,5,-1
 336 373 l 1,6,7
 335 363 335 363 335 345 c 0,8,9
 335 264 335 264 383.5 227 c 128,-1,10
 432 190 432 190 505 190 c 0,11,12
 576 190 576 190 640.5 227.5 c 128,-1,13
 705 265 705 265 751 336.5 c 128,-1,14
 797 408 797 408 814 505 c 0,15,16
 821 541 821 541 821 577 c 0,17,18
 821 666 821 666 776.5 715 c 128,-1,19
 732 764 732 764 653 764 c 0,20,21
 567 764 567 764 495.5 715.5 c 128,-1,22
 424 667 424 667 389 590 c 1,23,-1
 154 598 l 1,24,-1
 408 1450 l 1,25,-1
 1175 1450 l 1,26,-1
 1139 1246 l 1,27,-1
 574 1246 l 1,28,-1
 437 836 l 1,29,30
 504 904 504 904 573 937 c 128,-1,31
 642 970 642 970 721 970 c 0,32,33
 832 970 832 970 909.5 922 c 128,-1,34
 987 874 987 874 1026.5 788 c 128,-1,35
 1066 702 1066 702 1066 590 c 0,36,37
 1066 526 1066 526 1055 467 c 0,38,39
 1030 324 1030 324 953.5 213.5 c 128,-1,40
 877 103 877 103 765 41.5 c 128,-1,41
 653 -20 653 -20 523 -20 c 0,42,0
 404 -20 404 -20 308.5 17 c 128,-1,1
EndSplineSet
Substitution2: "'fwid' Full Widths lookup 32 subtable" uniFF15
Substitution2: "'onum' Oldstyle Figures lookup 25 subtable" five.tosf
Substitution2: "'tnum' Tabular Numbers lookup 24 subtable" five.tf
Substitution2: "'pnum' Proportional Numbers lookup 23 subtable" five.lf
Substitution2: "'dnom' Denominators lookup 17 subtable" five.dnom
Substitution2: "'numr' Numerators lookup 16 subtable" five.numr
Substitution2: "'sups' Superscript lookup 15 subtable" uni2075
Substitution2: "'sinf' Scientific Inferiors lookup 14 subtable" uni2085
Substitution2: "'subs' Subscript lookup 13 subtable" uni2085
AlternateSubs2: "'aalt' Access All Alternates lookup 1 subtable" uni2085 uni2075 five.numr five.dnom five.lf five.tf five.tosf uniFF15
EndChar

StartChar: six
Encoding: 54 54 109
Width: 1200
GlyphClass: 1
Flags: W
LayerCount: 2
Fore
SplineSet
221 109 m 128,-1,1
 125 240 125 240 125 462 c 0,2,3
 125 580 125 580 150 719 c 0,4,5
 185 919 185 919 263 1088 c 128,-1,6
 341 1257 341 1257 469.5 1363.5 c 128,-1,7
 598 1470 598 1470 773 1470 c 0,8,9
 894 1470 894 1470 987 1421 c 128,-1,10
 1080 1372 1080 1372 1123 1293 c 1,11,-1
 964 1181 l 1,12,13
 940 1221 940 1221 888.5 1244.5 c 128,-1,14
 837 1268 837 1268 770 1268 c 0,15,16
 495 1268 495 1268 390 737 c 1,17,18
 457 848 457 848 539 897 c 128,-1,19
 621 946 621 946 727 946 c 256,20,21
 833 946 833 946 911 896 c 128,-1,22
 989 846 989 846 1030.5 757.5 c 128,-1,23
 1072 669 1072 669 1072 558 c 0,24,25
 1072 501 1072 501 1062 447 c 0,26,27
 1038 313 1038 313 963.5 206 c 128,-1,28
 889 99 889 99 776.5 38.5 c 128,-1,29
 664 -22 664 -22 532 -22 c 0,30,0
 317 -22 317 -22 221 109 c 128,-1,1
358 372 m 0,32,33
 358 285 358 285 404.5 233.5 c 128,-1,34
 451 182 451 182 538 182 c 0,35,36
 654 182 654 182 730.5 261.5 c 128,-1,37
 807 341 807 341 830 469 c 0,38,39
 837 507 837 507 837 548 c 0,40,41
 837 636 837 636 797 689 c 128,-1,42
 757 742 757 742 673 742 c 0,43,44
 596 742 596 742 531 700 c 128,-1,45
 466 658 466 658 422 587.5 c 128,-1,46
 378 517 378 517 363 433 c 0,47,31
 358 407 358 407 358 372 c 0,32,33
EndSplineSet
Substitution2: "'fwid' Full Widths lookup 32 subtable" uniFF16
Substitution2: "'onum' Oldstyle Figures lookup 25 subtable" six.tosf
Substitution2: "'tnum' Tabular Numbers lookup 24 subtable" six.tf
Substitution2: "'pnum' Proportional Numbers lookup 23 subtable" six.lf
Substitution2: "'dnom' Denominators lookup 17 subtable" six.dnom
Substitution2: "'numr' Numerators lookup 16 subtable" six.numr
Substitution2: "'sups' Superscript lookup 15 subtable" uni2076
Substitution2: "'sinf' Scientific Inferiors lookup 14 subtable" uni2086
Substitution2: "'subs' Subscript lookup 13 subtable" uni2086
AlternateSubs2: "'aalt' Access All Alternates lookup 1 subtable" uni2086 uni2076 six.numr six.dnom six.lf six.tf six.tosf uniFF16
EndChar

StartChar: seven
Encoding: 55 55 110
Width: 1200
GlyphClass: 1
Flags: W
LayerCount: 2
Fore
SplineSet
957 1240 m 1,0,-1
 260 1240 l 1,1,-1
 297 1450 l 1,2,-1
 1235 1450 l 1,3,-1
 1200 1240 l 1,4,-1
 434 0 l 1,5,-1
 188 0 l 1,6,-1
 957 1240 l 1,0,-1
EndSplineSet
Substitution2: "'fwid' Full Widths lookup 32 subtable" uniFF17
Substitution2: "'onum' Oldstyle Figures lookup 25 subtable" seven.tosf
Substitution2: "'tnum' Tabular Numbers lookup 24 subtable" seven.tf
Substitution2: "'pnum' Proportional Numbers lookup 23 subtable" seven.lf
Substitution2: "'dnom' Denominators lookup 17 subtable" seven.dnom
Substitution2: "'numr' Numerators lookup 16 subtable" seven.numr
Substitution2: "'sups' Superscript lookup 15 subtable" uni2077
Substitution2: "'sinf' Scientific Inferiors lookup 14 subtable" uni2087
Substitution2: "'subs' Subscript lookup 13 subtable" uni2087
AlternateSubs2: "'aalt' Access All Alternates lookup 1 subtable" uni2087 uni2077 seven.numr seven.dnom seven.lf seven.tf seven.tosf uniFF17
EndChar

StartChar: eight
Encoding: 56 56 111
Width: 1200
GlyphClass: 1
Flags: W
LayerCount: 2
Fore
SplineSet
303.5 22.5 m 128,-1,1
 204 61 204 61 143 141 c 128,-1,2
 82 221 82 221 82 339 c 0,3,4
 82 375 82 375 90 423 c 0,5,6
 106 514 106 514 154 585.5 c 128,-1,7
 202 657 202 657 266.5 704.5 c 128,-1,8
 331 752 331 752 400 777 c 1,9,10
 271 866 271 866 271 1027 c 0,11,12
 271 1063 271 1063 279 1109 c 0,13,14
 300 1228 300 1228 374.5 1309.5 c 128,-1,15
 449 1391 449 1391 550.5 1430.5 c 128,-1,16
 652 1470 652 1470 753 1470 c 0,17,18
 853 1470 853 1470 938.5 1435 c 128,-1,19
 1024 1400 1024 1400 1075.5 1330 c 128,-1,20
 1127 1260 1127 1260 1127 1158 c 0,21,22
 1127 1119 1127 1119 1120 1083 c 0,23,24
 1099 966 1099 966 1033 885 c 128,-1,25
 967 804 967 804 881 764 c 1,26,27
 962 720 962 720 1016.5 645 c 128,-1,28
 1071 570 1071 570 1071 466 c 0,29,30
 1071 434 1071 434 1065 399 c 0,31,32
 1040 257 1040 257 955.5 163.5 c 128,-1,33
 871 70 871 70 756 27 c 128,-1,34
 641 -16 641 -16 519 -16 c 0,35,0
 403 -16 403 -16 303.5 22.5 c 128,-1,1
323 351 m 0,37,38
 323 267 323 267 378 220.5 c 128,-1,39
 433 174 433 174 520 174 c 0,40,41
 590 174 590 174 657 205.5 c 128,-1,42
 724 237 724 237 772 296 c 128,-1,43
 820 355 820 355 833 433 c 0,44,45
 838 465 838 465 838 486 c 0,46,47
 838 573 838 573 781.5 616.5 c 128,-1,48
 725 660 725 660 637 660 c 0,49,50
 564 660 564 660 499 630 c 128,-1,51
 434 600 434 600 388 541 c 128,-1,52
 342 482 342 482 327 397 c 0,53,36
 323 376 323 376 323 351 c 0,37,38
488 1026 m 0,55,56
 488 959 488 959 529 925.5 c 128,-1,57
 570 892 570 892 647 892 c 0,58,59
 744 892 744 892 814 948.5 c 128,-1,60
 884 1005 884 1005 903 1109 c 0,61,62
 907 1132 907 1132 907 1155 c 0,63,64
 907 1225 907 1225 865.5 1260.5 c 128,-1,65
 824 1296 824 1296 749 1296 c 0,66,67
 650 1296 650 1296 580.5 1237.5 c 128,-1,68
 511 1179 511 1179 492 1073 c 0,69,54
 488 1050 488 1050 488 1026 c 0,55,56
EndSplineSet
Substitution2: "'fwid' Full Widths lookup 32 subtable" uniFF18
Substitution2: "'onum' Oldstyle Figures lookup 25 subtable" eight.tosf
Substitution2: "'tnum' Tabular Numbers lookup 24 subtable" eight.tf
Substitution2: "'pnum' Proportional Numbers lookup 23 subtable" eight.lf
Substitution2: "'dnom' Denominators lookup 17 subtable" eight.dnom
Substitution2: "'numr' Numerators lookup 16 subtable" eight.numr
Substitution2: "'sups' Superscript lookup 15 subtable" uni2078
Substitution2: "'sinf' Scientific Inferiors lookup 14 subtable" uni2088
Substitution2: "'subs' Subscript lookup 13 subtable" uni2088
AlternateSubs2: "'aalt' Access All Alternates lookup 1 subtable" uni2088 uni2078 eight.numr eight.dnom eight.lf eight.tf eight.tosf uniFF18
EndChar

StartChar: nine
Encoding: 57 57 112
Width: 1200
GlyphClass: 1
Flags: W
LayerCount: 2
Fore
SplineSet
282.5 20.5 m 128,-1,1
 195 57 195 57 146 124 c 128,-1,2
 97 191 97 191 88 282 c 1,3,-1
 291 354 l 1,4,5
 307 261 307 261 361 220.5 c 128,-1,6
 415 180 415 180 500 180 c 0,7,8
 619 180 619 180 696 263.5 c 128,-1,9
 773 347 773 347 814 463 c 128,-1,10
 855 579 855 579 884 723 c 1,11,12
 819 629 819 629 735.5 587.5 c 128,-1,13
 652 546 652 546 545 546 c 0,14,15
 431 546 431 546 348.5 592.5 c 128,-1,16
 266 639 266 639 222.5 722.5 c 128,-1,17
 179 806 179 806 179 915 c 0,18,19
 179 965 179 965 188 1017 c 0,20,21
 211 1147 211 1147 291.5 1250.5 c 128,-1,22
 372 1354 372 1354 486.5 1412 c 128,-1,23
 601 1470 601 1470 723 1470 c 0,24,25
 953 1470 953 1470 1058 1352.5 c 128,-1,26
 1163 1235 1163 1235 1163 1020 c 0,27,28
 1163 918 1163 918 1142 799 c 0,29,30
 1097 542 1097 542 1019 363 c 128,-1,31
 941 184 941 184 811.5 84 c 128,-1,32
 682 -16 682 -16 491 -16 c 0,33,0
 370 -16 370 -16 282.5 20.5 c 128,-1,1
425 925 m 0,35,36
 425 839 425 839 470.5 787.5 c 128,-1,37
 516 736 516 736 602 736 c 0,38,39
 684 736 684 736 748.5 772.5 c 128,-1,40
 813 809 813 809 854.5 874 c 128,-1,41
 896 939 896 939 911 1023 c 0,42,43
 917 1056 917 1056 917 1085 c 0,44,45
 917 1172 917 1172 870 1224 c 128,-1,46
 823 1276 823 1276 737 1276 c 0,47,48
 662 1276 662 1276 597.5 1239 c 128,-1,49
 533 1202 533 1202 489.5 1137 c 128,-1,50
 446 1072 446 1072 431 989 c 0,51,34
 425 956 425 956 425 925 c 0,35,36
EndSplineSet
Substitution2: "'fwid' Full Widths lookup 32 subtable" uniFF19
Substitution2: "'onum' Oldstyle Figures lookup 25 subtable" nine.tosf
Substitution2: "'tnum' Tabular Numbers lookup 24 subtable" nine.tf
Substitution2: "'pnum' Proportional Numbers lookup 23 subtable" nine.lf
Substitution2: "'dnom' Denominators lookup 17 subtable" nine.dnom
Substitution2: "'numr' Numerators lookup 16 subtable" nine.numr
Substitution2: "'sups' Superscript lookup 15 subtable" uni2079
Substitution2: "'sinf' Scientific Inferiors lookup 14 subtable" uni2089
Substitution2: "'subs' Subscript lookup 13 subtable" uni2089
AlternateSubs2: "'aalt' Access All Alternates lookup 1 subtable" uni2089 uni2079 nine.numr nine.dnom nine.lf nine.tf nine.tosf uniFF19
EndChar

StartChar: asterisk
Encoding: 42 42 113
Width: 1200
GlyphClass: 1
Flags: W
LayerCount: 2
Fore
SplineSet
214 118 m 1,0,-1
 467 481 l 1,1,-1
 401 451 l 1,2,-1
 45 451 l 1,3,-1
 45 650 l 1,4,-1
 400 650 l 1,5,-1
 467 621 l 1,6,-1
 214 983 l 1,7,-1
 417 1101 l 1,8,-1
 600 746 l 1,9,-1
 783 1101 l 1,10,-1
 986 983 l 1,11,-1
 733 621 l 1,12,-1
 800 650 l 1,13,-1
 1155 650 l 1,14,-1
 1155 451 l 1,15,-1
 799 451 l 1,16,-1
 733 481 l 1,17,-1
 986 118 l 1,18,-1
 783 0 l 1,19,-1
 600 355 l 1,20,-1
 417 0 l 1,21,-1
 214 118 l 1,0,-1
EndSplineSet
Substitution2: "'ss05' Style Set 5 lookup 45 subtable" u1F7AF
Substitution2: "'fwid' Full Widths lookup 32 subtable" uniFF0A
AlternateSubs2: "'aalt' Access All Alternates lookup 1 subtable" uniFF0A u1F7AF
EndChar

StartChar: hyphen
Encoding: 45 45 114
Width: 1200
GlyphClass: 1
Flags: W
LayerCount: 2
Fore
SplineSet
216 662 m 1,0,-1
 1018 662 l 1,1,-1
 983 442 l 1,2,-1
 181 442 l 1,3,-1
 216 662 l 1,0,-1
EndSplineSet
Substitution2: "Single Substitution lookup 76 subtable" hyphenfull.alternate
Substitution2: "Single Substitution lookup 71 subtable" hyphenfullone.alternate
Substitution2: "Single Substitution lookup 67 subtable" hyphen.alternate
Substitution2: "Single Substitution lookup 66 subtable" hyphenfull.alternate
Substitution2: "Single Substitution lookup 65 subtable" hyphen.alternate
Substitution2: "Single Substitution lookup 64 subtable" hyphenfull.alternate
Substitution2: "'fwid' Full Widths lookup 32 subtable" uniFF0D
AlternateSubs2: "'aalt' Access All Alternates lookup 1 subtable" uniFF0D hyphenfull.alternate hyphen.alternate hyphenfullone.alternate
EndChar

StartChar: underscore
Encoding: 95 95 115
Width: 1200
GlyphClass: 1
Flags: W
LayerCount: 2
Fore
SplineSet
38 130 m 1,0,-1
 1014 130 l 1,1,-1
 980 -62 l 1,2,-1
 4 -62 l 1,3,-1
 38 130 l 1,0,-1
EndSplineSet
Substitution2: "Single Substitution lookup 78 subtable" underscore.alternate
Substitution2: "Single Substitution lookup 70 subtable" underscore.alternate
Substitution2: "'fwid' Full Widths lookup 32 subtable" uniFF3F
AlternateSubs2: "'aalt' Access All Alternates lookup 1 subtable" uniFF3F underscore.alternate
EndChar

StartChar: plus
Encoding: 43 43 116
Width: 1200
GlyphClass: 1
Flags: W
LayerCount: 2
Fore
SplineSet
455 432 m 1,0,-1
 89 432 l 1,1,-1
 130 664 l 1,2,-1
 496 664 l 1,3,-1
 565 1054 l 1,4,-1
 813 1054 l 1,5,-1
 744 664 l 1,6,-1
 1108 664 l 1,7,-1
 1067 432 l 1,8,-1
 703 432 l 1,9,-1
 635 48 l 1,10,-1
 387 48 l 1,11,-1
 455 432 l 1,0,-1
EndSplineSet
Substitution2: "'fwid' Full Widths lookup 32 subtable" uniFF0B
Substitution2: "'sups' Superscript lookup 15 subtable" uni207A
Substitution2: "'sinf' Scientific Inferiors lookup 14 subtable" uni208A
Substitution2: "'subs' Subscript lookup 13 subtable" uni208A
AlternateSubs2: "'aalt' Access All Alternates lookup 1 subtable" uni208A uni207A uniFF0B
EndChar
